<?xml version="1.0" encoding="utf-8"?>
<!-- Generator: Adobe Illustrator 24.0.3, SVG Export Plug-In . SVG Version: 6.00 Build 0)  -->
<svg version="1.1" id="Layer_1" xmlns="http://www.w3.org/2000/svg" xmlns:xlink="http://www.w3.org/1999/xlink" x="0px" y="0px"
	 viewBox="0 0 149.7 161.2" style="enable-background:new 0 0 149.7 161.2;" xml:space="preserve">
<style type="text/css">
	.st0{fill:#DCDCDC;}
	.st1{fill:#D8953D;}
</style>
<path class="st0" d="M124,84.3l-12.2-14.4c-1.1-1.4-1.6-3.2-1.5-4.9v-5.6c-0.1-16.2-13.2-29.3-29.4-29.3h-6.6v0.1
	c-0.8,0-1.6-0.1-2.3-0.1c-21.1,0-38.2,17.1-38.2,38.2c0,16.8,10.9,31.1,26,36.2l-10.5,19l26.6,16.3L90,120.7l19.6-1.9
	c3.7-0.4,6.5-3.5,6.6-7.2l0.2-18l5.9-2.2C125.1,90.4,126,86.7,124,84.3z"/>
<polygon class="st0" points="37.6,85 49.1,104.6 44.5,120.9 63.8,132.5 62.4,72.6 "/>
<path class="st1" d="M116.3,97.6v-4H94.9c-7.2,0-13-5.8-13-13V61.8h-9.4v14.6l-6.2,2.2l5,5c0.8,0.8,1.2,1.8,1.2,2.8v12
	c0,2,0.7,3.9,2.1,5.4L90,120.7l20-2c3.6-0.4,6.3-3.4,6.3-7v-10.3H108c-1.1,0-1.9-0.9-1.9-1.9l0,0c0-1.1,0.9-1.9,1.9-1.9
	C108,97.6,116.3,97.6,116.3,97.6z"/>
<path class="st1" d="M92.1,20.6H66.5c-7.9,0-15.5,3.2-21.1,8.8L33.9,40.9c-5.5,5.6-8.6,13.1-8.6,20.9v7.5c0,7.9,3.1,15.4,8.7,21
	l15.2,15.2l8.4-8.4c1.4-1.4,1.4-3.8,0-5.2l-3.7-3.7c-3-3-3-7.9,0-10.9l0,0c3-3,7.9-3,10.9,0l3.9,3.9c1.4,1.4,3.8,1.4,5.2,0h8V48.1
	h23.2c2.2,0,4-1.8,4-4v-6.5C109.1,28.2,101.5,20.6,92.1,20.6z"/>
</svg>
