<svg id="Layer_1" data-name="Layer 1" xmlns="http://www.w3.org/2000/svg" xmlns:xlink="http://www.w3.org/1999/xlink" viewBox="0 0 777.6856 777.58635"><defs><style>.cls-1,.cls-15,.cls-20,.cls-21{fill:none;}.cls-2{clip-path:url(#clip-path);}.cls-3{fill:#a7dff2;}.cls-4{fill:#78d8ba;}.cls-5{fill:#04aa73;}.cls-6{fill:#e8e8e8;}.cls-7{fill:#8f8f8f;}.cls-8{fill:#274156;}.cls-9{fill:#1a79db;}.cls-10{fill:#27c3eb;}.cls-11{fill:#dcdcdc;}.cls-12{fill:#ffa619;}.cls-13{fill:#9ee3cd;}.cls-14{fill:#3ec79c;}.cls-15{stroke:#a9a9a9;stroke-width:1.6px;}.cls-15,.cls-20,.cls-21{stroke-linecap:round;stroke-linejoin:round;}.cls-16{font-size:10px;fill:#fff;font-family:ProximaSoft-Bold, Proxima Soft;font-weight:700;letter-spacing:-0.02803em;}.cls-17{letter-spacing:-0.00156em;}.cls-18{letter-spacing:-0.0085em;}.cls-19{letter-spacing:-0.01001em;}.cls-20{stroke:#ffa619;stroke-width:4px;}.cls-21{stroke:gray;stroke-width:2px;}.cls-22{fill:#ff7ba3;}</style><clipPath id="clip-path"><rect class="cls-1" x="-0.22583" y="0.18245" width="777.43755" height="777.43755"/></clipPath></defs><title>Ween_Remote_1</title><g class="cls-2"><rect class="cls-3" x="-0.22583" y="-5.1871" width="777.43755" height="777.43755"/><polygon class="cls-4" points="329.497 45.992 -76.068 800.462 735.062 800.462 329.497 45.992"/><polygon class="cls-5" points="666.997 480.278 481.426 801.697 852.568 801.697 666.997 480.278"/><path class="cls-6" d="M644.0423,409.65446a6.7936,6.7936,0,0,0-8.719-3.16209l-36.29423,14.62749a6.68442,6.68442,0,0,1-5.1157-.049l-32.43093-13.79863a6.68435,6.68435,0,0,1-3.58276-3.652l-14.6272-36.29249a6.79465,6.79465,0,0,0-8.32563-4.09016,6.54318,6.54318,0,0,0-3.9524,8.63871l18.36022,45.55485-25.275,59.4039-3.56,8.36713-26.82718,63.05195a6.79338,6.79338,0,0,0,2.99567,8.7782,6.54411,6.54411,0,0,0,8.90293-3.314l23.70059-55.70354a8.35546,8.35546,0,0,1,10.95975-4.4172l5.81741,2.47517a8.35548,8.35548,0,0,1,4.41721,10.95975L526.853,562.57732a6.65026,6.65026,0,0,0,2.19048,8.08118,6.55152,6.55152,0,0,0,9.78605-2.798l26.97186-63.392,3.56-8.36713,25.11855-59.03618L640.559,418.49345A6.54461,6.54461,0,0,0,644.0423,409.65446Z"/><rect class="cls-7" x="533.61143" y="115.10854" width="1.67001" height="300.01742" transform="translate(-41.12758 108.16279) rotate(-11.13091)"/><rect class="cls-7" x="556.71636" y="432.54754" width="5.047" height="49.14886" transform="translate(-80.34074 792.7503) rotate(-66.95135)"/><rect class="cls-7" x="565.21559" y="341.19882" width="300.02023" height="1.6722" transform="translate(-71.37635 440.99399) rotate(-32.72851)"/><polygon class="cls-7" points="539.736 292.057 418.956 169.756 420.144 168.581 539.175 289.11 620.846 97.159 622.384 97.812 539.736 292.057"/><polygon class="cls-7" points="862.244 359.098 692.145 356.903 772.874 167.169 774.411 167.822 694.659 355.265 862.267 357.427 862.244 359.098"/><path class="cls-8" d="M696.8401,133.64151a271.02733,271.02733,0,0,1,163.97222,225.908,2.13984,2.13984,0,0,0,4.18261.448C899.12784,242.53035,840.85028,115.42594,725.4766,66.33708,610.10243,17.248,478.10956,63.39674,417.14177,169.44634a2.13984,2.13984,0,0,0,3.2232,2.703A271.02735,271.02735,0,0,1,696.8401,133.64151Z"/><rect class="cls-7" x="552.78056" y="406.67119" width="5.047" height="46.74842" transform="translate(212.69653 -183.07916) rotate(23.04865)"/><rect class="cls-7" x="579.48934" y="418.03516" width="5.047" height="46.74842" transform="translate(219.27776 -192.62883) rotate(23.04865)"/><path class="cls-6" d="M608.20106,330.937c-1.79788,7.8074-16.526,44.61688-21.78339,43.40621-5.35657-1.2335-2.403-40.7544-.60514-48.56181s11.23183-23.13071,16.81815-21.8443S609.99893,323.12959,608.20106,330.937Z"/><path class="cls-6" d="M616.18365,334.28281c-4.30623,6.75606-20.2254,43.06631-15.67595,45.96607,4.63526,2.95445,30.74341-26.86146,35.04964-33.61752s8.61739-24.22653,3.78333-27.30769S620.48988,327.52675,616.18365,334.28281Z"/><path class="cls-9" d="M402.00091,858.67586l36.12452-17.96109L333.19956,600.262,285.347,624.05417l.67809,1.36368-2.09978.65488-.21733-1.50738-52.89374,7.62855,50.366,257.469,39.93028-5.75888L289.25781,663.04693a7.10734,7.10734,0,0,1,4.91845-7.79955h0a7.10734,7.10734,0,0,1,8.48022,3.62077Z"/><rect class="cls-10" x="201.32852" y="426.70388" width="51.01743" height="25.28484" rx="2" transform="translate(-120.52162 87.46262) rotate(-17.32165)"/><path class="cls-11" d="M249.15813,383.52949c7.045,22.58885-7.50792,54.56-21.365,58.88178-13.63358,4.252-44.0044-13.70833-51.04941-36.29718s3.4544-45.95647,23.45108-52.193S242.11312,360.94064,249.15813,383.52949Z"/><path class="cls-5" d="M198.00023,346.88471a41.1625,41.1625,0,0,0-27.04,51.5513l78.5914-24.51108A41.16265,41.16265,0,0,0,198.00023,346.88471Z"/><path class="cls-10" d="M198.23089,443.61351H314.388a1.83878,1.83878,0,0,1,1.83878,1.83878V629.97218a0,0,0,0,1,0,0H198.23089a0,0,0,0,1,0,0V443.61351a0,0,0,0,1,0,0Z" transform="translate(-148.15663 100.93065) rotate(-17.32165)"/><rect class="cls-10" x="214.38093" y="602.93008" width="134.56425" height="23.29483" rx="7" transform="translate(-170.20776 111.73324) rotate(-17.32165)"/><rect class="cls-10" x="207.44523" y="580.6917" width="134.56425" height="23.29483" rx="7" transform="translate(-163.90115 108.65969) rotate(-17.32165)"/><rect class="cls-10" x="200.50952" y="558.45333" width="134.56425" height="23.29483" rx="7" transform="translate(-157.59454 105.58614) rotate(-17.32165)"/><rect class="cls-10" x="193.57382" y="536.21495" width="134.56425" height="23.29483" rx="7" transform="translate(-151.28792 102.51258) rotate(-17.32165)"/><rect class="cls-10" x="186.63812" y="513.97658" width="134.56425" height="23.29483" rx="7" transform="translate(-144.98131 99.43903) rotate(-17.32165)"/><rect class="cls-10" x="179.70241" y="491.7382" width="134.56425" height="23.29483" rx="7" transform="translate(-138.6747 96.36548) rotate(-17.32165)"/><rect class="cls-10" x="172.76671" y="469.49983" width="134.56425" height="23.29483" rx="7" transform="translate(-132.36809 93.29192) rotate(-17.32165)"/><rect class="cls-10" x="181.16434" y="447.26145" width="103.89759" height="23.29483" rx="3" transform="translate(-126.06148 90.21837) rotate(-17.32165)"/><polygon class="cls-7" points="193.714 468.964 -223.887 155.604 -222.595 153.878 195.006 467.238 193.714 468.964"/><rect class="cls-7" x="81.58496" y="181.56208" width="551.66455" height="2.15707" transform="translate(71.12388 463.96034) rotate(-71.56505)"/><polygon class="cls-7" points="60.051 367.345 58.415 367.225 -285.464 341.786 -285.304 339.634 56.939 364.953 -66.931 7.918 -64.893 7.21 60.051 367.345"/><polygon class="cls-7" points="323.328 285.235 322.89 283.652 222.98 -78.16 225.06 -78.733 324.532 281.496 592.142 65.919 593.493 67.6 323.328 285.235"/><path class="cls-9" d="M73.50066-51.43652C265.58254-111.343,466.19539-54.32923,598.65984,79.37217a2.97889,2.97889,0,0,0,4.85489-3.27161C509.07017-141.787,263.50673-257.82932,31.68042-185.52735c-231.82729,72.30229-367.888,307.36559-321.72557,540.31149a2.97888,2.97888,0,0,0,5.85394-.06827C-251.2165,169.41722-118.58127,8.47,73.50066-51.43652Z"/><path class="cls-10" d="M105.68141,466.78939l83.95635-1.7468.71646,41.43417L88.92738,501.58815a13.53455,13.53455,0,0,1-13.81316-13.25008l-.43492-20.90364L73.9121,402.32l24.72784-.507Z"/><rect class="cls-7" x="205.09911" y="456.3895" width="13.47915" height="128.24839" transform="translate(-145.36826 86.67809) rotate(-17.32165)"/><rect class="cls-7" x="260.90204" y="502.93968" width="13.85473" height="134.56425" transform="translate(-196.78953 995.68007) rotate(-107.32165)"/><rect class="cls-12" x="290.27107" y="363.06424" width="31.20915" height="58.31939" rx="2" transform="translate(-82.42806 81.38675) rotate(-13.37385)"/><rect class="cls-10" x="263.87017" y="448.44096" width="112.4475" height="35.17286" rx="17.58641" transform="translate(242.43601 -93.98234) rotate(26.58848)"/><path class="cls-10" d="M340.55032,490.46452l-34.82448-69.05634,23.70573-11.95458,40.33662,64.56176a16.78247,16.78247,0,0,1-6.6762,23.87729l0,0A16.78248,16.78248,0,0,1,340.55032,490.46452Z"/><rect class="cls-7" x="279.07458" y="433.31803" width="13.47915" height="128.24839" transform="translate(-135.14415 107.6569) rotate(-17.32165)"/><path class="cls-11" d="M73.38373,376.54821,73.9121,402.32l24.72784-.507,5.11778-11.00312a4.29336,4.29336,0,0,0-3.202-6.04806l-1.0973-.17892L98.68,379.15883a6.44,6.44,0,0,0-4.56386-5.26525L81.63329,370.236A6.44,6.44,0,0,0,73.38373,376.54821Z"/><path class="cls-11" d="M297.50418,405.31537l8.2981,16.00675,23.60856-11.89658-8.2981-16.00675a13.21828,13.21828,0,0,0-17.75255-5.856l0,0A13.21828,13.21828,0,0,0,297.50418,405.31537Z"/><path class="cls-6" d="M611.86159,396.768c-4.81066,11.4775-22.43081,25.01031-34.96711,19.75587s-15.24152-27.3064-10.43086-38.7839,18.87315-16.52228,31.40945-11.26784S616.67225,385.29046,611.86159,396.768Z"/><path class="cls-8" d="M597.7375,384.37691h0a2.0422,2.0422,0,0,1,2.0422,2.0422v5.761a0,0,0,0,1,0,0h-4.08441a0,0,0,0,1,0,0v-5.761a2.04221,2.04221,0,0,1,2.04221-2.04221Z" transform="translate(196.55645 -200.87689) rotate(22.74042)"/><path class="cls-13" d="M580.82673,411.7733a4.62973,4.62973,0,0,1-4.26875-6.41863l.27914-.666a.83432.83432,0,0,1,1.09372-.44728,2.95775,2.95775,0,0,0,3.87044-1.58343l.9974-2.38169a.83555.83555,0,0,1,1.541.64643l-.99577,2.37842-.00164.00327a2.9552,2.9552,0,0,0,1.58344,3.86881.83385.83385,0,0,1,.44728,1.09372l-.27914.666a4.63881,4.63881,0,0,1-4.26712,2.84039Zm-2.74245-5.73792a2.95649,2.95649,0,0,0,5.45225,2.287,4.65712,4.65712,0,0,1-1.99154-2.8959A4.6503,4.6503,0,0,1,578.08428,406.03538Z"/><path class="cls-8" d="M582.92058,378.16658h0a2.0422,2.0422,0,0,1,2.0422,2.0422v5.761a0,0,0,0,1,0,0h-4.08441a0,0,0,0,1,0,0v-5.761a2.0422,2.0422,0,0,1,2.0422-2.0422Z" transform="translate(193.00402 -195.63207) rotate(22.74042)"/><path class="cls-14" d="M583.51857,401.55768a.82277.82277,0,0,1-.32321-.0653.83517.83517,0,0,1-.45055-.45381l-1.92787-4.7095a.83606.83606,0,1,1,1.54752-.63337l1.61119,3.93574,3.93411-1.61119a.83606.83606,0,1,1,.63337,1.54752l-4.70787,1.92788A.84817.84817,0,0,1,583.51857,401.55768Z"/></g><path class="cls-15" d="M581.48413,371.96008a4.52055,4.52055,0,0,1,6.393,0"/><path class="cls-15" d="M601.69746,377.89308a4.52055,4.52055,0,0,1,4.52055,4.52055"/><text class="cls-16" transform="matrix(0.97231, -0.23368, 0.23368, 0.97231, 289.75145, 379.04532)">W<tspan class="cls-17" x="8.8999" y="0">e</tspan><tspan class="cls-18" x="14.41406" y="0">e</tspan><tspan class="cls-19" x="19.85889" y="0">n</tspan></text><line class="cls-20" x1="293.45131" y1="336.45577" x2="296.67893" y2="349.18751"/><line class="cls-20" x1="276.98176" y1="343.36206" x2="284.66764" y2="354.01297"/><line class="cls-20" x1="312.59315" y1="334.99249" x2="309.79359" y2="347.82516"/><line class="cls-20" x1="261.7243" y1="355.97822" x2="274.42291" y2="362.33402"/><line class="cls-20" x1="260.58397" y1="375.62746" x2="274.56325" y2="373.13138"/><line class="cls-20" x1="271.74283" y1="395.24848" x2="278.39476" y2="384.07853"/><line class="cls-20" x1="327.72403" y1="372.79098" x2="338.72698" y2="379.34347"/><line class="cls-20" x1="328.83647" y1="341.48722" x2="320.70781" y2="352.61776"/><line class="cls-20" x1="338.74001" y1="357.70098" x2="325.58234" y2="361.80459"/><path class="cls-21" d="M253.97519,408.83669a6.51392,6.51392,0,0,1-.88865,9.16911"/><path class="cls-21" d="M259.80579,404.03642a14.06631,14.06631,0,0,1-1.919,19.8"/><path class="cls-21" d="M265.56842,399.2921a21.53064,21.53064,0,0,1-2.93729,30.30693"/><path class="cls-22" d="M537.56535,361.57241h0a7.32011,7.32011,0,0,1,7.32011,7.32011v11.069a.53092.53092,0,0,1-.53092.53092H530.77615a.53092.53092,0,0,1-.53092-.53092v-11.069a7.32011,7.32011,0,0,1,7.32011-7.32011Z" transform="translate(-98.51654 222.569) rotate(-21.47598)"/><path class="cls-22" d="M636.30705,403.85832h0a7.32011,7.32011,0,0,1,7.32011,7.32011v11.069a.53092.53092,0,0,1-.53092.53092H629.51786a.53092.53092,0,0,1-.53092-.53092v-11.069A7.32011,7.32011,0,0,1,636.30705,403.85832Z" transform="translate(787.69916 -330.18631) rotate(68.50314)"/></svg>