<svg height="626" width="2455.8999" xmlns="http://www.w3.org/2000/svg"><path d="m887.59961 564.69922s-13.19922 12.30078-13.19922 12.30078 13.19922 12.19922 13.19922 12.19922 2.09961-2.19922 2.09961-2.19922-9.26367-8.5-9.26367-8.5h248.96485c.541.008 1.0441-.27656 1.3168-.74381s.2727-1.04513 0-1.51238-.7758-.75146-1.3168-.74381h-248.98048s9.2793-8.59961 9.2793-8.59961-2.09961-2.20117-2.09961-2.20117" fill="#dedede"/><path d="m2455.9 288.4c0-109.3-88.6-197.9-197.9-197.9s-197.9 88.6-197.9 197.9c0 40.6 12.2 78.3 33.2 109.8h329.5c20.9-31.4 33.1-69.1 33.1-109.8z" fill="#274156"/><path d="m2258 486.4c68.7 0 129.2-35 164.7-88.2h-329.5c35.6 53.2 96.1 88.2 164.8 88.2z" fill="#687a89"/><path d="m1973.4004 361.09961c-5.2 0-10.1004 2.30078-13.4004 6.30078 0 0-22.1992 27.09961-22.1992 27.09961-1.7 2.1-2.7012 4.8-2.7012 7.5v31.80078c0 6.6 5.3004 11.89844 11.9004 11.89844h7.5996 6.5996 210.4004v.10156h5c1 0 1.8008-.80078 1.8008-1.80078v-7.30078c-.2-.7-.6008-1.39961-1.3008-1.59961 0 0-2.0996-.90039-2.0996-.90039v-17.79883c0-3.7-2.4-6.90039-6-7.90039 0 0-53.5-10.69922-53.5-10.69922s-39-33-39-33c-2.8-2.4-6.4-3.70117-10-3.70117zm11.6992 10.40039h38.9004v26.5h-54.9004c-3 0-4.7-3.40078-3-5.80078 0 0 12.3008-17.29883 12.3008-17.29883 1.5-2.2 3.9992-3.40039 6.6992-3.40039zm45.3008 0h39.5c2 0 3.9004.7 5.4004 2 0 0 28.5 24.5 28.5 24.5h-73.4004z" fill="#a9b3bb"/><path d="m2080.6 388.8c-1.1 0-2 .9-2 2v7.3h4v-7.3c0-1.2-.9-2-2-2z" fill="#274156"/><circle cx="1977.5" cy="441.70001" fill="#274156" r="21.299999"/><circle cx="2122.3" cy="441.70001" fill="#274156" r="21.299999"/><path d="m302.3 66.6h142" style="fill:none;stroke:#dedede;stroke-width:4.242641;stroke-linecap:round;stroke-miterlimit:10;stroke-dasharray:0 5"/><path d="m251.1 53.6h160.4" style="fill:none;stroke:#dedede;stroke-width:4.242641;stroke-linecap:round;stroke-miterlimit:10;stroke-dasharray:0 5"/><path d="m240.1 79.3h160.5" style="fill:none;stroke:#dedede;stroke-width:4.242641;stroke-linecap:round;stroke-miterlimit:10;stroke-dasharray:0 5"/><path d="m395.9 288.4c0-109.3-88.6-197.9-197.9-197.9s-198 88.6-198 197.9c0 40.6 12.2 78.3 33.2 109.8h329.5c20.9-31.4 33.2-69.1 33.2-109.8z" fill="#a7dff2"/><path d="m197.9 155.2s-108 80.5-108 80.5h216s-108-80.5-108-80.5m-107.599997 80.5h215.600007v162.5h-215.600007z" fill="#78d8ba"/><path d="m332.30078 345.59961-1 52.59961h13l-.93164-32.66797 19.93164-19.93164c-9.02555 0-16.76949 5.45354-20.12305 13.24609l-.37695-13.24609z" fill="#04aa73"/><path d="m385.1 312c-.7-4.5-4.3-8.1-8.8-8.8-3.8-.6-7.3.8-9.6 3.3-1.2 1.3-3.2 1.6-4.8.9-2.2-1-4.6-1.6-7.2-1.6-1.5 0-3 .2-4.4.6-1.5.4-3.2-.4-3.8-1.8-2.8-6.1-8.9-10.3-16-10.3-5.1 0-9.7 2.2-12.9 5.7-.6.7-1.5 1.1-2.4 1.3-8.4 1.3-14.8 8.6-14.8 17.4v.2c0 2-1 3.9-2.7 5-4.1 2.6-6.8 7.2-6.8 12.4 0 8 6.1 14.4 14.1 14.8 1.5.1 3-.1 4.3-.4 2.2-.6 4.5.5 5.6 2.6 1.8 3.3 5.3 5.5 9.3 5.5 5.9 0 10.6-4.8 10.6-10.6 0-.2 0-.4 0-.7.8.1 1.6.2 2.4.2 3.3 0 6.4-1.3 8.7-3.3 1.2-1.1 3.1-1.1 4.4 0 3.6 2.9 8.3 4.6 13.3 4.1 8.6-.8 15.6-7.6 16.6-16.3.3-3.1-.1-6-1.1-8.7 4-2.1 6.8-6.5 6-11.5z" fill="#03774d"/><path d="m689.4 66.3h-169.5" style="fill:none;stroke:#dedede;stroke-width:4.242641;stroke-linecap:round;stroke-miterlimit:10;stroke-dasharray:0 5"/><path d="m718.1 79.3h-160.5" style="fill:none;stroke:#dedede;stroke-width:4.242641;stroke-linecap:round;stroke-miterlimit:10;stroke-dasharray:0 5"/><path d="m772.3 53.6h-160.4" style="fill:none;stroke:#dedede;stroke-width:4.242641;stroke-linecap:round;stroke-miterlimit:10;stroke-dasharray:0 5"/><path d="m197.9 486.4c68.7 0 129.2-35 164.7-88.2h-329.4c35.5 53.2 96 88.2 164.7 88.2z" fill="#687a89"/><circle cx="110.6" cy="196.89999" fill="#ffa619" r="24"/><path d="m260.9 165.5h18v60.2h-18z" fill="#78d8ba"/><path d="m177.9 319.2h42v79h-42z" fill="#04aa73"/><path d="m241.4 319.3h41.5v40.9h-41.5z" fill="#274156"/><path d="m113.3 318.3h41.5v40.9h-41.5z" fill="#274156"/><path d="m241.4 251.3h41.5v40.9h-41.5z" fill="#274156"/><path d="m178.4 251.3h41.5v40.9h-41.5z" fill="#274156"/><path d="m113.4 251.3h41.5v40.9h-41.5z" fill="#274156"/><path d="m133.09961 317.19922v20.4707h-20.55273v2h20.55273v20.5293h2v-20.5293h20.44727v-2h-20.44727v-20.4707z" fill="#78d8ba"/><path d="m133.09961 250.19922v20.4707h-20.55273v2h20.55273v20.5293h2v-20.5293h20.44727v-2h-20.44727v-20.4707z" fill="#78d8ba"/><path d="m198.09961 250.19922v20.4707h-20.55273v2h20.55273v20.5293h2v-20.5293h20.44727v-2h-20.44727v-20.4707z" fill="#78d8ba"/><path d="m261.09961 250.19922v20.4707h-20.55273v2h20.55273v20.5293h2v-20.5293h20.44727v-2h-20.44727v-20.4707z" fill="#78d8ba"/><path d="m261.09961 318.19922v20.4707h-20.55273v2h20.55273v20.5293h2v-20.5293h20.44727v-2h-20.44727v-20.4707z" fill="#78d8ba"/><path d="m197.89844 148.28906-124.228518 94.53321 6.660156 8.7539 117.572262-89.46679 117.66797 89.46874 6.65821-8.75585z" fill="#c5eee1"/><path d="m1000.5 288.4c0-109.3-88.6-197.9-197.9-197.9s-197.9 88.6-197.9 197.9c0 40.6 12.2 78.3 33.2 109.8h329.5c20.9-31.4 33.1-69.1 33.1-109.8z" fill="#a7dff2"/><path d="m802.6 486.4c68.7 0 129.2-35 164.7-88.2h-329.4c35.4 53.2 96 88.2 164.7 88.2z" fill="#687a89"/><circle cx="717.70001" cy="187.89999" fill="#ffa619" r="24"/><path d="m865.6 165.5h18v60.2h-18z" fill="#78d8ba"/><path d="m802.6 155.2s-108 80.5-108 80.5h216s-108-80.5-108-80.5m-107.6 80.5h215.60001v162.5h-215.60001z" fill="#78d8ba"/><path d="m782.6 319.2h42v79h-42z" fill="#04aa73"/><path d="m846.1 319.3h41.5v40.9h-41.5z" fill="#274156"/><path d="m717.9 318.3h41.5v40.9h-41.5z" fill="#274156"/><path d="m846.1 251.3h41.5v40.9h-41.5z" fill="#274156"/><path d="m783.1 251.3h41.5v40.9h-41.5z" fill="#274156"/><path d="m718.1 251.3h41.5v40.9h-41.5z" fill="#274156"/><path d="m737.69922 317.19922v20.57422h-20.4707v2h20.4707v20.42578h2v-20.42578h20.5293v-2h-20.5293v-20.57422z" fill="#78d8ba"/><path d="m737.69922 250.19922v20.51367h-20.50977v2h20.50977v20.48633h2v-20.48633h20.49023v-2h-20.49023v-20.51367z" fill="#78d8ba"/><path d="m802.69922 250.19922v20.51367h-20.50977v2h20.50977v20.48633h2v-20.48633h20.49023v-2h-20.49023v-20.51367z" fill="#78d8ba"/><path d="m865.69922 250.19922v20.51367h-20.50977v2h20.50977v20.48633h2v-20.48633h20.49023v-2h-20.49023v-20.51367z" fill="#78d8ba"/><path d="m865.69922 318.19922v19.57422h-20.4707v2h20.4707v21.42578h2v-21.42578h20.5293v-2h-20.5293v-19.57422z" fill="#78d8ba"/><path d="m802.60156 148.28906-124.33008 94.53321 6.65821 8.75585 117.66797-89.46874 117.57226 89.46679 6.66016-8.7539z" fill="#c5eee1"/><path d="m1853.6 288.4c0-109.3-88.6-197.9-197.9-197.9s-197.9 88.6-197.9 197.9c0 40.6 12.2 78.3 33.2 109.8h329.5c20.9-31.4 33.1-69.1 33.1-109.8z" fill="#1a79db"/><path d="m1655.7 486.4c68.7 0 129.2-35 164.7-88.2h-329.4c35.5 53.2 96 88.2 164.7 88.2z" fill="#687a89"/><circle cx="1783.9" cy="298.39999" fill="#ffa619" r="24"/><path d="m1718.7 165.5h18v60.2h-18z" fill="#78d8ba"/><path d="m1655.7 155.2s-108 80.5-108 80.5h216s-108-80.5-108-80.5m-107.6 80.5h215.6v162.5h-215.6z" fill="#78d8ba"/><path d="m1635.7 319.2h42v79h-42z" fill="#04aa73"/><path d="m1699.2 319.3h41.5v40.9h-41.5z" fill="#274156"/><path d="m1571.1 318.3h41.5v40.9h-41.5z" fill="#274156"/><path d="m1699.2 251.3h41.5v40.9h-41.5z" fill="#274156"/><path d="m1636.2 251.3h41.5v40.9h-41.5z" fill="#274156"/><path d="m1571.2 251.3h41.5v40.9h-41.5z" fill="#274156"/><path d="m1590.8008 317.19922v20.60547h-20.4414v2h20.4414v20.39453h2v-20.39453h20.5586v-2h-20.5586v-20.60547z" fill="#78d8ba"/><path d="m1590.8008 250.19922v20.54492h-20.4805v2h20.4805v20.45508h2v-20.45508h20.5195v-2h-20.5195v-20.54492z" fill="#78d8ba"/><path d="m1655.8008 250.19922v20.54492h-20.4805v2h20.4805v20.45508h2v-20.45508h20.5195v-2h-20.5195v-20.54492z" fill="#78d8ba"/><path d="m1718.8008 250.19922v20.54492h-20.4805v2h20.4805v20.45508h2v-20.45508h20.5195v-2h-20.5195v-20.54492z" fill="#78d8ba"/><path d="m1718.8008 318.19922v19.60547h-20.4414v2h20.4414v21.39453h2v-21.39453h20.5586v-2h-20.5586v-19.60547z" fill="#78d8ba"/><path d="m1655.6992 148.28906-124.2304 94.53321 6.6621 8.7539 117.5703-89.46679 117.6699 89.46874 6.6582-8.75585z" fill="#c5eee1"/><path d="m2130.4 163.9c-2.2 0-4.2.3-6.2.8 10.2 2.7 17.8 12.1 17.8 23.2s-7.5 20.4-17.8 23.2c2 .5 4.1.8 6.2.8 13.2 0 24-10.7 24-24s-10.7-24-24-24z" fill="#ffa619"/><path d="m2321 165.5h18v60.2h-18z" fill="#78d8ba"/><path d="m2258 155.2s-108 80.5-108 80.5h216s-108-80.5-108-80.5m-107.6001 80.5h215.6v162.50001h-215.6z" fill="#78d8ba"/><path d="m2238 319.2h42v79h-42z" fill="#04aa73"/><path d="m2301.5 319.3h41.5v40.9h-41.5z" fill="#274156"/><path d="m2173.4 318.3h41.5v40.9h-41.5z" fill="#274156"/><path d="m2301.5 251.3h41.5v40.9h-41.5z" fill="#274156"/><path d="m2238.5 251.3h41.5v40.9h-41.5z" fill="#274156"/><path d="m2173.5 251.3h41.5v40.9h-41.5z" fill="#274156"/><path d="m2193.0996 317.19922v21.59766h-20.4473v2h20.4473v19.40234h2v-19.40234h20.5527v-2h-20.5527v-21.59766z" fill="#78d8ba"/><path d="m2193.0996 250.19922v20.53711h-20.4863v2h20.4863v20.46289h2v-20.46289h20.5137v-2h-20.5137v-20.53711z" fill="#78d8ba"/><path d="m2258.0996 250.19922v20.53711h-20.4863v2h20.4863v20.46289h2v-20.46289h20.5137v-2h-20.5137v-20.53711z" fill="#78d8ba"/><path d="m2321.0996 250.19922v20.53711h-20.4863v2h20.4863v20.46289h2v-20.46289h20.5137v-2h-20.5137v-20.53711z" fill="#78d8ba"/><path d="m2321.0996 318.19922v20.59766h-20.4473v2h20.4473v20.40234h2v-20.40234h20.5527v-2h-20.5527v-20.59766z" fill="#78d8ba"/><path d="m2258 148.28906-124.2305 94.53321 6.6602 8.7539 117.5703-89.46484 117.5703 89.46484 6.6602-8.7539z" fill="#c5eee1"/><g fill="#ffa619"><path d="m501.8 53.5c-.5 0-1-.2-1.4-.6s-.6-.9-.6-1.4c0-1.1.9-2 2-2h15.4c.5 0 1 .2 1.4.6s.6.9.6 1.4-.2 1-.6 1.4-.9.6-1.4.6z"/><path d="m518.2 52.5c-.2.2-.6.4-.9.4h-15.4c-.7 0-1.3-.6-1.3-1.3s.6-1.3 1.3-1.3h15.4c.7 0 1.3.6 1.3 1.3 0 .3-.2.6-.4.9z"/><path d="m448.8 53.5c-1.1 0-2-.9-2-2s.9-2 2-2h16.8c.5 0 1 .2 1.4.6s.6.9.6 1.4-.2 1-.6 1.4-.9.6-1.4.6z"/><path d="m466.6 52.5c-.2.2-.6.4-.9.4h-16.8c-.7 0-1.3-.6-1.3-1.3s.6-1.3 1.3-1.3h16.8c.7 0 1.3.6 1.3 1.3-.1.3-.2.6-.4.9z"/><path d="m483.3 36.1c-1.1 0-2-.9-2-2v-16.5c0-1.1.9-2 2-2 .5 0 1 .2 1.4.6s.6.9.6 1.4v16.5c0 .5-.2 1-.6 1.4-.3.4-.8.6-1.4.6z"/><path d="m484.3 35.1c-.2.2-.6.4-.9.4-.7 0-1.3-.6-1.3-1.3v-16.6c0-.7.6-1.3 1.3-1.3s1.3.6 1.3 1.3v16.5c0 .4-.2.7-.4 1z"/><path d="m483.3 88.1c-1.1 0-2-.9-2-2v-15.8c0-1.1.9-2 2-2 .5 0 1 .2 1.4.6s.6.9.6 1.4v15.7c0 .5-.2 1-.6 1.4-.3.5-.8.7-1.4.7z"/><path d="m484.3 87c-.2.2-.6.4-.9.4-.7 0-1.3-.6-1.3-1.3v-15.8c0-.7.6-1.3 1.3-1.3s1.3.6 1.3 1.3v15.7c0 .4-.2.8-.4 1z"/><path d="m495.8 40.8c-.5 0-1-.2-1.4-.6s-.6-.9-.6-1.4.2-1 .6-1.4c0 0 11.4-11.4 11.4-11.4.4-.4.9-.6 1.4-.6s1 .2 1.4.6c.8.8.8 2 0 2.8 0 0-11.4 11.4-11.4 11.4-.3.3-.8.6-1.4.6z"/><path d="m508.2 28.3s-11.4 11.4-11.4 11.4c-.5.5-1.3.5-1.8 0s-.5-1.3 0-1.8c0 0 11.4-11.4 11.4-11.4.5-.5 1.3-.5 1.8 0s.5 1.2 0 1.8z"/><path d="m458.8 77.7c-.5 0-1-.2-1.4-.6-.8-.8-.8-2 0-2.8 0 0 11.4-11.4 11.4-11.4.4-.4.9-.6 1.4-.6s1 .2 1.4.6c.8.8.8 2 0 2.8 0 0-11.4 11.4-11.4 11.4-.3.4-.8.6-1.4.6z"/><path d="m471.1 65.3s-11.4 11.4-11.4 11.4c-.5.5-1.3.5-1.8 0s-.5-1.3 0-1.8c0 0 11.4-11.4 11.4-11.4.5-.5 1.3-.5 1.8 0 .6.4.6 1.3 0 1.8z"/><path d="m470.9 41.4c-.5 0-1-.2-1.4-.6 0 0-11.8-11.8-11.8-11.8-.8-.8-.8-2 0-2.8.4-.4.9-.6 1.4-.6s1 .2 1.4.6c0 0 11.8 11.8 11.8 11.8.8.8.8 2 0 2.8-.3.4-.8.6-1.4.6z"/><path d="m471.9 40.4c-.5.5-1.3.5-1.8 0 0 0-11.8-11.8-11.8-11.8-.5-.5-.5-1.3 0-1.8s1.3-.5 1.8 0c0 0 11.8 11.8 11.8 11.8.5.4.5 1.3 0 1.8z"/></g><path d="m547.9 113.8s-2.6 2.6-2.6 2.6c-.8.8-2 .8-2.8 0 0 0-53.4-53.4-53.4-53.4s5.5-5.5 5.5-5.5 53.4 53.4 53.4 53.4c.7.9.7 2.1-.1 2.9z" fill="#274156"/><path d="m494.6 57.6s-5.5 5.5-5.5 5.5-10.7-10.7-10.7-10.7c-.8-.8-.8-2 0-2.8 0 0 2.6-2.6 2.6-2.6.8-.8 2-.8 2.8 0 0 0 10.8 10.6 10.8 10.6" fill="#3ec79c"/><g style="fill:none;stroke:#dedede;stroke-width:4.242641;stroke-linecap:round;stroke-miterlimit:10;stroke-dasharray:0 5"><path d="m2167.9 66.6h-142"/><path d="m2219.1 53.6h-160.5"/><path d="m2230.1 79.3h-160.5"/><path d="m1780.8 66.3h169.5"/><path d="m1752.1 79.3h160.5"/><path d="m1697.9 53.6h160.4"/></g><g fill="#ffa619"><path d="m1968.4 53.5c.5 0 1-.2 1.4-.6s.6-.9.6-1.4c0-1.1-.9-2-2-2h-15.4c-.5 0-1 .2-1.4.6s-.6.9-.6 1.4.2 1 .6 1.4.9.6 1.4.6z"/><path d="m1952 52.5c.2.2.6.4.9.4h15.4c.7 0 1.3-.6 1.3-1.3s-.6-1.3-1.3-1.3h-15.4c-.7 0-1.3.6-1.3 1.3 0 .3.2.6.4.9z"/><path d="m2021.4 53.5c1.1 0 2-.9 2-2s-.9-2-2-2h-16.8c-.5 0-1 .2-1.4.6s-.6.9-.6 1.4.2 1 .6 1.4.9.6 1.4.6z"/><path d="m2003.6 52.5c.2.2.6.4.9.4h16.8c.7 0 1.3-.6 1.3-1.3s-.6-1.3-1.3-1.3h-16.8c-.7 0-1.3.6-1.3 1.3 0 .3.2.6.4.9z"/><path d="m1986.8 36.1c1.1 0 2-.9 2-2v-16.5c0-1.1-.9-2-2-2-.5 0-1 .2-1.4.6s-.6.9-.6 1.4v16.5c0 .5.2 1 .6 1.4s.9.6 1.4.6z"/><path d="m1985.9 35.1c.2.2.6.4.9.4.7 0 1.3-.6 1.3-1.3v-16.6c0-.7-.6-1.3-1.3-1.3s-1.3.6-1.3 1.3v16.5c0 .4.2.7.4 1z"/><path d="m1986.8 88.1c1.1 0 2-.9 2-2v-15.8c0-1.1-.9-2-2-2-.5 0-1 .2-1.4.6s-.6.9-.6 1.4v15.7c0 .5.2 1 .6 1.4.4.5.9.7 1.4.7z"/><path d="m1985.9 87c.2.2.6.4.9.4.7 0 1.3-.6 1.3-1.3v-15.8c0-.7-.6-1.3-1.3-1.3s-1.3.6-1.3 1.3v15.7c0 .4.2.8.4 1z"/><path d="m1974.4 40.8c.5 0 1-.2 1.4-.6s.6-.9.6-1.4-.2-1-.6-1.4c0 0-11.4-11.4-11.4-11.4-.4-.4-.9-.6-1.4-.6s-1 .2-1.4.6c-.8.8-.8 2 0 2.8 0 0 11.4 11.4 11.4 11.4.3.3.8.6 1.4.6z"/><path d="m1962 28.3s11.4 11.4 11.4 11.4c.5.5 1.3.5 1.8 0s.5-1.3 0-1.8c0 0-11.4-11.4-11.4-11.4-.5-.5-1.3-.5-1.8 0-.5.4-.5 1.2 0 1.8z"/><path d="m2011.4 77.7c.5 0 1-.2 1.4-.6.8-.8.8-2 0-2.8 0 0-11.4-11.4-11.4-11.4-.4-.4-.9-.6-1.4-.6s-1 .2-1.4.6c-.8.8-.8 2 0 2.8 0 0 11.4 11.4 11.4 11.4.3.4.8.6 1.4.6z"/><path d="m1999 65.3s11.4 11.4 11.4 11.4c.5.5 1.3.5 1.8 0s.5-1.3 0-1.8c0 0-11.4-11.4-11.4-11.4-.5-.5-1.3-.5-1.8 0-.5.4-.5 1.3 0 1.8z"/><path d="m1999.3 41.4c.5 0 1-.2 1.4-.6 0 0 11.8-11.8 11.8-11.8.8-.8.8-2 0-2.8-.4-.4-.9-.6-1.4-.6s-1 .2-1.4.6c0 0-11.9 11.8-11.9 11.8-.8.8-.8 2 0 2.8.4.4.9.6 1.5.6z"/><path d="m1998.3 40.4c.5.5 1.3.5 1.8 0 0 0 11.8-11.8 11.8-11.8.5-.5.5-1.3 0-1.8s-1.3-.5-1.8 0c0 0-11.8 11.8-11.8 11.8-.5.4-.5 1.3 0 1.8z"/></g><path d="m1922.2 113.8s2.6 2.6 2.6 2.6c.8.8 2 .8 2.8 0 0 0 53.4-53.4 53.4-53.4s-5.5-5.5-5.5-5.5-53.4 53.4-53.4 53.4c-.6.9-.6 2.1.1 2.9z" fill="#274156"/><path d="m1975.6 57.6s5.5 5.5 5.5 5.5 10.7-10.7 10.7-10.7c.8-.8.8-2 0-2.8 0 0-2.6-2.6-2.6-2.6-.8-.8-2-.8-2.8 0 0 0-10.8 10.6-10.8 10.6" fill="#3ec79c"/><path d="m2235.6 461.1s3.7 35.4 3.7 35.4h4.6s3-40 3-40-11.3 4.6-11.3 4.6" fill="#27c3eb"/><path d="m2246.7 459.8s3.3 16.7 3.3 16.7c.4 1.9-.5 3.8-2.2 4.8 0 0-9.4 5.1-9.4 5.1s4.8-23.5 4.8-23.5 3.5-3.1 3.5-3.1" fill="#27c3eb"/><path d="m2195.4 443.2s.8 2 .8 2c.7 1.6 2.5 2.4 4.1 1.7s2.3-2.4 1.7-4c0 0-.8-2.2-.8-2.2s-5.8 2.5-5.8 2.5" fill="#dedede"/><path d="m2193.8 417.3s7.5 23.4 7.5 23.4-5.9 2.5-5.9 2.5-5.8-19.1-5.8-19.1 4.2-6.8 4.2-6.8" fill="#27c3eb"/><path d="m2169.4 493s-1.3 5.2-1.3 5.2 2.4 3 2.4 3 4.3-1 4.3-1-.8-7.2-.8-7.2z" fill="#dedede"/><path d="m2206.6 498.4s.8 3.4.8 3.4 3.6 3.3 3.6 3.3 4.3-2.6 4.3-2.6-3.7-6.2-3.7-6.2-5 .2-5 .2z" fill="#dedede"/><path d="m2173.2 461.4s-4.6 32.2-4.6 32.2 9.8 1.6 9.8 1.6 11.5-33.8 11.5-33.8z" fill="#04aa73"/><path d="m2194.2 434.5s18.6 62 18.6 62-10.1 3-10.1 3-16.6-38.1-16.6-38.1 8.1-26.9 8.1-26.9" fill="#04aa73"/><path d="m2248.7 445.3s-2.4-9.5-2.4-9.5h-8.1s-1.7 14.2-1.7 14.2 12.2-4.7 12.2-4.7" fill="#ffa619"/><path d="m2238.2 454.9h-12v-13.1c0-3.3 2.7-6 6-6h6z" fill="#78d8ba"/><path d="m2227.6 457.9h-5.1v-8.9c0-1.1.9-2 2-2h3.1z" fill="#78d8ba"/><path d="m2260.7 451.3s-30.9 13.4-30.9 13.4c-2.9 1.3-6.3-.1-7.5-3-1.3-2.9.1-6.3 3-7.5 0 0 30.9-13.4 30.9-13.4 2.9-1.3 6.3.1 7.5 3 1.3 2.9-.1 6.3-3 7.5z" fill="#04aa73"/><path d="m2238.6 447.8s4.9-9 4.9-9c.7-1.3.2-2.9-1.1-3.6s-2.9-.2-3.6 1.1c0 0-4.7 8.6-4.7 8.6s-1.5 2.8-1.5 2.8c-.6 1-.2 2.3.8 2.8 0 0 2.8 1.5 2.8 1.5s8.4 4.6 8.4 4.6 1.8-3.4 1.8-3.4-7.8-5.4-7.8-5.4" fill="#ffa619"/><path d="m2246.3 457.5s-1.7-.9-1.7-.9 1.8-3.4 1.8-3.4 1.7.9 1.7.9c.9.5 1.3 1.7.8 2.6-.5 1-1.6 1.3-2.6.8z" fill="#dedede"/><path d="m2238.8 479.8s-7.9 5.9-7.9 5.9 1.7 3.8 1.7 3.8 6.7-3.6 6.7-3.6-.5-6.1-.5-6.1" fill="#27c3eb"/><path d="m2239.3 496.5s-1.1 5.6-1.1 5.6c-.2.9.5 1.8 1.5 1.8h8.9s2.4-.5 2.4-.5c.8-.2 1.3-.8 1.3-1.6 0-.9-.7-1.6-1.6-1.7 0 0-2.9-.2-2.9-.2-.9 0-1.7-.5-2.2-1.2 0 0-1.7-2.2-1.7-2.2z" fill="#a7dff2"/><path d="m2230.9 485.7s-5.6 1.2-5.6 1.2c-.9.2-1.4 1.2-1 2 0 0 3.6 8.7 3.6 8.7.5 1.2 1.4 2.2 2.5 2.8 0 0 .7.4.7.4.4.2.8.3 1.2.1.8-.2 1.2-1.1 1-1.9 0 0-1.5-4.8-1.5-4.8-.2-.5-.2-1.1-.1-1.6 0 0 .8-3.3.8-3.3s-1.6-3.6-1.6-3.6" fill="#a7dff2"/><path d="m2195.4 374.8s.3 4.3.3 4.3c0 .4.2.7.4 1 0 0 2.2 2.2 2.2 2.2.3.3.4.9.1 1.3 0 0-.8 1.2-.8 1.2s.4 3.6.4 3.6c.1.8-.4 1.4-1.1 1.6 0 0-3.9.9-3.9.9s-2.3 4.2-2.3 4.2-4.5-2-4.5-2 1.9-16 1.9-16 7.3-2.3 7.3-2.3" fill="#dedede"/><path d="m2180 397.8s-5.6 22.6-5.6 22.6-1.1 10.5-1.1 10.5h20.9s1.1-13.6 1.1-13.6c.1-1.4 0-2.7-.4-4.1 0 0-4-15-4-15s1.2-2.2 1.2-2.2c.3-.5 0-1.2-.5-1.5 0 0-8.1-3.3-8.1-3.3s-3.5 6.6-3.5 6.6" fill="#27c3eb"/><path d="m2179.8 442.4s-3.2 1.2-3.2 1.2c-.4.2-.9-.1-1.1-.5 0 0-10.6-28.2-10.6-28.2-.5-1.3.2-2.8 1.5-3.3s2.8.2 3.3 1.5c0 0 10.6 28.2 10.6 28.2.1.5-.1 1-.5 1.1z" fill="#ff8b1e"/><path d="m2177.8 436.5s-3.4.6-3.4.6c-.4.1-.9-.2-.9-.7 0 0-5.2-29.7-5.2-29.7-.2-1.4.7-2.7 2.1-2.9s2.7.7 2.9 2.1c0 0 5.2 29.7 5.2 29.7.1.4-.2.8-.7.9z" fill="#ff8b1e"/><path d="m2169.4 430.9h27.1v30.4h-27.1z" fill="#274156"/><path d="m2185.7 438.8s1.1 1.8 1.1 1.8c.9 1.5 2.9 1.9 4.4 1 1.4-.9 1.9-2.8 1-4.2 0 0-1.2-2-1.2-2s-5.3 3.4-5.3 3.4" fill="#dedede"/><path d="m2182.5996 395.69922c-2.892 0-5.2988 2.40878-5.2988 5.30078v6h1.3984v-6c0-2.108 1.7924-3.90039 3.9004-3.90039s3.9004 1.79239 3.9004 3.90039v30.90039h1.4004v-30.90039c0-2.892-2.4088-5.30078-5.3008-5.30078z" fill="#274156"/><path d="m2239.2 424.9s5.2 7.1 5.2 7.1 4.2-1.7 4.2-1.7c.7-.3 1.1-.9 1.1-1.6v-1.9s1-.5 1-.5c.3-.1.4-.5.3-.8 0 0-1.2-2.4-1.2-2.4-.1-.2-.1-.4-.1-.6 0 0-.1-2.8-.1-2.8h-6.7s-3.7 5.2-3.7 5.2" fill="#dedede"/><path d="m2189.4 384.7c-.9-3.2 1-6.5 4.2-7.4 0 0 .4-.1.4-.1 1.6-.4 2.5-2.1 2-3.7-.7-2.4-3.1-3.7-5.5-3.1 0 0-3.8 1.1-3.8 1.1s-2.7.8-2.7.8c-4.7 1.3-7.4 6.2-6.1 10.9 0 0 1.7 5.9 1.7 5.9.9 3.1 4.2 5 7.3 4.1 0 0 .5-.1.5-.1 2.4-.7 4.1-2.4 4.9-4.6-1.3-.8-2.5-2.1-2.9-3.8z" fill="#ff8b1e"/><path d="m2182.2 419.8s4.2-18 4.2-18c.5-2.1-.8-4.1-2.9-4.6s-4.1.8-4.6 2.9c0 0-4.5 19.3-4.5 19.3-.3 1.2 0 2.5.6 3.5 0 0 10.6 15.9 10.6 15.9s5.4-3.4 5.4-3.4-8.8-15.6-8.8-15.6" fill="#27c3eb"/><path d="m2167.1 498.9v5.6h19v-2.7c0-.6-.4-1.2-.9-1.4 0 0-10.5-4.1-10.5-4.1-.3-.1-.7 0-.9.3 0 0-1.1 1.9-1.1 1.9-.4.6-1.1.8-1.7.6 0 0-2.7-.9-2.7-.9-.7-.1-1.2.2-1.2.7z" fill="#1a79db"/><path d="m2206.6 502.7s1.4 5.4 1.4 5.4 18.3-4.8 18.3-4.8-.7-2.6-.7-2.6c-.2-.6-.7-1-1.3-1.1 0 0-11.2-1.3-11.2-1.3-.4 0-.7.2-.8.5 0 0-.6 2.1-.6 2.1-.2.7-.8 1.1-1.5 1 0 0-2.9-.2-2.9-.2-.4 0-.8.5-.7 1z" fill="#1a79db"/><path d="m2243.4 424.1s4.5-2 4.5-2c1.1-.5 1.8-1.6 1.8-2.7 0-1.4-1-2.7-2.4-3.1 0 0-2.9-.8-2.9-.8-1.7-.4-3.4-.2-4.9.5-1 .5-1.8 1.2-2.5 2.1 0 0-2.7 3.8-2.7 3.8-1.4 1.9-2.1 4.2-2.1 6.5 0 2.7 1 5.3 2.7 7.3 1.5 1.8 3.8 2.8 6.1 2.8h2c1.7 0 3.2-1 3.9-2.6.5-1.2.3-2.7-.4-3.8 0 0-3.7-5.7-3.7-5.7-.6-.8-.3-1.9.6-2.3z" fill="#1a79db"/><path d="m411.3 398.1v-7.3c0-1.1-.9-2-2-2s-2 .9-2 2v7.3" fill="#274156"/><path d="m387.6 372.7s-.3 3.5-.3 3.5c0 .3.1.6.2.8 0 0 1.5 1.9 1.5 1.9.2.3.2.7 0 1 0 0-.7.9-.7.9v2.9c0 .6-.5 1.1-1.1 1.2 0 0-3.2.3-3.2.3s-2.3 3.1-2.3 3.1-3.3-2.1-3.3-2.1 3.3-12.5 3.3-12.5 5.9-1 5.9-1" fill="#dedede"/><path d="m373.8 390.3s-4.5 18.1-4.5 18.1-.9 8.4-.9 8.4h16.7s.9-10.9.9-10.9c.1-1.1 0-2.2-.3-3.2 0 0-3.2-12-3.2-12s1-1.8 1-1.8c.2-.4 0-1-.4-1.2 0 0-6.5-2.6-6.5-2.6s-2.8 5.2-2.8 5.2" fill="#27c3eb"/><path d="m375.6 407.9s3.3-14.4 3.3-14.4c.4-1.7-.6-3.3-2.3-3.7s-3.3.6-3.7 2.3c0 0-3.6 15.5-3.6 15.5-.2 1 0 2 .5 2.8 0 0 8.5 12.7 8.5 12.7s4.3-2.8 4.3-2.8-7-12.4-7-12.4" fill="#27c3eb"/><path d="m323.7 401s-2-8.1-2-8.1-9.1-2-9.1-2-5.2 13.2-5.2 13.2 16.3-3.1 16.3-3.1" fill="#ffa619"/><path d="m381.7 379.9c-.4-2.6 1.5-5.1 4.1-5.5 0 0 .3-.1.3-.1 1.3-.2 2.2-1.4 2-2.7-.3-2-2.1-3.3-4-3 0 0-3.1.4-3.1.4s-2.2.3-2.2.3c-3.9.5-6.6 4.1-6 8 0 0 .7 4.9.7 4.9.4 2.6 2.8 4.4 5.4 4 0 0 .4-.1.4-.1 2-.3 3.6-1.5 4.4-3.1-1.1-.6-1.8-1.7-2-3.1z" fill="#ff8b1e"/><path d="m406.8 398.9s1.5-.8 1.5-.8c1.2-.6 1.7-2.2 1.1-3.4s-2.1-1.7-3.3-1.1c0 0-1.7.8-1.7.8s2.4 4.5 2.4 4.5" fill="#dedede"/><path d="m386.3 402s18.2-7.6 18.2-7.6 2.3 4.5 2.3 4.5-14.8 6-14.8 6-5.7-2.9-5.7-2.9" fill="#27c3eb"/><path d="m505.7 435.2s-2.1-.9-2.1-.9v-17.8c0-3.7-2.4-6.9-6-7.9 0 0-53.5-10.7-53.5-10.7s-39-33-39-33c-2.8-2.4-6.4-3.7-10-3.7h-93.1c-5.2 0-10.1 2.3-13.4 6.3 0 0-22.2 27.1-22.2 27.1-1.7 2.1-2.7 4.8-2.7 7.5v31.8c0 6.6 5.3 11.9 11.9 11.9h7.6 6.6 210.2v.1h5c1 0 1.8-.8 1.8-1.8v-7.3c.1-.7-.4-1.4-1.1-1.6zm-207.9-37.1c-3 0-4.7-3.4-3-5.8 0 0 12.3-17.3 12.3-17.3 1.5-2.2 4-3.4 6.7-3.4h84.8c2 0 3.9.7 5.4 2 0 0 28.5 24.5 28.5 24.5z" fill="#a9b3bb"/><path d="m352.7 368.4h6.4v33h-6.4z" fill="#a9b3bb"/><circle cx="306.20001" cy="441.79999" fill="#274156" r="21.299999"/><circle cx="451" cy="441.79999" fill="#274156" r="21.299999"/><path d="m315.6 383.6s4.4 6.1 4.4 6.1 3.6-1.4 3.6-1.4c.6-.2.9-.8.9-1.4v-1.7s.9-.4.9-.4c.3-.1.4-.4.2-.7 0 0-1-2.1-1-2.1-.1-.2-.1-.4-.1-.6 0 0-.1-2.4-.1-2.4h-5.7s-3.1 4.6-3.1 4.6" fill="#fff"/><path d="m319.3 382.7s3.8-1.7 3.8-1.7c.9-.4 1.5-1.3 1.5-2.3 0-1.2-.8-2.2-2-2.5 0 0-2.4-.6-2.4-.6-1.4-.4-2.8-.2-4.1.4-.8.4-1.5 1-2 1.8 0 0-2.3 3.2-2.3 3.2-1.1 1.6-1.7 3.4-1.7 5.4 0 2.2.8 4.4 2.3 6 1.3 1.5 3.1 2.3 5.1 2.3h1.6c1.4 0 2.7-.9 3.2-2.2.4-1 .3-2.2-.3-3.1 0 0-3.1-4.7-3.1-4.7-.6-.7-.3-1.6.4-2z" fill="#1a79db"/><path d="m181.2 126.9h33.6c2.1 0 4.1-.5 6-1.5 15.1-8.1 25.3-24 25.3-42.4 0-15.1-15.5-41.5-28.9-61.6h-38.5c-13.4 20.1-28.9 46.6-28.9 61.6 0 18.3 10.3 34.3 25.3 42.4 1.9 1 4 1.5 6.1 1.5z" fill="#eaeaea"/><circle cx="197.89999" cy="83.199997" fill="#274156" r="31.700001"/><path d="m199.5 0h-3.2c-1.5 0-2.9.7-3.8 1.9-4.4 6.1-10.9 15.2-16.8 24h44.4c-5.9-8.8-12.3-17.9-16.8-24-.8-1.2-2.2-1.9-3.8-1.9z" fill="#c4c4c4"/><g fill="#fff"><path d="m190.7718 96.8458v-3.811h-10.952c6.623-4.995 10.804-9.065 10.804-13.616 0-4.921-4.181-7.622-8.954-7.622-3.441 0-6.919 1.332-9.102 3.959 0 0 2.516 2.849 2.516 2.849 1.554-1.776 3.774-2.96 6.66-2.96 2.257 0 4.477 1.184 4.477 3.774 0 3.552-3.737 6.771-13.32 14.023v3.404z"/><path d="m204.48782 97.2898c6.919 0 9.879-6.549 9.879-12.765s-2.96-12.728-9.879-12.728-9.879 6.512-9.879 12.728 2.96 12.765 9.879 12.765zm0-3.848c-4.033 0-5.476-4.218-5.476-8.917s1.443-8.88 5.476-8.88 5.476 4.181 5.476 8.88-1.443 8.917-5.476 8.917z"/><path d="m224.9298 76.3108c0-2.479-2.035-4.514-4.551-4.514-2.479 0-4.477 2.035-4.477 4.514 0 2.516 1.998 4.514 4.477 4.514 2.516 0 4.551-1.998 4.551-4.514zm-1.776 0c0 1.517-1.258 2.738-2.775 2.738-1.48 0-2.664-1.221-2.664-2.738 0-1.48 1.184-2.738 2.664-2.738 1.517 0 2.775 1.258 2.775 2.738z"/></g><path d="m2243.3 126.9h33.6c2.1 0 4.1-.5 6-1.5 15.1-8.1 25.3-24 25.3-42.4 0-15.1-15.5-41.5-28.9-61.6h-38.5c-13.3 20.1-28.8 46.6-28.8 61.6 0 18.3 10.3 34.3 25.3 42.4 1.9 1 4 1.5 6 1.5z" fill="#eaeaea"/><circle cx="2260.1001" cy="83.199997" fill="#274156" r="31.700001"/><path d="m2261.7 0h-3.2c-1.5 0-2.9.7-3.8 1.9-4.4 6.1-10.9 15.2-16.8 24h44.4c-5.9-8.8-12.3-17.9-16.8-24-.8-1.2-2.3-1.9-3.8-1.9z" fill="#c4c4c4"/><g fill="#fff"><path d="m2252.9595 96.8458v-3.811h-10.952c6.623-4.995 10.804-9.065 10.804-13.616 0-4.921-4.181-7.622-8.954-7.622-3.441 0-6.919 1.332-9.102 3.959 0 0 2.516 2.849 2.516 2.849 1.554-1.776 3.774-2.96 6.66-2.96 2.257 0 4.477 1.184 4.477 3.774 0 3.552-3.737 6.771-13.32 14.023v3.404z"/><path d="m2266.6755 97.2898c6.919 0 9.879-6.549 9.879-12.765s-2.96-12.728-9.879-12.728-9.879 6.512-9.879 12.728 2.96 12.765 9.879 12.765zm0-3.848c-4.033 0-5.476-4.218-5.476-8.917s1.443-8.88 5.476-8.88 5.476 4.181 5.476 8.88-1.443 8.917-5.476 8.917z"/><path d="m2287.1175 76.3108c0-2.479-2.035-4.514-4.551-4.514-2.479 0-4.477 2.035-4.477 4.514 0 2.516 1.998 4.514 4.477 4.514 2.516 0 4.551-1.998 4.551-4.514zm-1.776 0c0 1.517-1.258 2.738-2.775 2.738-1.48 0-2.664-1.221-2.664-2.738 0-1.48 1.184-2.738 2.664-2.738 1.517 0 2.775 1.258 2.775 2.738z"/></g><path d="m785.6 126.9h33.6c2.1 0 4.1-.5 6-1.5 15.1-8.1 25.3-24 25.3-42.4 0-15.1-15.5-41.5-28.9-61.6h-38.5c-13.4 20.1-28.8 46.6-28.8 61.6 0 18.3 10.3 34.3 25.3 42.4 1.8 1 3.9 1.5 6 1.5z" fill="#eaeaea"/><circle cx="802.40002" cy="83.199997" fill="#274156" r="31.700001"/><path d="m804 0h-3.2c-1.5 0-2.9.7-3.8 1.9-4.4 6.1-10.9 15.2-16.8 24h44.4c-5.9-8.8-12.3-17.9-16.8-24-.9-1.2-2.3-1.9-3.8-1.9z" fill="#c4c4c4"/><g fill="#fff"><path d="m788.3994 96.8458v-24.679h-3.774s-7.104 7.178-7.104 7.178 2.516 2.627 2.516 2.627 4.033-4.181 4.033-4.181v19.055z"/><path d="m802.7502 97.2898c5.513 0 9.102-3.7 9.102-8.288 0-5.254-3.811-7.955-8.251-7.955-2.923 0-5.513 1.776-6.623 3.441-.037-.222-.037-.444-.037-.703 0-4.329 2.405-8.14 6.512-8.14 2.368 0 3.774.814 5.069 2.183 0 0 2.035-3.293 2.035-3.293-1.665-1.628-4.033-2.738-7.104-2.738-7.141 0-10.878 5.624-10.878 12.765 0 6.845 2.923 12.728 10.175 12.728zm-.222-3.848c-3.811 0-5.254-3.108-5.513-5.772 1.258-1.776 3.293-2.923 5.402-2.923 2.701 0 5.069 1.369 5.069 4.403 0 1.998-1.702 4.292-4.958 4.292z"/><path d="m823.7454 76.3108c0-2.479-2.035-4.514-4.551-4.514-2.479 0-4.477 2.035-4.477 4.514 0 2.516 1.998 4.514 4.477 4.514 2.516 0 4.551-1.998 4.551-4.514zm-1.776 0c0 1.517-1.258 2.738-2.775 2.738-1.48 0-2.664-1.221-2.664-2.738 0-1.48 1.184-2.738 2.664-2.738 1.517 0 2.775 1.258 2.775 2.738z"/></g><path d="m1638.9 126.9h33.6c2.1 0 4.1-.5 6-1.5 15.1-8.1 25.3-24 25.3-42.4 0-15.1-15.5-41.5-28.9-61.6h-38.5c-13.4 20.1-28.9 46.5-28.9 61.6 0 18.3 10.3 34.3 25.3 42.4 2 1 4.1 1.5 6.1 1.5z" fill="#eaeaea"/><circle cx="1655.7" cy="83.199997" fill="#274156" r="31.700001"/><path d="m1657.3 0h-3.2c-1.5 0-2.9.7-3.8 1.9-4.4 6.1-10.9 15.2-16.8 24h44.4c-5.9-8.8-12.3-17.9-16.8-24-.9-1.2-2.3-1.9-3.8-1.9z" fill="#c4c4c4"/><g fill="#fff"><path d="m1641.7576 96.8458v-24.679h-3.774s-7.104 7.178-7.104 7.178 2.516 2.627 2.516 2.627 4.033-4.181 4.033-4.181v19.055z"/><path d="m1656.1084 97.2898c5.513 0 9.102-3.7 9.102-8.288 0-5.254-3.811-7.955-8.251-7.955-2.923 0-5.513 1.776-6.623 3.441-.037-.222-.037-.444-.037-.703 0-4.329 2.405-8.14 6.512-8.14 2.368 0 3.774.814 5.069 2.183 0 0 2.035-3.293 2.035-3.293-1.665-1.628-4.033-2.738-7.104-2.738-7.141 0-10.878 5.624-10.878 12.765 0 6.845 2.923 12.728 10.175 12.728zm-.222-3.848c-3.811 0-5.254-3.108-5.513-5.772 1.258-1.776 3.293-2.923 5.402-2.923 2.701 0 5.069 1.369 5.069 4.403 0 1.998-1.702 4.292-4.958 4.292z"/><path d="m1677.1036 76.3108c0-2.479-2.035-4.514-4.551-4.514-2.479 0-4.477 2.035-4.477 4.514 0 2.516 1.998 4.514 4.477 4.514 2.516 0 4.551-1.998 4.551-4.514zm-1.776 0c0 1.517-1.258 2.738-2.775 2.738-1.48 0-2.664-1.221-2.664-2.738 0-1.48 1.184-2.738 2.664-2.738 1.517 0 2.775 1.258 2.775 2.738z"/></g><g fill="#274156"><path d="m1609.7969 591.875v-33.35h-5.1s-9.6 9.7-9.6 9.7 3.4 3.55 3.4 3.55 5.45-5.65 5.45-5.65v25.75z"/><path d="m1625.8399 591.875s12.95-29.3 12.95-29.3v-4.05h-24.05v5.15h17.3s-12.6 28.2-12.6 28.2z"/><path d="m1646.0524 574.375c1.9 0 3.5-1.6 3.5-3.5s-1.6-3.5-3.5-3.5-3.5 1.6-3.5 3.5 1.6 3.5 3.5 3.5zm0 18.05c1.9 0 3.5-1.6 3.5-3.5s-1.6-3.5-3.5-3.5-3.5 1.6-3.5 3.5 1.6 3.5 3.5 3.5z"/><path d="m1667.5594 592.475c9.35 0 13.35-8.85 13.35-17.25s-4-17.2-13.35-17.2-13.35 8.8-13.35 17.2 4 17.25 13.35 17.25zm0-5.2c-5.45 0-7.4-5.7-7.4-12.05s1.95-12 7.4-12 7.4 5.65 7.4 12-1.95 12.05-7.4 12.05z"/><path d="m1698.3211 592.475c9.35 0 13.35-8.85 13.35-17.25s-4-17.2-13.35-17.2-13.35 8.8-13.35 17.2 4 17.25 13.35 17.25zm0-5.2c-5.45 0-7.4-5.7-7.4-12.05s1.95-12 7.4-12 7.4 5.65 7.4 12-1.95 12.05-7.4 12.05z"/></g><g fill="#274156"><path d="m770.7526 592.475c6.8 0 12.75-3.2 12.75-9.15 0-4.25-3.45-7.3-7.5-8.65 3.75-1.2 7-3.65 7-7.9 0-6.15-6.4-8.75-12.25-8.75-5.95 0-12.25 2.6-12.25 8.75 0 4.25 3.2 6.7 6.95 7.9-4.05 1.35-7.5 4.4-7.5 8.65 0 6 5.95 9.15 12.8 9.15zm0-20.1c-2.05-.35-6.35-1.55-6.35-4.7 0-2.8 2.7-4.45 6.35-4.45 3.55 0 6.3 1.65 6.3 4.45 0 3.15-4.25 4.35-6.3 4.7zm0 14.9c-3.8 0-6.9-1.8-6.9-4.7 0-3.45 4.8-5 6.9-5.25 2.05.25 6.85 1.8 6.85 5.25 0 2.9-3.15 4.7-6.85 4.7z"/><path d="m791.73776 574.375c1.9 0 3.5-1.6 3.5-3.5s-1.6-3.5-3.5-3.5-3.5 1.6-3.5 3.5 1.6 3.5 3.5 3.5zm0 18.05c1.9 0 3.5-1.6 3.5-3.5s-1.6-3.5-3.5-3.5-3.5 1.6-3.5 3.5 1.6 3.5 3.5 3.5z"/><path d="m813.29479 591.875v-33.35h-5.1s-9.6 9.7-9.6 9.7 3.4 3.55 3.4 3.55 5.45-5.65 5.45-5.65v25.75z"/><path d="m832.28776 592.475c9.35 0 13.35-8.85 13.35-17.25s-4-17.2-13.35-17.2-13.35 8.8-13.35 17.2 4 17.25 13.35 17.25zm0-5.2c-5.45 0-7.4-5.7-7.4-12.05s1.95-12 7.4-12 7.4 5.65 7.4 12-1.95 12.05-7.4 12.05z"/></g><g fill="#274156"><path d="m161.0367 592.475c6.8 0 12.75-3.2 12.75-9.15 0-4.25-3.45-7.3-7.5-8.65 3.75-1.2 7-3.65 7-7.9 0-6.15-6.4-8.75-12.25-8.75-5.95 0-12.25 2.6-12.25 8.75 0 4.25 3.2 6.7 6.95 7.9-4.05 1.35-7.5 4.4-7.5 8.65 0 6 5.95 9.15 12.8 9.15zm0-20.1c-2.05-.35-6.35-1.55-6.35-4.7 0-2.8 2.7-4.45 6.35-4.45 3.55 0 6.3 1.65 6.3 4.45 0 3.15-4.25 4.35-6.3 4.7zm0 14.9c-3.8 0-6.9-1.8-6.9-4.7 0-3.45 4.8-5 6.9-5.25 2.05.25 6.85 1.8 6.85 5.25 0 2.9-3.15 4.7-6.85 4.7z"/><path d="m182.02186 574.375c1.9 0 3.5-1.6 3.5-3.5s-1.6-3.5-3.5-3.5-3.5 1.6-3.5 3.5 1.6 3.5 3.5 3.5zm0 18.05c1.9 0 3.5-1.6 3.5-3.5s-1.6-3.5-3.5-3.5-3.5 1.6-3.5 3.5 1.6 3.5 3.5 3.5z"/><path d="m203.52889 592.475c9.35 0 13.35-8.85 13.35-17.25s-4-17.2-13.35-17.2-13.35 8.8-13.35 17.2 4 17.25 13.35 17.25zm0-5.2c-5.45 0-7.4-5.7-7.4-12.05s1.95-12 7.4-12 7.4 5.65 7.4 12-1.95 12.05-7.4 12.05z"/><path d="m234.29061 592.475c9.35 0 13.35-8.85 13.35-17.25s-4-17.2-13.35-17.2-13.35 8.8-13.35 17.2 4 17.25 13.35 17.25zm0-5.2c-5.45 0-7.4-5.7-7.4-12.05s1.95-12 7.4-12 7.4 5.65 7.4 12-1.95 12.05-7.4 12.05z"/></g><g fill="#274156"><path d="m2212.7535 591.875v-33.35h-5.1s-9.6 9.7-9.6 9.7 3.4 3.55 3.4 3.55 5.45-5.65 5.45-5.65v25.75z"/><path d="m2231.2465 592.475c6.8 0 12.75-3.2 12.75-9.15 0-4.25-3.45-7.3-7.5-8.65 3.75-1.2 7-3.65 7-7.9 0-6.15-6.4-8.75-12.25-8.75-5.95 0-12.25 2.6-12.25 8.75 0 4.25 3.2 6.7 6.95 7.9-4.05 1.35-7.5 4.4-7.5 8.65 0 6 5.95 9.15 12.8 9.15zm0-20.1c-2.05-.35-6.35-1.55-6.35-4.7 0-2.8 2.7-4.45 6.35-4.45 3.55 0 6.3 1.65 6.3 4.45 0 3.15-4.25 4.35-6.3 4.7zm0 14.9c-3.8 0-6.9-1.8-6.9-4.7 0-3.45 4.8-5 6.9-5.25 2.05.25 6.85 1.8 6.85 5.25 0 2.9-3.15 4.7-6.85 4.7z"/><path d="m2252.2316 574.375c1.9 0 3.5-1.6 3.5-3.5s-1.6-3.5-3.5-3.5-3.5 1.6-3.5 3.5 1.6 3.5 3.5 3.5zm0 18.05c1.9 0 3.5-1.6 3.5-3.5s-1.6-3.5-3.5-3.5-3.5 1.6-3.5 3.5 1.6 3.5 3.5 3.5z"/><path d="m2272.1387 592.475c7.7 0 12.55-4.05 12.55-9.7 0-5.15-4.5-7.8-7.75-8.1 3.45-.6 7.25-3.2 7.25-7.65 0-5.6-4.85-9-12.05-9-5.55 0-9.6 2.25-12.15 5.25 0 0 3 3.65 3 3.65 2.4-2.4 5.2-3.7 8.6-3.7 3.75 0 6.75 1.6 6.75 4.7 0 3.05-2.95 4.4-6.85 4.4-1.3 0-3.25 0-3.85-.05v5.25c.5-.05 2.45-.05 3.85-.05 4.75 0 7.4 1.4 7.4 4.7 0 3.1-2.55 5.1-6.95 5.1-3.55 0-7.1-1.55-9.25-4.05 0 0-3.15 3.85-3.15 3.85 2.25 3 6.65 5.4 12.6 5.4z"/><path d="m2302.4496 592.475c9.35 0 13.35-8.85 13.35-17.25s-4-17.2-13.35-17.2-13.35 8.8-13.35 17.2 4 17.25 13.35 17.25zm0-5.2c-5.45 0-7.4-5.7-7.4-12.05s1.95-12 7.4-12 7.4 5.65 7.4 12-1.95 12.05-7.4 12.05z"/></g><path d="m1821.4004 344.09961c-8.8209 0-16.5107 4.89869-20.4981 12.11914l-.3027-10.61914h-10.5l-1 52.59961h13l-.9453-33.17188c1.2165-10.11734 9.7939-17.92773 20.2461-17.92773z" fill="#04aa73"/><path d="m1842.9 312c-.7-4.5-4.3-8.1-8.8-8.8-3.8-.6-7.3.8-9.6 3.3-1.2 1.3-3.2 1.6-4.8.9-2.2-1-4.6-1.6-7.2-1.6-1.5 0-3 .2-4.4.6-1.5.4-3.2-.4-3.8-1.8-2.8-6.1-8.9-10.3-16-10.3-5.1 0-9.7 2.2-12.9 5.7-.6.7-1.5 1.1-2.4 1.3-8.4 1.3-14.8 8.6-14.8 17.4v.2c0 2-1 3.9-2.7 5-4.1 2.6-6.8 7.2-6.8 12.4 0 8 6.1 14.4 14.1 14.8 1.5.1 3-.1 4.3-.4 2.2-.6 4.5.5 5.6 2.6 1.8 3.3 5.3 5.5 9.3 5.5 5.9 0 10.6-4.8 10.6-10.6 0-.2 0-.4 0-.7.8.1 1.6.2 2.4.2 3.3 0 6.4-1.3 8.7-3.3 1.2-1.1 3.1-1.1 4.4 0 3.6 2.9 8.3 4.6 13.3 4.1 8.6-.8 15.6-7.6 16.6-16.3.3-3.1-.1-6-1.1-8.7 4-2.1 6.7-6.5 6-11.5z" fill="#03774d"/><path d="m967.90039 344.09961c-8.61619 0-16.14956 4.67683-20.21094 11.62305l-.28906-10.12305h-10.40039l-1 52.59961h12.90039l-.99219-34.78516c1.88619-9.32277 10.10239-16.31445 19.99219-16.31445z" fill="#04aa73"/><path d="m989.8 312c-.7-4.5-4.3-8.1-8.8-8.8-3.8-.6-7.3.8-9.6 3.3-1.2 1.3-3.2 1.6-4.8.9-2.2-1-4.6-1.6-7.2-1.6-1.5 0-3 .2-4.4.6-1.5.4-3.2-.4-3.8-1.8-2.8-6.1-8.9-10.3-16-10.3-5.1 0-9.7 2.2-12.9 5.7-.6.7-1.5 1.1-2.4 1.3-8.4 1.3-14.8 8.6-14.8 17.4v.2c0 2-1 3.9-2.7 5-4.1 2.6-6.8 7.2-6.8 12.4 0 8 6.1 14.4 14.1 14.8 1.5.1 3-.1 4.3-.4 2.2-.6 4.5.5 5.6 2.6 1.8 3.3 5.3 5.5 9.3 5.5 5.9 0 10.6-4.8 10.6-10.6 0-.2 0-.4 0-.7.8.1 1.6.2 2.4.2 3.3 0 6.4-1.3 8.7-3.3 1.2-1.1 3.1-1.1 4.4 0 3.6 2.9 8.3 4.6 13.3 4.1 8.6-.8 15.6-7.6 16.6-16.3.3-3.1-.1-6-1.1-8.7 4-2.1 6.7-6.5 6-11.5z" fill="#03774d"/><path d="m2423.3008 344.5c-8.6162 0-16.1496 4.67683-20.211 11.62305l-.289-10.12305h-10.4004l-1 52.59961h12.9004l-.9922-34.78516c1.8862-9.32276 10.1024-16.31445 19.9922-16.31445z" fill="#04aa73"/><path d="m2445.2 312.3c-.7-4.5-4.3-8.1-8.8-8.8-3.8-.6-7.3.8-9.6 3.3-1.2 1.3-3.2 1.6-4.8.9-2.2-1-4.6-1.6-7.2-1.6-1.5 0-3 .2-4.4.6-1.5.4-3.2-.4-3.8-1.8-2.8-6.1-8.9-10.3-16-10.3-5.1 0-9.7 2.2-12.9 5.7-.6.7-1.5 1.1-2.4 1.3-8.4 1.3-14.8 8.6-14.8 17.4v.2c0 2-1 3.9-2.7 5-4.1 2.6-6.8 7.2-6.8 12.4 0 8 6.1 14.4 14.1 14.8 1.5.1 3-.1 4.3-.4 2.2-.6 4.5.5 5.6 2.6 1.8 3.3 5.3 5.5 9.3 5.5 5.9 0 10.6-4.8 10.6-10.6 0-.2 0-.4 0-.7.8.1 1.6.2 2.4.2 3.3 0 6.4-1.3 8.7-3.3 1.2-1.1 3.1-1.1 4.4 0 3.6 2.9 8.3 4.6 13.3 4.1 8.6-.8 15.6-7.6 16.6-16.3.3-3.1-.1-6-1.1-8.7 4-2 6.7-6.4 6-11.5z" fill="#03774d"/><path d="m2336.8 284.7c0 2.9-2.6 7.5-5.8 7.5s-5.8-4.6-5.8-7.5 2.6-5.3 5.8-5.3 5.8 2.4 5.8 5.3z" fill="#fff"/><path d="m2330 270.7c.3 1.9.5 11.2-.8 11.4s-4.2-8.7-4.6-10.5c-.3-1.9.3-6.1 1.7-6.3 1.3-.2 3.4 3.5 3.7 5.4z" fill="#fff"/><path d="m2332 270.7c-.3 1.9-.5 11.2.8 11.4s4.2-8.7 4.6-10.5-.3-6.1-1.7-6.3-3.3 3.5-3.7 5.4z" fill="#fff"/><path d="m2331 288.4c-.1 0-.1 0-.1-.1 0 0-.8-.8-.8-.8-.1-.1-.1-.2 0-.3s.2-.1.3 0c0 0 .7.7.7.7s.7-.7.7-.7c.1-.1.2-.1.3 0s.1.2 0 .3c0 0-.8.8-.8.8-.2 0-.3.1-.3.1z" fill="#3ec79c"/><path d="m2331 289.3c-.1 0-.2-.1-.2-.2v-.9c0-.1.1-.2.2-.2s.2.1.2.2v.9c0 .1-.1.2-.2.2z" fill="#3ec79c"/><path d="m2329.8 284.5c-.1 0-.2-.1-.2-.2 0-.5-.4-.8-.8-.8-.5 0-.8.4-.8.8 0 .1-.1.2-.2.2s-.2-.1-.2-.2c0-.7.6-1.2 1.2-1.2.7 0 1.2.6 1.2 1.2 0 .1-.1.2-.2.2z" fill="#274156"/><path d="m2334.2 284.5c-.1 0-.2-.1-.2-.2 0-.5-.4-.8-.8-.8s-.8.4-.8.8c0 .1-.1.2-.2.2s-.2-.1-.2-.2c0-.7.6-1.2 1.2-1.2.7 0 1.2.6 1.2 1.2 0 .1-.1.2-.2.2z" fill="#274156"/><path d="m130.4 351.7c0 2.9-2.6 7.5-5.8 7.5s-5.8-4.6-5.8-7.5 2.6-5.3 5.8-5.3 5.8 2.4 5.8 5.3z" fill="#fff"/><path d="m123.6 337.7c.3 1.9.5 11.2-.8 11.4s-4.2-8.7-4.6-10.5.3-6.1 1.7-6.3 3.4 3.5 3.7 5.4z" fill="#fff"/><path d="m125.7 337.7c-.3 1.9-.5 11.2.8 11.4s4.2-8.7 4.6-10.5c.3-1.9-.3-6.1-1.7-6.3s-3.4 3.5-3.7 5.4z" fill="#fff"/><path d="m124.6 355.4c-.1 0-.1 0-.1-.1 0 0-.8-.8-.8-.8-.1-.1-.1-.2 0-.3s.2-.1.3 0c0 0 .7.7.7.7s.7-.7.7-.7c.1-.1.2-.1.3 0s.1.2 0 .3c0 0-.8.8-.8.8-.2 0-.2.1-.3.1z" fill="#3ec79c"/><path d="m124.6 356.3c-.1 0-.2-.1-.2-.2v-.9c0-.1.1-.2.2-.2s.2.1.2.2v.9c0 .1-.1.2-.2.2z" fill="#3ec79c"/><path d="m123.5 351.5c-.1 0-.2-.1-.2-.2 0-.5-.4-.8-.8-.8-.5 0-.8.4-.8.8 0 .1-.1.2-.2.2s-.2-.1-.2-.2c0-.7.6-1.2 1.2-1.2.7 0 1.2.6 1.2 1.2 0 .1-.1.2-.2.2z" fill="#274156"/><path d="m127.9 351.5c-.1 0-.2-.1-.2-.2 0-.5-.4-.8-.8-.8-.5 0-.8.4-.8.8 0 .1-.1.2-.2.2s-.2-.1-.2-.2c0-.7.6-1.2 1.2-1.2.7 0 1.2.6 1.2 1.2 0 .1-.1.2-.2.2z" fill="#274156"/><path d="m811.16992 278.79102c-.0916-.0118-.18203-.009-.26953.01-1.4.2-2.00117 4.39883-1.70117 6.29883.23164 1.0424 1.30381 4.44322 2.41601 7.10156h3.09766c.21114-2.92285.0701-6.8405-.11328-8.00195-.28125-1.78125-2.0553-5.23096-3.42969-5.4082zm8.96094 0c-1.37439.17724-3.15039 3.62695-3.43164 5.4082-.18339 1.16145-.32442 5.0791-.11328 8.00195h3.09765c1.11227-2.6584 2.18436-6.05911 2.41602-7.10156.3-1.9-.29922-6.09883-1.69922-6.29883-.0875-.0187-.1779-.0216-.26953-.01z" fill="#fff"/><path d="m1705.4004 346.80078c-1.4.2-2.0012 4.39883-1.7012 6.29883.2316 1.04218 1.3041 4.4415 2.416 7.09961h3.0996c.211-2.92264.068-6.83881-.1152-8-.3-1.9-2.2992-5.59844-3.6992-5.39844zm9.5 0c-1.4-.2-3.4012 3.49844-3.7012 5.39844-.1833 1.1612-.3242 5.07735-.1133 8h3.0996c1.112-2.65807 2.1825-6.05746 2.4141-7.09961.3-1.9-.2992-6.09883-1.6992-6.29883z" fill="#fff"/><path d="m1251.9 448c7.4-7.4 19.4-7.4 26.9 0s7.4 19.4 0 26.9c-7.4 7.4-35.6 8.7-35.6 8.7s1.3-28.2 8.7-35.6z" fill="#04aa73"/><path d="m1289.5 437.3c.7.7.7 1.8 0 2.5 0 0-27.2 27.2-27.2 27.2-.7.7-1.8.7-2.5 0s-.7-1.8 0-2.5c0 0 27.2-27.2 27.2-27.2.7-.7 1.8-.7 2.5 0z" fill="#03774d"/><path d="m1179.4727 527.46875c-.6469-.0375-1.3235.20547-1.7735.73047-.6.7-.7996 1.60039-.5996 2.40039 0 0 5.0996 15.20117 5.0996 15.20117-4.7 4.2-8.3984 9.09961-10.8984 14.59961h-8.4004c-2.6 0-4.7012 2.09922-4.7012 4.69922v18.80078c0 2.6 2.1012 4.69922 4.7012 4.69922h6.5996c1.0377 3.33531 2.5163 6.51968 4.377 9.50195.3988.0981.7006.0996 1.1015.0996 3.5456 0 6.3828-2.83529 6.3828-6.38086 0-.81042.7092-1.51953 1.5196-1.51953s1.5195.70911 1.5195 1.51953c0 4.84966-3.6284 8.89023-8.3711 9.41407 2.8509 3.79052 6.3513 7.18804 10.3711 10.0664v10.19923c0 2.6 2.0992 4.69922 4.6992 4.69922h9.4004c2.6 0 4.6992-2.09922 4.6992-4.69922v-1.69922c4.5 1.1 9.2016 1.69922 14.1016 1.69922s9.5996-.59922 14.0996-1.69922v1.69922c0 2.6 2.0992 4.69922 4.6992 4.69922h9.4004c2.6 0 4.6992-2.09922 4.6992-4.69922v-10.19922c11.5-8.2 18.8008-20.60039 18.8008-34.40039 0-.27547 0-.53486-.01-.80078h9.01c3.9875 0 7.0996 3.20812 7.0996 7.09961 0 3.9875-3.2081 7.10156-7.0996 7.10156h-.1992c-1.6084 0-2.8008-1.19245-2.8008-2.80078s1.1924-2.80078 2.8008-2.80078h.2988c.541.008 1.0441-.27656 1.3168-.74381s.2727-1.04513 0-1.51238-.7758-.75146-1.3168-.74381h-.2988c-3.1917 0-5.8008 2.60911-5.8008 5.80078s2.6091 5.80078 5.8008 5.80078h.1992c5.5085 0 10.0996-4.48906 10.0996-10.10156 0-5.50851-4.4871-10.09961-10.0996-10.09961h-9.1484c-.1197-1.18896-.3323-2.52683-.752-4.29883-4.3-20.9-25.3988-36.70117-50.7988-36.70117-6.1 0-12 1.00117-17.5 2.70117 0 0-21.7012-7.20117-21.7012-7.20117-.2-.075-.4113-.11836-.6269-.13086z" fill="#ff7ba4"/><circle cx="1188.6" cy="475.70001" fill="#ffa619" r="25.200001"/><path d="m1190.0175 488.36822c4.2413 0 7.1167-2.01283 9.1296-4.74452 0 0-2.552-1.40178-2.552-1.40178-1.3659 2.04876-3.8459 3.4865-6.5776 3.4865-4.0976 0-7.4403-2.48009-8.6983-6.29008h10.8908v-1.86905h-11.3221c-.072-.50321-.1079-1.04236-.1079-1.58151 0-.57509.036-1.11424.1079-1.65339h11.3221v-1.86905h-10.8908c1.2939-3.77405 4.6007-6.21819 8.6983-6.21819 2.7317 0 5.2117 1.47367 6.5776 3.4865 0 0 2.516-1.40179 2.516-1.40179-1.905-2.69575-4.8523-4.74452-9.0936-4.74452-5.751 0-10.4595 3.4865-11.8973 8.878h-1.905v1.86905h1.5456c-.036.53915-.072 1.11424-.072 1.65339s.036 1.0783.072 1.58151h-1.5456v1.86905h1.905c1.4018 5.46338 6.1104 8.94988 11.8973 8.94988z" fill="#fff"/><circle cx="1210" cy="502.20001" fill="#ffa619" r="25.200001"/><path d="m1211.4108 514.85162c4.2413 0 7.1167-2.01283 9.1296-4.74452 0 0-2.552-1.40178-2.552-1.40178-1.3659 2.04876-3.8459 3.4865-6.5776 3.4865-4.0976 0-7.4403-2.48009-8.6983-6.29008h10.8908v-1.86905h-11.3221c-.072-.50321-.1079-1.04236-.1079-1.58151 0-.57509.036-1.11424.1079-1.65339h11.3221v-1.86905h-10.8908c1.2939-3.77405 4.6007-6.21819 8.6983-6.21819 2.7317 0 5.2117 1.47367 6.5776 3.4865 0 0 2.516-1.40179 2.516-1.40179-1.905-2.69575-4.8523-4.74452-9.0936-4.74452-5.751 0-10.4595 3.4865-11.8973 8.878h-1.905v1.86905h1.5456c-.036.53915-.072 1.11424-.072 1.65339s.036 1.0783.072 1.58151h-1.5456v1.86905h1.905c1.4018 5.46338 6.1104 8.94988 11.8973 8.94988z" fill="#fff"/><path d="m1559.5996 564.40039s-2 2.19922-2 2.19922 9.1973 8.59961 9.1973 8.59961h-248.9961c-.541-.008-1.0441.27656-1.3168.74381s-.2727 1.04513 0 1.51238.7758.75146 1.3168.74381h248.9961s-9.1973 8.60156-9.1973 8.60156 2 2.19922 2 2.19922 13.2012-12.30078 13.2012-12.30078-13.2012-12.29883-13.2012-12.29883" fill="#dedede"/><path d="m1254.2374 510.5045c3.304 0 5.544-1.568 7.112-3.696 0 0-1.988-1.092-1.988-1.092-1.064 1.596-2.996 2.716-5.124 2.716-4.088 0-7.196-3.164-7.196-7.588 0-4.452 3.108-7.588 7.196-7.588 2.128 0 4.06 1.148 5.124 2.716 0 0 1.96-1.092 1.96-1.092-1.484-2.1-3.78-3.696-7.084-3.696-5.376 0-9.604 3.92-9.604 9.66s4.228 9.66 9.604 9.66z" fill="#03774d"/><path d="m1272.8233 510.5045c5.516 0 9.268-4.144 9.268-9.66s-3.752-9.66-9.268-9.66c-5.544 0-9.268 4.144-9.268 9.66s3.724 9.66 9.268 9.66zm0-2.072c-4.2 0-6.86-3.248-6.86-7.588 0-4.368 2.66-7.588 6.86-7.588 4.172 0 6.86 3.22 6.86 7.588 0 4.34-2.688 7.588-6.86 7.588z" fill="#03774d"/><path d="m1293.1128 514.2565v-1.372h-5.684c3.304-2.38 5.628-4.424 5.628-6.692s-1.96-3.304-4.004-3.304c-1.596 0-3.192.588-4.116 1.764 0 0 .924 1.064.924 1.064.588-.784 1.736-1.456 3.136-1.456 1.204 0 2.38.616 2.38 2.044 0 1.82-2.128 3.64-6.412 6.692v1.26z" fill="#03774d"/></svg>
