<?xml version="1.0" encoding="utf-8"?>
<!-- Generator: Adobe Illustrator 24.0.3, SVG Export Plug-In . SVG Version: 6.00 Build 0)  -->
<svg version="1.1" id="Layer_1" xmlns="http://www.w3.org/2000/svg" xmlns:xlink="http://www.w3.org/1999/xlink" x="0px" y="0px"
	 viewBox="0 0 777.4 777" style="enable-background:new 0 0 777.4 777;" xml:space="preserve">
<style type="text/css">
	.st0{fill:#27C3EB;}
	.st1{fill:#A7DFF2;}
	.st2{fill:#E9E9E9;}
	.st3{fill:#E8E8E8;}
	.st4{fill:#DCDCDC;}
	.st5{fill:#1A79DB;}
	.st6{fill:#FFA619;}
	.st7{fill:#DDDDDD;}
	.st8{fill:#9EE3CD;}
	.st9{fill:#274156;}
	.st10{fill:#3EC79C;}
	.st11{fill:#B2B2B2;}
	.st12{fill:#FFFFFF;}
	.st13{fill:none;stroke:#FFFFFF;stroke-width:3;stroke-miterlimit:10;}
</style>
<rect x="0.4" class="st0" width="777" height="777"/>
<rect y="283.2" class="st1" width="161.1" height="187.9"/>
<g>
	<g>
		<path class="st2" d="M599.4,362.1c14.6,15.6,23.3,52.8,6.2,68.7c-17.1,15.9-53.5,4.6-68.1-11.1c-14.6-15.6-12.5-41.2,4.5-57.2
			C559.1,346.7,584.8,346.4,599.4,362.1z"/>
	</g>
	<g>
		<path class="st2" d="M397.9,388.8c2.5-7.4,7.4-12.2,11.8-17.8c2.4-2.6,4.8-5.2,7.4-7.8c2.6-2.6,5.2-5,8.3-6.8
			c3.1-1.8,6.3-3.4,9.6-4.8c1.6-0.7,3.3-1.3,5.1-1.7c1.7-0.5,3.5-1,5.2-1.4c6.9-2,14.4-2.2,21.5-2.4c3.7,0.2,7.3,0.6,10.9,0.9
			l2.7,0.3l2.7,0.5l5.3,1c1.7,0.4,3.5,0.5,5.2,1l5.1,1.3c1.7,0.5,3.4,0.8,5.1,1.3l5,1.7c3.3,1,6.5,2.4,9.6,3.8
			c3.2,1.3,6.1,3.1,9.2,4.6c2.9,1.8,5.8,3.5,8.6,5.5c1.4,1,2.8,2,4.1,3.1c1.4,1.1,2.6,2.1,4.1,3.5c2.3,2.1,2.5,5.6,0.4,7.9
			c-1.6,1.8-4.1,2.3-6.3,1.4l-0.9-0.4c-1-0.4-2.5-1.1-3.8-1.6c-1.3-0.5-2.7-1-4.1-1.4c-2.7-0.9-5.6-1.6-8.4-2.2
			c-2.9-0.5-5.6-1.2-8.5-1.3c-2.8-0.3-5.6-0.6-8.5-0.6l-4.2-0.1c-1.4,0-2.8,0.2-4.2,0.3c-2.8,0.3-5.5,0.3-8.2,1.1
			c-5.4,0.9-10.6,3-15.7,4.7c-10.1,4.2-19.3,8.3-29.7,11.3c-2.7,0.4-5.4,1.2-8.3,1.5c-2.9,0.4-5.9,0.7-9,1.1
			c-6.1,1.1-11.4,3.4-19.2,2.9l-0.8-0.1c-4.4-0.3-7.7-4.1-7.4-8.4C397.5,390.1,397.7,389.4,397.9,388.8z"/>
	</g>
	<g>
		<path class="st2" d="M415.7,324.6c4.6-6.3,10.7-9.4,16.6-13.4c3.1-1.7,6.2-3.6,9.4-5.2c3.2-1.7,6.5-3.3,10-4
			c3.5-0.8,7-1.4,10.5-1.7c1.8-0.2,3.6-0.3,5.4-0.1c1.8,0.1,3.6,0.1,5.4,0.3c7.2,0.2,14.4,2.2,21.3,4.2c3.4,1.3,6.8,2.8,10.1,4.1
			l2.5,1l2.4,1.3l4.8,2.5c1.6,0.9,3.2,1.6,4.7,2.5l4.5,2.8c1.5,1,3,1.8,4.4,2.8l4.2,3.1c2.8,2,5.5,4.3,8,6.5
			c2.6,2.2,4.9,4.8,7.4,7.1c2.3,2.6,4.5,5.1,6.5,7.8c1,1.3,2,2.7,3,4.1c1,1.4,1.8,2.8,2.8,4.5c1.6,2.7,0.7,6.1-2,7.7
			c-2.1,1.2-4.6,0.9-6.4-0.5l-0.7-0.6c-0.9-0.7-2-1.8-3.1-2.6c-1.1-0.9-2.3-1.8-3.5-2.6c-2.3-1.7-4.9-3.2-7.3-4.6
			c-2.6-1.3-5-2.8-7.7-3.8c-2.6-1.1-5.2-2.3-7.9-3.1l-4-1.3c-1.3-0.4-2.7-0.7-4.1-1c-2.7-0.6-5.4-1.3-8.2-1.4
			c-5.4-0.8-11-0.4-16.3-0.2c-10.8,1-20.9,2.1-31.7,1.9c-2.7-0.4-5.5-0.5-8.4-1c-2.9-0.5-5.9-1.1-8.9-1.6c-6.1-0.8-11.9-0.1-19.2-3
			l-0.8-0.3c-4.1-1.6-6.1-6.2-4.5-10.3C414.9,325.8,415.3,325.2,415.7,324.6z"/>
	</g>
	<path class="st3" d="M653.1,421.8c14.9-45.7-9.9-95-55.5-110.3c-6.4-2.1-13.4,1.7-14.9,8.5c-1.3,5.8,2.5,11.5,8.1,13.5
		c26.5,9.1,43.4,33.9,43.6,60.6c0,3.9-1.7,7.6-4.5,10.3l-50.3,47.4c-2.9,2.7-6.7,4.2-10.6,3.9c-9.9-0.7-19.6-3.6-28.4-8.8
		c-14.9-8.8-25.4-22.8-29.7-39.5c-1.6-6.1-7.8-9.8-14-8.3c-6.1,1.7-9.8,7.8-8.3,14c5.8,22.7,20.1,41.7,40.3,53.6
		c18.6,11,40.1,14.7,61.1,10.6c22.3,36.4,18.3,73.3,16.6,83.8c-4.4,8.5-10.2,15.3-17.4,20.2c-22.8,15.7-53,8.7-53.3,8.7
		c-6.2-1.5-12.4,2.3-13.9,8.4c-1.5,6.2,2.3,12.4,8.4,13.9c1.2,0.3,24.2,5.7,49-1.4c7.5-2.2,15.3-5.5,22.6-10.5
		c8-5.5,14.8-12.4,20.3-20.7c4.1-6.2,11.5-9.3,18.7-7.5l5.8,1.4c10.4,2.6,15.9,14,11.6,23.8c-20.7,46.9-66,49.5-68.3,49.6
		c-6.3,0.2-11.3,5.5-11.1,11.9c0.2,6.3,5.5,11.3,11.9,11.1c0.3,0,8.4-0.4,19.9-3.7c26.2-7.6,70-30.3,79.1-98.1
		c0.1-0.9,0.1-1.8,0-2.7C693,536.6,692.9,477.5,653.1,421.8z"/>
</g>
<g>
	<polygon class="st4" points="316.8,721.8 293.5,714.3 302.7,681.5 329.6,690.1 	"/>
	<path class="st4" d="M293.6,740.6c-6.8-2.2-10-10-6.7-16.3l10.8-20.7l44.9,35.4l-4.8,14.4L293.6,740.6z"/>
	<path class="st4" d="M155.9,619l-1.2-45.8c-0.1-5.6,3.6-10.5,9-11.8l19.7-4.9l-8.8-26.9l-26.7,9.8l-17.2,2.5
		c-7.1,1-11.5,8.2-9.3,15l21.7,66.2c1,3,4.2,4.7,7.2,3.7l0,0C153.8,625.7,156,622.5,155.9,619z"/>
	<g>
		<path class="st5" d="M179,569.9l-11.2-46.8l114.4-40l-40.8-35.5l39.5-45.6L366,476c8.5,7.4,12.2,19,9.5,29.9
			c-2.7,11-11.3,19.5-22.3,22.2L179,569.9z"/>
	</g>
	<g>
		<path class="st5" d="M334,705.8L288.9,689l52.9-177.7l-74.9-105.6l49.2-34.9l84.1,118.6c5.8,8.1,7.1,18.6,3.7,27.9L334,705.8z"/>
	</g>
	
		<rect x="317.4" y="213.9" transform="matrix(0.9082 -0.4185 0.4185 0.9082 -62.5113 183.2619)" class="st6" width="138.2" height="40.5"/>
	<path class="st7" d="M341.6,248.2l15.1-21.5c0,0,5.4,9.8,18.6,9c13.2-0.7,23.2-21.1,23.2-21.1s10.2,2.1,12.3,1.2
		c4.2-1.8-2.9-21.6-1.4-26.6c1.5-5.1,20.2-31.6-4.3-60.9c-24.6-29.3-60.9-11.5-60.9-11.5s-30.9,17.4-27.1,47.9
		c3.8,30.5,3.6,21.5,3.7,27.5S308,213.1,308,213.1L341.6,248.2z"/>
	<path class="st5" d="M396,148.8c-6,6.4-6.1,19.3-18.3,23.7c-12.1,4.4-15.4-8.7-23.7-13.1c-8.5-4.5-13.6-0.1-16.3,6.2
		c-2.7,6.2-1.2,21.5-5.1,25.1c-4.6,4.2-11.9,1.5-11.9,1.5c-1.2-6.7-2.5-19.2-3.7-27.5c-4.7-33.2,27.1-47.9,27.1-47.9
		s36.3-17.7,60.9,11.5c6.1,7.3,9.6,14.5,11.2,21.2C416.3,149.5,402,142.4,396,148.8z"/>
	<path class="st5" d="M362.5,118.2c0,0,1.9-17-2.8-29c-4.1-10.3-12.4-21.4-35.7-15.3c-23.3,6.1-43.3,36.3-62.2,30.5
		C240.3,97.8,240,76.3,240,76.3s-22.9,13-21.9,33.7c1,21.8,19.5,33.1,34.7,32.6c15.2-0.4,29.2-8.7,50-23.5
		c15.5-11,25.6-17.1,34.8-17.5c14.6-0.5,11.5,15.4,11.5,15.4L362.5,118.2z"/>
	<polygon class="st6" points="284.2,245.1 145,105.9 165.4,83.3 311.3,215 	"/>
	<path class="st4" d="M165.4,83.3L103,26.9c-2.1-1.9-5.3-1.7-7.1,0.4l0,0c-1.7,1.8-1.7,4.6-0.2,6.5l17.5,21.7l-0.3,0.3
		c-4.3,4.7-3.9,12,0.8,16.2l4.3,3.9c4.1,3.7,9.5,5.8,15.1,5.7h0c0.7,0,1.5,0.3,2,0.8l14.7,18L165.4,83.3z"/>
	<path class="st6" d="M434.9,219.4L377,156.3l20.4-22.6l64.6,58.4c7.9,7.1,8.5,19.4,1.4,27.3l0,0
		C455.9,227.7,442.6,227.8,434.9,219.4z"/>
	<path class="st4" d="M397.5,133.7L335,77.3c-2.1-1.9-5.3-1.7-7.1,0.4l0,0c-1.7,1.8-1.7,4.6-0.2,6.5l17.5,21.7l-0.3,0.3
		c-4.3,4.7-3.9,12,0.8,16.2l4.3,3.9c4.1,3.7,9.5,5.8,15.1,5.7l0,0c0.7,0,1.5,0.3,2,0.8l14.7,18L397.5,133.7z"/>
	<path class="st6" d="M363.7,262.3l-81-73.2c-68.5,75.9-73.6,147.6-65.9,194.4c8.5,51.1,34.4,84.1,37.3,87.7l84.7-68.9
		c0,0,0.2,0.2,0.6,0.7c-0.1-0.2-12.4-16.6-15.4-41.3c-1.3-10.4-0.7-21,1.6-31.6c1.4-6.6,5.9-12.1,11.9-15.1
		c7.8-4,13.2-12.1,13.2-21.4c0-0.7,0-1.4-0.1-2c-0.6-7.4,1.1-14.8,5.8-20.6C358.7,268,361.1,265.1,363.7,262.3z"/>
	<path class="st4" d="M352,738.9h-14.1v14.4H352c4,0,7.2-3.2,7.2-7.2v0C359.2,742.2,356,738.9,352,738.9z"/>
</g>
<g>
	<path class="st8" d="M589.1,414.4c-0.5,0.1-1.1,0-1.4-0.4l-3.7-4c-0.5-0.6-0.5-1.5,0.1-2c0.6-0.5,1.5-0.5,2,0.1l3.7,4
		c0.5,0.6,0.5,1.5-0.1,2C589.5,414.2,589.3,414.3,589.1,414.4z"/>
</g>
<g>
	<circle class="st9" cx="555.4" cy="399.1" r="3.5"/>
</g>
<g>
	<circle class="st9" cx="576.6" cy="379.3" r="3.5"/>
</g>
<g>
	<path class="st10" d="M585.5,410.6c-0.1,0-0.3,0.1-0.4,0.1l-8.7-0.3c-0.8,0-1.4-0.7-1.4-1.5c0-0.8,0.7-1.4,1.5-1.4l7.3,0.2l0.2-7.3
		c0-0.8,0.7-1.4,1.5-1.4c0.8,0,1.4,0.7,1.4,1.5l-0.3,8.7C586.5,409.9,586.1,410.4,585.5,410.6z"/>
</g>
<g>
	<path class="st8" d="M585.5,424.3c-0.8,0.2-1.6,0.3-2.5,0.3c-2.1-0.1-4-1-5.5-2.5c-0.5-0.6-0.5-1.5,0.1-2c0.6-0.5,1.5-0.5,2,0.1
		c0.9,1,2.1,1.5,3.5,1.6c1.3,0,2.6-0.4,3.6-1.3c1-0.9,1.5-2.1,1.6-3.5c0-1.3-0.4-2.6-1.3-3.6c-0.5-0.6-0.5-1.5,0.1-2
		c0.6-0.5,1.5-0.5,2,0.1c1.4,1.5,2.2,3.5,2.1,5.6c-0.1,2.1-1,4-2.5,5.5C587.8,423.3,586.7,423.9,585.5,424.3z"/>
</g>
<g>
	<path class="st8" d="M594.9,415.5c-2.8,0.8-5.9,0.1-7.9-2.2c-0.5-0.6-0.5-1.5,0.1-2c0.6-0.5,1.5-0.5,2,0.1c1.9,2,5.1,2.1,7.1,0.2
		c2-1.9,2.1-5,0.2-7.1c-0.5-0.6-0.5-1.5,0.1-2c0.6-0.5,1.5-0.5,2,0.1c3,3.2,2.8,8.1-0.4,11.1C597.2,414.6,596.1,415.2,594.9,415.5z"
		/>
</g>
<g>
	<path class="st11" d="M548,395.8c-0.3,0.3-0.6,0.4-1,0.4c-0.8,0-1.4-0.7-1.4-1.5c0.1-3.3,3-6,6.3-5.9c0.8,0,1.4,0.7,1.4,1.5
		c0,0.8-0.7,1.4-1.5,1.4c-1.7-0.1-3.3,1.4-3.3,3.1C548.5,395.2,548.3,395.6,548,395.8z"/>
</g>
<g>
	<path class="st11" d="M573.9,371.3c-0.3,0.3-0.6,0.4-1,0.4c-1.8,0-3.3,1.4-3.3,3.1c0,0.8-0.7,1.4-1.5,1.4c-0.8,0-1.4-0.7-1.4-1.5
		c0.1-3.4,2.9-6,6.3-5.9c0.8,0,1.4,0.7,1.4,1.5C574.4,370.7,574.2,371.1,573.9,371.3z"/>
</g>
<g>
	<path class="st9" d="M542.2,212.1c9.5,0,17.2-7.7,17.2-17.2c0-0.2-0.1-0.4-0.1-0.7v-56.1l51.3-7.4v27.8c-2.6-1.5-5.5-2.4-8.7-2.4
		c-9.5,0-17.2,7.7-17.2,17.2c0,9.5,7.7,17.2,17.2,17.2c9.2,0,16.7-7.3,17.1-16.4c0-0.2,0.1-0.4,0.1-0.6v-56.4c0-2.4-1.9-4.3-4.3-4.3
		l-59.9,8.6v0l0,0c-2.4,0-4.3,1.9-4.3,4.3V180c-2.5-1.5-5.4-2.4-8.5-2.4c-9.5,0-17.2,7.7-17.2,17.2
		C525,204.3,532.7,212.1,542.2,212.1z"/>
	<path class="st9" d="M607,229.7c0,9.5,7.7,17.2,17.2,17.2c9.2,0,16.7-7.3,17.1-16.4c0-0.2,0.1-0.4,0.1-0.6v-46l13.3,13.3
		c1.7,1.7,4.4,1.7,6.1,0c1.7-1.7,1.7-4.4,0-6.1l-20.6-20.6c-1.2-1.2-3.1-1.6-4.7-0.9c-1.6,0.7-2.7,2.2-2.7,4v41.4
		c-2.6-1.5-5.5-2.4-8.7-2.4C614.8,212.4,607,220.2,607,229.7z"/>
</g>
<rect x="78" y="207.5" class="st12" width="58" height="75.8"/>
<rect x="88.5" y="218.1" class="st1" width="37" height="53.9"/>
<path class="st13" d="M58.3,210.8c0,0,0.8-41.3,24.9-66"/>
<path class="st13" d="M60.6,213.1c0,0-13.6-39,0.5-70.6"/>
<path class="st13" d="M43.4,135c0,0,13.6,39-0.5,70.6"/>
<path class="st13" d="M16.2,141.7c0,0,29.1,29.3,30,63.9"/>
<path class="st1" d="M46.8,282.9H59c16.6,0,28.3-16.3,23-32l-8.4-25.2c-2-6-3-12.3-3-18.6v0c0-8.2,1.7-16.3,5.1-23.8l0,0
	c0.2-0.5-0.1-1.1-0.7-1.1h-44c-0.5,0-0.9,0.6-0.7,1.1l0,0c3.3,7.5,5.1,15.6,5.1,23.8v0c0,6.3-1,12.6-3,18.6L23.8,251
	C18.5,266.7,30.3,282.9,46.8,282.9z"/>
<g>
	<g>
		<g>
			<path class="st1" d="M25.8,153.4c2.4-1.7,3.8-3.7,4.1-5.7c0.2-1.7-0.3-2.9-0.9-4.6c-0.4-0.8-0.7-1.7-1-2.9
				c-0.7-2.3-1.1-4.8-1-7.4c0-0.3-0.1-0.6-0.4-0.8c-0.3-0.2-0.6-0.2-0.9-0.2c-1.1,0.3-3.5,1.1-5.6,3.1c-0.5-0.5-1-1-1.5-1.5
				c-2.2-1.6-4.6-1.6-5.8-1.5c-0.4,0-0.6,0.3-0.8,0.6c-0.5,1.1-1.3,3.3-0.6,6c0.2,0.8,0.5,1.6,0.9,2.2c-1.5,0-3,0.2-4.5,0.8
				c-0.3,0.1-0.6,0.5-0.7,0.8c0,0.3,0.1,0.7,0.4,0.9c2.1,1.5,4,3.3,5.4,5.3c0.7,1,1.2,1.8,1.6,2.5c0.9,1.5,1.6,2.7,3.2,3.5
				c1.7,0.9,3.9,0.7,6.5-0.3L25.8,153.4z"/>
		</g>
	</g>
</g>
<g>
	<g>
		<g>
			<path class="st1" d="M46,145.3c2.5-1,4.3-2.3,5-4.1c0.7-1.7,0.3-3,0-4.7c-0.2-0.8-0.4-1.8-0.5-3c-0.3-2.4-0.1-5,0.4-7.5
				c0.1-0.4,0-0.8-0.3-1c-0.3-0.2-0.7-0.3-1-0.2c-1.5,0.6-2.8,1.5-3.9,2.5c-0.1-0.7-0.4-1.5-0.8-2.2c-1.3-2.4-3.4-3.5-4.5-4
				c-0.3-0.1-0.7-0.1-1,0.1c-1,0.7-2.7,2.4-3.3,5.1c-0.1,0.7-0.2,1.4-0.1,2.1c-2.9-0.1-5.2,0.9-6.2,1.4c-0.3,0.1-0.5,0.4-0.5,0.7
				c-0.1,0.3,0.1,0.6,0.3,0.9c1.7,1.9,3.2,3.9,4.2,6.1c0.5,1.1,0.9,2,1.2,2.9c0.6,1.6,1.1,2.9,2.4,4c1.6,1.3,3.9,1.8,6.9,1.5
				L46,145.3z"/>
		</g>
	</g>
</g>
<g>
	<g>
		<g>
			<path class="st1" d="M57.7,150.1c2.9-0.2,5.1-1.2,6.4-2.8c1.1-1.3,1.3-2.7,1.6-4.4c0.1-0.9,0.3-1.9,0.6-3
				c0.6-2.3,1.6-4.7,2.9-6.8c0.2-0.3,0.2-0.6,0.1-0.9c-0.1-0.3-0.4-0.5-0.7-0.6c-1.1-0.3-3.6-0.9-6.4-0.2c-0.1-0.7-0.3-1.4-0.5-2
				c-1.1-2.5-3.1-3.8-4.2-4.4c-0.3-0.2-0.7-0.1-1,0.1c-1,0.7-2.8,2.2-3.6,4.8c-0.2,0.8-0.4,1.6-0.4,2.3c-1.3-0.8-2.7-1.4-4.3-1.7
				c-0.3-0.1-0.8,0.1-1,0.4c-0.2,0.3-0.3,0.7-0.1,1c1,2.4,1.7,4.9,1.8,7.3c0.1,1.2,0.1,2.2,0.1,3c0,1.7-0.1,3.1,0.9,4.6
				c1,1.6,3,2.6,5.7,3.1L57.7,150.1z"/>
		</g>
	</g>
</g>
<g>
	<g>
		<g>
			<path class="st1" d="M76.3,150.7c1.9,2,3.8,3.1,5.7,3.1c1.8,0,2.9-0.8,4.4-1.8c0.7-0.5,1.5-1,2.6-1.6c2.1-1.2,4.6-2,7.1-2.4
				c0.4,0,0.7-0.3,0.8-0.7c0.1-0.3,0-0.8-0.2-1c-1.1-1.2-2.4-2-3.7-2.7c0.6-0.3,1.2-0.9,1.8-1.6c1.7-2.1,2-4.4,2-5.6
				c0-0.3-0.1-0.7-0.5-0.9c-1-0.6-3.2-1.6-5.9-1.1c-0.7,0.1-1.4,0.4-2,0.7c-1-2.7-2.8-4.5-3.6-5.2c-0.2-0.2-0.5-0.3-0.9-0.2
				c-0.3,0-0.5,0.3-0.7,0.6c-1.1,2.3-2.5,4.4-4.1,6.2c-0.8,0.9-1.5,1.6-2.2,2.2c-1.3,1.2-2.3,2.1-2.8,3.7c-0.6,2-0.2,4.3,1.2,6.9
				L76.3,150.7z"/>
		</g>
	</g>
</g>
</svg>
