<?xml version="1.0" encoding="utf-8"?>
<!-- Generator: Adobe Illustrator 24.0.3, SVG Export Plug-In . SVG Version: 6.00 Build 0)  -->
<svg version="1.1" id="Layer_1" xmlns="http://www.w3.org/2000/svg" xmlns:xlink="http://www.w3.org/1999/xlink" x="0px" y="0px"
	 viewBox="0 0 777 777" style="enable-background:new 0 0 777 777;" xml:space="preserve">
<style type="text/css">
	.st0{clip-path:url(#SVGID_2_);}
	.st1{fill:#1A79DB;}
	.st2{fill:#274156;}
	.st3{fill:#E9E9E9;}
	.st4{fill:#9EE3CD;}
	.st5{fill:#3EC79C;}
	.st6{fill:#FF7BA2;}
	.st7{fill:#FFA619;}
	.st8{fill:#687A89;}
	.st9{fill:none;stroke:#27C3EB;stroke-width:3;stroke-linecap:round;stroke-miterlimit:10;}
	.st10{clip-path:url(#SVGID_4_);}
	.st11{fill:#FFFFFF;}
	.st12{fill:#04AA73;}
	.st13{fill:#27C3EB;}
	.st14{clip-path:url(#SVGID_6_);}
	.st15{fill:#E4E4E4;}
	.st16{fill:#B1B1B1;}
	.st17{fill:#A7DFF2;}
	.st18{fill:#78D8BA;}
	.st19{clip-path:url(#SVGID_8_);}
</style>
<g>
	<defs>
		<rect id="SVGID_1_" width="777" height="777"/>
	</defs>
	<clipPath id="SVGID_2_">
		<use xlink:href="#SVGID_1_"  style="overflow:visible;"/>
	</clipPath>
	<g class="st0">
		<rect class="st1" width="777" height="777"/>
		<path class="st2" d="M545.7,777H231.6V422.4c0-23.5,19.1-42.6,42.6-42.6h228.9c23.5,0,42.6,19.1,42.6,42.6V777z"/>
		<g>
			<path class="st3" d="M722.3,122.6c-5.1-7.3-15.2-9-22.5-3.9l-85.9,60.6c-7.7,5.4-18.4,2.6-22.4-5.9l-0.1-0.2l69.9-49.3
				c7.3-5.1,9-15.2,3.9-22.5c-5.1-7.3-15.2-9-22.5-3.9l-50.9,35.9c-11.6,8.2-26.2,10.7-40,7.1c-17.3-4.5-36.5-1.3-51.9,10.2L497,153
				c-14,10.5-27.2,19.6-40.5,26.5c-13.2,6.9-26.5,11.5-40.7,14.5c-7.1,1.3-14.4,2.1-22,2.5c-3.8,0.2-7.7,0.1-11.6-0.1l-5.9-0.3
				l-6-0.5c-8-0.9-16.2-2.2-24.4-4.2c-4.1-0.9-8.2-2-12.1-3.1c-2-0.5-3.9-1.2-5.8-1.7l-2.7-0.8l-1.1-0.3c-0.2-0.1-0.3-0.1-0.4-0.1
				l-0.2,0c0,0,0.2,0.2,0.3,0.3c-24.3-15.8-56.9-8.8-72.6,15.5c-4.4,6.8-7,14.2-8,21.6h-150c-8.9,0-16.5,7-16.7,15.9
				c-0.2,9.1,7.1,16.5,16.2,16.5h156.7c0,0.1,0.1,0.1,0.1,0.2c4.3,7.7-1.1,17.1-9.9,17.1l-97.5,0c-8.9,0-16.5,7-16.7,15.9
				c-0.2,9.1,7.1,16.5,16.2,16.5h180.7c7.3,2.9,14.8,5.4,22.5,7.6l10.5,2.7l10.6,2.3c7.2,1.2,14.4,2.3,21.8,2.9
				c14.7,1.4,29.8,1.2,44.9-0.3c30.2-2.9,59.9-12.9,85.9-27.4c18.1-10.4,34.5-22.8,48.6-36.7c9.3-9.2,19.2-17.7,29.8-25.2
				l121.4-85.7C725.7,140,727.5,129.9,722.3,122.6z"/>
			<g>
				<path class="st3" d="M321.9,172.4c0,30.1-26.6,76.7-59.5,76.7s-59.5-46.7-59.5-76.7s26.6-54.5,59.5-54.5
					S321.9,142.3,321.9,172.4z"/>
			</g>
			<g>
				<path class="st4" d="M262.4,217.1c-1.1,0-2-0.9-2-2v-7.7c0-1.1,0.9-2,2-2c1.1,0,2,0.9,2,2v7.7
					C264.4,216.2,263.5,217.1,262.4,217.1z"/>
			</g>
			<g>
				<circle class="st2" cx="241.7" cy="168.7" r="4.9"/>
			</g>
			<g>
				<circle class="st2" cx="282.5" cy="168.7" r="4.9"/>
			</g>
			<g>
				<path class="st5" d="M262.4,209.7c-0.5,0-1-0.2-1.4-0.6l-8.7-8.7c-0.8-0.8-0.8-2.1,0-2.9c0.8-0.8,2.1-0.8,2.9,0l7.3,7.3l7.3-7.3
					c0.8-0.8,2.1-0.8,2.9,0s0.8,2.1,0,2.9l-8.7,8.7C263.4,209.5,262.9,209.7,262.4,209.7z"/>
			</g>
			<g>
				<path class="st4" d="M253.4,224.8c-6.1,0-11.1-5-11.1-11.1c0-1.1,0.9-2,2-2c1.1,0,2,0.9,2,2c0,3.9,3.2,7,7,7c3.9,0,7-3.2,7-7
					c0-1.1,0.9-2,2-2c1.1,0,2,0.9,2,2C264.4,219.8,259.5,224.8,253.4,224.8z"/>
			</g>
			<g>
				<path class="st4" d="M271.5,224.8c-6.1,0-11.1-5-11.1-11.1c0-1.1,0.9-2,2-2c1.1,0,2,0.9,2,2c0,3.9,3.2,7,7,7c3.9,0,7-3.2,7-7
					c0-1.1,0.9-2,2-2c1.1,0,2,0.9,2,2C282.6,219.8,277.6,224.8,271.5,224.8z"/>
			</g>
			<path class="st3" d="M372.7,137.4l-89,0.3c-3.5,0-4.5-4.8-1.3-6.2l181.5-79.7c2.2-1,4.6,0.9,4.3,3.3v0
				C461,102.3,420.5,137.3,372.7,137.4z"/>
			<path class="st3" d="M328.1,128.2l-89,0.3c-3.5,0-4.5-4.8-1.3-6.2l181.5-79.7c2.2-1,4.6,0.9,4.3,3.3v0
				C416.4,93.1,375.9,128.1,328.1,128.2z"/>
			<path class="st6" d="M553,151c-0.2-0.1-0.5-0.1-0.7-0.1c0,0,0-0.1,0-0.1c0.2,0,0.5,0,0.7-0.1c3.4-0.8,5.6-4.2,4.8-7.6
				c-0.8-3.4-4.3-5.6-7.7-4.8c-0.3,0.1-0.5,0.2-0.8,0.3c0,0,0-0.1-0.1-0.1c0.2-0.2,0.4-0.3,0.6-0.5c2.6-2.3,2.9-6.3,0.6-9
				c-2.3-2.6-6.3-2.9-9-0.6c-0.2,0.2-0.4,0.4-0.5,0.6c0,0-0.1,0-0.1-0.1c0.1-0.2,0.2-0.5,0.4-0.7c1.3-3.3-0.4-7-3.7-8.2
				c-3.3-1.3-7,0.3-8.2,3.7c-0.1,0.2-0.2,0.5-0.2,0.7c0,0-0.1,0-0.1,0c0-0.3,0-0.5,0-0.8c-0.4-3.5-3.6-6-7-5.6c-3.5,0.4-6,3.6-5.6,7
				c0,0.3,0.1,0.5,0.2,0.8c0,0-0.1,0-0.1,0c-0.1-0.2-0.3-0.5-0.4-0.7c-2-2.9-5.9-3.7-8.9-1.7c-2.9,2-3.7,5.9-1.7,8.8
				c0.2,0.2,0.3,0.4,0.5,0.6c0,0-0.1,0.1-0.1,0.1c-0.2-0.2-0.4-0.3-0.7-0.4c-3.1-1.7-7-0.5-8.7,2.6c-1.7,3.1-0.5,7,2.6,8.6
				c0.2,0.1,0.5,0.2,0.7,0.3c0,0,0,0.1,0,0.1c-0.3,0-0.5-0.1-0.8-0.1c-3.6,0-6.4,2.8-6.5,6.3c0,0.1,0,0.3,0,0.4
				c0,3.5,2.8,6.4,6.4,6.4c0.3,0,0.5,0,0.8-0.1c0,0,0,0.1,0,0.1c-0.2,0.1-0.5,0.2-0.7,0.3c-3.1,1.6-4.3,5.5-2.7,8.6
				c1.7,3.1,5.5,4.3,8.6,2.7c0.2-0.1,0.4-0.3,0.7-0.4c0,0,0.1,0.1,0.1,0.1c-0.2,0.2-0.4,0.4-0.5,0.6c-2,2.9-1.3,6.8,1.6,8.9
				c2.9,2,6.9,1.3,8.9-1.6c0.1-0.2,0.3-0.5,0.4-0.7c0,0,0.1,0,0.1,0c-0.1,0.2-0.1,0.5-0.1,0.8c-0.4,3.5,2,6.7,5.5,7.1
				c0.3,0,0.5,0,0.8,0c3.1,0,5.9-2.4,6.3-5.6c0.1-0.2,0-0.5,0-0.7c0,0,0.1,0,0.1,0c0.1,0.3,0.1,0.5,0.2,0.8c1.2,3.3,4.9,5,8.2,3.7
				c3.3-1.2,5-4.9,3.7-8.2c-0.1-0.2-0.2-0.4-0.3-0.7c0,0,0.1-0.1,0.1-0.1c0.2,0.2,0.3,0.4,0.5,0.6c2.6,2.3,6.7,2.1,9-0.5
				c2.3-2.6,2.1-6.7-0.5-9c-0.2-0.2-0.4-0.3-0.6-0.4c0,0,0-0.1,0.1-0.1c0.2,0.1,0.5,0.2,0.7,0.3c3.4,0.9,6.8-1.2,7.7-4.6
				C558.5,155.4,556.5,151.9,553,151z"/>
			<path class="st7" d="M301.3,142h-77.7c-14.9,0-27,12.1-27,27v3.1c0,14.9,12.1,27,27,27h12.1c9.5,0,18.3-5.1,23-13.3l0,0
				c1.7-3,6-3,7.7,0v0c4.7,8.2,13.5,13.3,23,13.3h11.9c14.9,0,27-12.1,27-27V169C328.3,154.1,316.2,142,301.3,142z"/>
			<path class="st8" d="M225,189.4h6.1c9.5,0,18.2-5.4,22.4-14l3.2-6.5c3.9-8-1.9-17.3-10.8-17.3h-21c-10.4,0-18.9,8.5-18.9,18.9v0
				C206.1,181,214.6,189.4,225,189.4z"/>
			<path class="st8" d="M300,189.4h-6.1c-9.5,0-18.2-5.4-22.4-14l-3.2-6.5c-3.9-8,1.9-17.3,10.8-17.3h21c10.4,0,18.9,8.5,18.9,18.9
				v0C318.9,181,310.4,189.4,300,189.4z"/>
		</g>
		<line class="st9" x1="496.8" y1="104.6" x2="622" y2="17.1"/>
		<line class="st9" x1="567.1" y1="77.8" x2="707.9" y2="-20"/>
		<line class="st9" x1="675" y1="48.9" x2="833.3" y2="-61"/>
		<line class="st9" x1="675" y1="81.8" x2="746.9" y2="31.9"/>
		<line class="st9" x1="736.4" y1="61" x2="894.7" y2="-48.9"/>
		<line class="st9" x1="745.1" y1="113.8" x2="903.3" y2="4"/>
	</g>
</g>
<g>
	<defs>
		<path id="SVGID_3_" d="M528.9,777H248.4V425.5c0-16,13-29,29-29h222.5c16,0,29,13,29,29V777z"/>
	</defs>
	<clipPath id="SVGID_4_">
		<use xlink:href="#SVGID_3_"  style="overflow:visible;"/>
	</clipPath>
	<g class="st10">
		<g>
			<rect x="248.3" y="376.3" class="st11" width="280.6" height="138.3"/>
		</g>
		<g>
			
				<image style="overflow:visible;opacity:0.3;" width="5388" height="9755" xlink:href="EBE5E29BF3CE0D49.html"  transform="matrix(5.986523e-02 0 0 5.986523e-02 227.2795 420.8803)">
			</image>
			<g>
				<g>
					<path class="st11" d="M528.9,983.9H248.3V455.1c0-7.3,5.9-13.2,13.2-13.2h254.2c7.3,0,13.2,5.9,13.2,13.2V983.9z"/>
				</g>
			</g>
		</g>
		<g>
			
				<image style="overflow:visible;opacity:0.4;" width="4465" height="4516" xlink:href="EBE5E29BF3CE0D4B.png"  transform="matrix(5.986523e-02 0 0 5.986523e-02 254.9073 522.8607)">
			</image>
			<g>
				<g>
					<g>
						<path class="st13" d="M505.4,757.1H271.7c-4.7,0-8.5-3.8-8.5-8.5v-209c0-4.7,3.8-8.5,8.5-8.5h233.7c4.7,0,8.5,3.8,8.5,8.5v209
							C513.9,753.3,510.1,757.1,505.4,757.1z"/>
					</g>
				</g>
				<g>
					<g>
						<path class="st11" d="M505.2,784.9H271.9c-4.8,0-8.7-3.9-8.7-8.7l0-40h250.7l0,40C513.9,781,510,784.9,505.2,784.9z"/>
					</g>
				</g>
			</g>
		</g>
		<g>
			<defs>
				<path id="SVGID_5_" d="M479.9,757.1H297.2c-18.8,0-34-15.2-34-34v-158c0-18.8,15.2-34,34-34h182.7c18.8,0,34,15.2,34,34v158
					C513.9,741.9,498.7,757.1,479.9,757.1z"/>
			</defs>
			<clipPath id="SVGID_6_">
				<use xlink:href="#SVGID_5_"  style="overflow:visible;"/>
			</clipPath>
			<g class="st14">
				<g>
					<path class="st12" d="M518.4,612.1c3.8,6.4,4.6,19.3-1.8,23.1c-6.4,3.8-17.4-3-21.2-9.3c-3.8-6.4-35.3-70.6-29-74.4
						C472.8,547.7,514.6,605.8,518.4,612.1z"/>
				</g>
				<g>
					<path class="st12" d="M524.9,600.5c1.4,7.3-2.2,19.7-9.5,21.1c-7.3,1.4-15.4-8.7-16.8-15.9c-1.4-7.3-9.4-78.4-2.1-79.9
						C503.7,524.4,523.4,593.2,524.9,600.5z"/>
				</g>
			</g>
		</g>
		<g>
			<path class="st2" d="M307.5,428.9l-2-7.8l-2,7.8c-0.2,0.8-1,1.5-1.9,1.5c-0.9,0-1.6-0.6-1.8-1.4l-3-10.3c0-0.1,0-0.3,0-0.4
				c0-0.8,0.7-1.5,1.5-1.5c0.7,0,1.3,0.5,1.5,1.2l2.1,8.6l2.3-8.7c0.2-0.6,0.7-1,1.4-1c0.6,0,1.2,0.4,1.3,1l2.3,8.7l2.1-8.6
				c0.2-0.7,0.8-1.2,1.5-1.2c0.8,0,1.5,0.7,1.5,1.5c0,0.1,0,0.3,0,0.4l-2.9,10.3c-0.2,0.8-1,1.4-1.9,1.4
				C308.4,430.3,307.7,429.7,307.5,428.9z"/>
			<path class="st2" d="M319.5,420.3c2.9,0,4.8,2.2,4.8,4.7c0,0.8-0.5,1.2-1.5,1.2h-5.7c0.2,1.2,1.1,2.2,2.8,2.2
				c0.6,0,1.4-0.2,2-0.5c0.1-0.1,0.3-0.1,0.5-0.1c0.5,0,1,0.5,1,1c0,0.4-0.2,0.7-0.5,0.9c-0.9,0.5-2.1,0.8-3.2,0.8
				c-2.9,0-5.1-2-5.1-5.1C314.5,422.6,316.5,420.3,319.5,420.3z M317.1,424.5h4.7c-0.1-0.9-0.7-2.1-2.4-2.1
				C317.9,422.3,317.2,423.5,317.1,424.5z"/>
			<path class="st2" d="M330.5,420.3c2.9,0,4.8,2.2,4.8,4.7c0,0.8-0.5,1.2-1.5,1.2h-5.7c0.2,1.2,1.1,2.2,2.8,2.2
				c0.6,0,1.4-0.2,2-0.5c0.1-0.1,0.3-0.1,0.5-0.1c0.5,0,1,0.5,1,1c0,0.4-0.2,0.7-0.5,0.9c-0.9,0.5-2.1,0.8-3.2,0.8
				c-2.9,0-5.1-2-5.1-5.1C325.5,422.6,327.6,420.3,330.5,420.3z M328.1,424.5h4.7c-0.1-0.9-0.7-2.1-2.4-2.1
				C328.9,422.3,328.3,423.5,328.1,424.5z"/>
			<path class="st2" d="M346.2,423.4v5.7c0,0.7-0.6,1.3-1.3,1.3c-0.7,0-1.3-0.6-1.3-1.3v-4.7c0-1.3-0.7-1.8-1.8-1.8
				c-1,0-1.8,0.6-2.2,1.1v5.3c0,0.7-0.6,1.3-1.3,1.3c-0.7,0-1.3-0.6-1.3-1.3v-7.4c0-0.7,0.6-1.3,1.3-1.3c0.7,0,1.3,0.6,1.3,1.3v0.1
				c0.6-0.7,1.8-1.5,3.4-1.5C345.2,420.3,346.2,421.5,346.2,423.4z"/>
			<path class="st2" d="M356.6,428.9v-8.4l-1.5,1.5c-0.2,0.2-0.5,0.4-0.8,0.4c-0.7,0-1.2-0.5-1.2-1.2c0-0.3,0.1-0.6,0.3-0.8l3.2-3.2
				c0.3-0.3,0.7-0.5,1.2-0.5c0.9,0,1.6,0.7,1.6,1.6v10.5c0,0.8-0.6,1.4-1.4,1.4C357.2,430.3,356.6,429.7,356.6,428.9z"/>
		</g>
		<g>
			<path class="st2" d="M505.1,412.7c-4.9,0-8.8,3.9-8.8,8.8s3.9,8.8,8.8,8.8s8.8-3.9,8.8-8.8S510,412.7,505.1,412.7z M506.2,426.5
				c0,0.6-0.5,1.1-1.1,1.1c-0.6,0-1.1-0.5-1.1-1.1V420c0-0.6,0.5-1.1,1.1-1.1c0.6,0,1.1,0.5,1.1,1.1V426.5z M505.1,417.6
				c-0.7,0-1.3-0.6-1.3-1.3s0.6-1.3,1.3-1.3c0.7,0,1.3,0.6,1.3,1.3S505.8,417.6,505.1,417.6z"/>
		</g>
		<g>
			<g>
				<path class="st2" d="M281.5,430.3h-16.9c-0.8,0-1.4-0.6-1.4-1.4c0-0.8,0.6-1.4,1.4-1.4h16.9c0.8,0,1.4,0.6,1.4,1.4
					C282.9,429.7,282.2,430.3,281.5,430.3z"/>
			</g>
			<g>
				<path class="st2" d="M281.5,423.1h-16.9c-0.8,0-1.4-0.6-1.4-1.4c0-0.8,0.6-1.4,1.4-1.4h16.9c0.8,0,1.4,0.6,1.4,1.4
					C282.9,422.4,282.2,423.1,281.5,423.1z"/>
			</g>
			<g>
				<path class="st2" d="M281.5,415.8h-16.9c-0.8,0-1.4-0.6-1.4-1.4s0.6-1.4,1.4-1.4h16.9c0.8,0,1.4,0.6,1.4,1.4
					S282.2,415.8,281.5,415.8z"/>
			</g>
		</g>
		<g>
			<path class="st15" d="M364.6,736.2h48c3,0,5.9-0.7,8.5-2.1c21.6-11.6,36.3-34.4,36.3-60.6c0-21.6-22.1-59.4-41.3-88.1H361
				c-19.2,28.7-41.3,66.5-41.3,88.1c0,26.2,14.7,49,36.3,60.6C358.7,735.5,361.6,736.2,364.6,736.2z"/>
		</g>
		<g>
			<circle class="st2" cx="388.6" cy="673.7" r="50.6"/>
		</g>
		<g>
			<path class="st16" d="M390.9,554.6h-4.6c-2.2,0-4.2,1-5.4,2.8c-6.3,8.7-15.6,21.7-24,34.3h63.5c-8.4-12.6-17.7-25.6-24-34.3
				C395.1,555.7,393,554.6,390.9,554.6z"/>
		</g>
		<g>
			<path class="st11" d="M344.2,680.2c0-0.7,0.4-1.4,0.9-1.8c7.6-5.5,9.8-7.5,9.8-9.9c0-1.7-1.6-2.6-3.3-2.6c-1.6,0-3,0.5-4.2,1.3
				c-0.3,0.2-0.7,0.3-1,0.3c-1,0-1.9-0.8-1.9-1.9c0-0.6,0.3-1.2,0.8-1.5c1.9-1.4,4.1-2,6.3-2c4.3,0,7.6,2.4,7.6,6.4
				c0,3.4-2.8,6.4-8.2,10.1h6.6c1,0,1.9,0.8,1.9,1.9c0,1-0.9,1.9-1.9,1.9h-11.3C345.2,682.4,344.2,681.4,344.2,680.2z"/>
			<path class="st11" d="M370.3,662.1c5.7,0,8.3,5.1,8.3,10.3c0,5.1-2.6,10.3-8.3,10.3c-5.7,0-8.3-5.2-8.3-10.3
				C362,667.3,364.6,662.1,370.3,662.1z M370.3,665.9c-2.9,0-4,2.8-4,6.5c0,3.7,1.1,6.6,4,6.6c2.8,0,3.9-2.9,3.9-6.6
				C374.2,668.7,373.1,665.9,370.3,665.9z"/>
			<path class="st11" d="M382.8,677.9c1.3,0,2.4,1.1,2.4,2.4c0,1.3-1.1,2.4-2.4,2.4c-1.3,0-2.4-1.1-2.4-2.4
				C380.3,679,381.4,677.9,382.8,677.9z"/>
			<path class="st11" d="M387.5,680.2c0-0.7,0.4-1.4,0.9-1.8c7.6-5.5,9.8-7.5,9.8-9.9c0-1.7-1.6-2.6-3.3-2.6c-1.6,0-3,0.5-4.2,1.3
				c-0.3,0.2-0.7,0.3-1,0.3c-1,0-1.9-0.8-1.9-1.9c0-0.6,0.3-1.2,0.8-1.5c1.9-1.4,4.1-2,6.3-2c4.3,0,7.6,2.4,7.6,6.4
				c0,3.4-2.8,6.4-8.2,10.1h6.6c1,0,1.9,0.8,1.9,1.9c0,1-0.9,1.9-1.9,1.9h-11.3C388.5,682.4,387.5,681.4,387.5,680.2z"/>
			<path class="st11" d="M404.8,666.2c0-2.2,1.8-4.1,4-4.1c2.2,0,4,1.8,4,4.1c0,2.2-1.8,4-4,4C406.6,670.2,404.8,668.4,404.8,666.2z
				 M406.9,666.2c0,1.1,0.8,1.9,1.9,1.9c1.1,0,2-0.9,2-1.9c0-1.1-0.9-2-2-2C407.8,664.2,406.9,665.1,406.9,666.2z"/>
			<path class="st11" d="M414.6,672.4c0-6.1,4.6-10.3,10.5-10.3c3.3,0,5.5,1.2,7.1,3c0.3,0.3,0.5,0.8,0.5,1.3c0,1.1-0.9,2-2,2
				c-0.6,0-1.1-0.2-1.5-0.7c-1-1.1-2.4-1.9-4.1-1.9c-3.5,0-6.1,2.8-6.1,6.6c0,3.8,2.6,6.6,6.1,6.6c1.7,0,3.1-0.7,4.1-1.9
				c0.4-0.4,0.9-0.7,1.5-0.7c1.1,0,2,0.9,2,2c0,0.5-0.2,1-0.5,1.3c-1.6,1.7-3.8,3-7.1,3C419.2,682.7,414.6,678.5,414.6,672.4z"/>
		</g>
		<g>
			
				<image style="overflow:visible;opacity:0.48;" width="1501" height="1286" xlink:href="EBE5E29BF3CE0D4E.html"  transform="matrix(5.986523e-02 0 0 5.986523e-02 254.9672 448.0292)">
			</image>
			<g>
				<g>
					<path class="st2" d="M329.8,516.8H270c-3.7,0-6.7-3-6.7-6.7v-47c0-3.7,3-6.7,6.7-6.7h59.9c3.7,0,6.7,3,6.7,6.7v47
						C336.6,513.7,333.5,516.8,329.8,516.8z"/>
				</g>
			</g>
		</g>
		<g>
			<g>
				<path class="st11" d="M301.3,475.1l-16.2,16.2c-0.7,0.7-0.7,1.7,0,2.4s1.7,0.7,2.4,0l16.2-16.2c0.7-0.7,0.7-1.7,0-2.4
					C303,474.4,302,474.4,301.3,475.1z"/>
			</g>
			<g>
				<path class="st11" d="M302.1,471.4c0.7,0,1.2-0.5,1.2-1.2v-5c0-0.7-0.5-1.2-1.2-1.2s-1.2,0.5-1.2,1.2v5
					C300.9,470.8,301.4,471.4,302.1,471.4z"/>
			</g>
			<g>
				<path class="st11" d="M302.1,482.1c-0.7,0-1.2,0.5-1.2,1.2v5c0,0.7,0.5,1.2,1.2,1.2s1.2-0.5,1.2-1.2v-5
					C303.3,482.6,302.7,482.1,302.1,482.1z"/>
			</g>
			<g>
				<path class="st11" d="M313.6,475.5h-5c-0.7,0-1.2,0.5-1.2,1.2c0,0.7,0.5,1.2,1.2,1.2h5c0.7,0,1.2-0.5,1.2-1.2
					C314.8,476,314.3,475.5,313.6,475.5z"/>
			</g>
			<g>
				<path class="st11" d="M290.5,477.9h5c0.7,0,1.2-0.5,1.2-1.2c0-0.7-0.5-1.2-1.2-1.2h-5c-0.7,0-1.2,0.5-1.2,1.2
					C289.3,477.3,289.9,477.9,290.5,477.9z"/>
			</g>
			<g>
				<path class="st11" d="M306.7,473.3c0.3,0,0.6-0.1,0.8-0.3l3.5-3.5c0.2-0.2,0.3-0.5,0.3-0.8c0-0.3-0.1-0.6-0.3-0.8
					c-0.2-0.2-0.5-0.3-0.8-0.3c-0.3,0-0.6,0.1-0.8,0.3l-3.5,3.5c-0.2,0.2-0.3,0.5-0.3,0.8c0,0.3,0.1,0.6,0.3,0.8
					C306.1,473.2,306.4,473.3,306.7,473.3z"/>
			</g>
			<g>
				<path class="st11" d="M296.6,472.9c0.2,0.2,0.5,0.3,0.8,0.3s0.6-0.1,0.8-0.3c0.2-0.2,0.3-0.5,0.3-0.8c0-0.3-0.1-0.6-0.3-0.8
					l-3.5-3.5c-0.2-0.2-0.5-0.3-0.8-0.3c-0.3,0-0.6,0.1-0.8,0.3c-0.2,0.2-0.3,0.5-0.3,0.8c0,0.3,0.1,0.6,0.3,0.8L296.6,472.9z"/>
			</g>
			<g>
				<path class="st11" d="M307.5,480.5c-0.2-0.2-0.5-0.3-0.8-0.3c-0.3,0-0.6,0.1-0.8,0.3c-0.2,0.2-0.3,0.5-0.3,0.8
					c0,0.3,0.1,0.6,0.3,0.8l3.5,3.5c0.2,0.2,0.5,0.3,0.8,0.3c0.3,0,0.6-0.1,0.8-0.3c0.2-0.2,0.3-0.5,0.3-0.8c0-0.3-0.1-0.6-0.3-0.8
					L307.5,480.5z"/>
			</g>
		</g>
		<g>
			<path class="st11" d="M277.2,506.4v-3.1l-1.4,3.4c0,0.1-0.2,0.2-0.3,0.2c-0.1,0-0.2-0.1-0.3-0.2l-1.4-3.4v3.1
				c0,0.3-0.2,0.5-0.5,0.5c-0.3,0-0.5-0.2-0.5-0.5v-3.7c0-0.5,0.4-0.9,0.9-0.9c0.4,0,0.7,0.2,0.8,0.6l1,2.6l1-2.6
				c0.1-0.3,0.4-0.6,0.8-0.6c0.5,0,0.9,0.4,0.9,0.9v3.7c0,0.3-0.2,0.5-0.5,0.5C277.4,507,277.2,506.7,277.2,506.4z"/>
			<path class="st11" d="M279,505.1c0-1,0.7-1.9,1.9-1.9c1.2,0,1.9,0.9,1.9,1.9c0,1-0.7,1.9-1.9,1.9C279.7,507,279,506.1,279,505.1z
				 M281.8,505.1c0-0.6-0.3-1-0.9-1c-0.6,0-0.9,0.5-0.9,1c0,0.6,0.3,1.1,0.9,1.1C281.5,506.1,281.8,505.7,281.8,505.1z"/>
			<path class="st11" d="M287,502.3v4.1c0,0.3-0.2,0.5-0.5,0.5c-0.3,0-0.5-0.2-0.5-0.5v0c-0.3,0.4-0.7,0.5-1.1,0.5
				c-0.9,0-1.6-0.7-1.6-1.9c0-1.2,0.7-1.9,1.6-1.9c0.4,0,0.8,0.2,1.1,0.6v-1.4c0-0.3,0.2-0.5,0.5-0.5
				C286.7,501.9,287,502.1,287,502.3z M286,505.7v-1.3c-0.2-0.2-0.5-0.4-0.8-0.4c-0.5,0-0.9,0.4-0.9,1.1c0,0.6,0.4,1,0.9,1
				C285.5,506.1,285.8,506,286,505.7z"/>
			<path class="st11" d="M289.5,503.2c1.1,0,1.8,0.8,1.8,1.8c0,0.3-0.2,0.4-0.6,0.4h-2.1c0.1,0.5,0.4,0.8,1,0.8
				c0.2,0,0.5-0.1,0.7-0.2c0.1,0,0.1,0,0.2,0c0.2,0,0.4,0.2,0.4,0.4c0,0.1-0.1,0.3-0.2,0.3c-0.4,0.2-0.8,0.3-1.2,0.3
				c-1.1,0-1.9-0.7-1.9-1.9C287.7,504,288.4,503.2,289.5,503.2z M288.6,504.8h1.8c0-0.3-0.3-0.8-0.9-0.8
				C288.9,504,288.7,504.4,288.6,504.8z"/>
			<path class="st11" d="M293.9,502.1c0-0.3,0.3-0.6,0.6-0.6c0.3,0,0.6,0.3,0.6,0.6s-0.3,0.6-0.6,0.6
				C294.1,502.7,293.9,502.4,293.9,502.1z M293.9,506.5v-2.8c0-0.3,0.2-0.5,0.5-0.5c0.3,0,0.5,0.2,0.5,0.5v2.8
				c0,0.3-0.2,0.5-0.5,0.5C294.2,507,293.9,506.7,293.9,506.5z"/>
			<path class="st11" d="M299.2,504.4v2.1c0,0.3-0.2,0.5-0.5,0.5c-0.3,0-0.5-0.2-0.5-0.5v-1.8c0-0.5-0.3-0.7-0.7-0.7
				c-0.4,0-0.7,0.2-0.8,0.4v2c0,0.3-0.2,0.5-0.5,0.5c-0.3,0-0.5-0.2-0.5-0.5v-2.8c0-0.3,0.2-0.5,0.5-0.5c0.3,0,0.5,0.2,0.5,0.5v0
				c0.2-0.3,0.7-0.5,1.3-0.5C298.8,503.2,299.2,503.6,299.2,504.4z"/>
			<path class="st11" d="M302.2,506.5c0,0.2-0.1,0.3-0.3,0.4c-0.1,0-0.3,0.1-0.5,0.1c-0.7,0-1-0.3-1-1v-1.9h-0.2
				c-0.2,0-0.4-0.2-0.4-0.4c0-0.2,0.2-0.4,0.4-0.4h0.2v-0.6c0-0.3,0.2-0.5,0.5-0.5c0.3,0,0.5,0.2,0.5,0.5v0.6h0.4
				c0.2,0,0.4,0.2,0.4,0.4c0,0.2-0.2,0.4-0.4,0.4h-0.4v1.6c0,0.2,0.1,0.4,0.3,0.4c0.1,0,0.1,0,0.2,0
				C302,506.1,302.2,506.3,302.2,506.5z"/>
			<path class="st11" d="M304.3,503.2c1.1,0,1.8,0.8,1.8,1.8c0,0.3-0.2,0.4-0.6,0.4h-2.1c0.1,0.5,0.4,0.8,1,0.8
				c0.2,0,0.5-0.1,0.7-0.2c0.1,0,0.1,0,0.2,0c0.2,0,0.4,0.2,0.4,0.4c0,0.1-0.1,0.3-0.2,0.3c-0.4,0.2-0.8,0.3-1.2,0.3
				c-1.1,0-1.9-0.7-1.9-1.9C302.5,504,303.2,503.2,304.3,503.2z M303.5,504.8h1.8c0-0.3-0.3-0.8-0.9-0.8
				C303.8,504,303.5,504.4,303.5,504.8z"/>
			<path class="st11" d="M306.8,506.5v-4.1c0-0.3,0.2-0.5,0.5-0.5c0.3,0,0.5,0.2,0.5,0.5v4.1c0,0.3-0.2,0.5-0.5,0.5
				C307.1,507,306.8,506.7,306.8,506.5z"/>
			<path class="st11" d="M308.7,506.5v-4.1c0-0.3,0.2-0.5,0.5-0.5c0.3,0,0.5,0.2,0.5,0.5v4.1c0,0.3-0.2,0.5-0.5,0.5
				C308.9,507,308.7,506.7,308.7,506.5z"/>
			<path class="st11" d="M310.5,502.1c0-0.3,0.3-0.6,0.6-0.6c0.3,0,0.6,0.3,0.6,0.6s-0.3,0.6-0.6,0.6
				C310.8,502.7,310.5,502.4,310.5,502.1z M310.6,506.5v-2.8c0-0.3,0.2-0.5,0.5-0.5c0.3,0,0.5,0.2,0.5,0.5v2.8
				c0,0.3-0.2,0.5-0.5,0.5S310.6,506.7,310.6,506.5z"/>
			<path class="st11" d="M316,503.7v2.9c0,1.4-1.1,1.7-2,1.7c-0.5,0-0.9-0.1-1.3-0.3c-0.1-0.1-0.2-0.2-0.2-0.3
				c0-0.2,0.2-0.4,0.4-0.4c0.1,0,0.1,0,0.2,0.1c0.3,0.2,0.5,0.2,0.9,0.2c0.5,0,1-0.2,1-0.9v-0.4c-0.3,0.4-0.7,0.6-1.1,0.6
				c-0.9,0-1.6-0.6-1.6-1.8c0-1.2,0.7-1.8,1.6-1.8c0.4,0,0.8,0.2,1.1,0.6v-0.1c0-0.3,0.2-0.5,0.5-0.5
				C315.7,503.2,316,503.5,316,503.7z M315,505.6v-1.2c-0.2-0.2-0.5-0.4-0.8-0.4c-0.5,0-0.9,0.4-0.9,1c0,0.6,0.4,1,0.9,1
				C314.5,506,314.8,505.9,315,505.6z"/>
			<path class="st11" d="M318.5,503.2c1.1,0,1.8,0.8,1.8,1.8c0,0.3-0.2,0.4-0.6,0.4h-2.1c0.1,0.5,0.4,0.8,1,0.8
				c0.2,0,0.5-0.1,0.7-0.2c0.1,0,0.1,0,0.2,0c0.2,0,0.4,0.2,0.4,0.4c0,0.1-0.1,0.3-0.2,0.3c-0.4,0.2-0.8,0.3-1.2,0.3
				c-1.1,0-1.9-0.7-1.9-1.9C316.7,504,317.4,503.2,318.5,503.2z M317.6,504.8h1.8c0-0.3-0.3-0.8-0.9-0.8
				C317.9,504,317.7,504.4,317.6,504.8z"/>
			<path class="st11" d="M324.4,504.4v2.1c0,0.3-0.2,0.5-0.5,0.5c-0.3,0-0.5-0.2-0.5-0.5v-1.8c0-0.5-0.3-0.7-0.7-0.7
				c-0.4,0-0.7,0.2-0.8,0.4v2c0,0.3-0.2,0.5-0.5,0.5c-0.3,0-0.5-0.2-0.5-0.5v-2.8c0-0.3,0.2-0.5,0.5-0.5c0.3,0,0.5,0.2,0.5,0.5v0
				c0.2-0.3,0.7-0.5,1.3-0.5C324,503.2,324.4,503.6,324.4,504.4z"/>
			<path class="st11" d="M327.4,506.5c0,0.2-0.1,0.3-0.3,0.4c-0.1,0-0.3,0.1-0.5,0.1c-0.7,0-1-0.3-1-1v-1.9h-0.2
				c-0.2,0-0.4-0.2-0.4-0.4c0-0.2,0.2-0.4,0.4-0.4h0.2v-0.6c0-0.3,0.2-0.5,0.5-0.5c0.3,0,0.5,0.2,0.5,0.5v0.6h0.4
				c0.2,0,0.4,0.2,0.4,0.4c0,0.2-0.2,0.4-0.4,0.4h-0.4v1.6c0,0.2,0.1,0.4,0.3,0.4c0.1,0,0.1,0,0.2,0
				C327.2,506.1,327.4,506.3,327.4,506.5z"/>
		</g>
		<g>
			<path class="st2" d="M369.5,506.4v-3.1l-1.4,3.4c0,0.1-0.2,0.2-0.3,0.2c-0.1,0-0.2-0.1-0.3-0.2l-1.4-3.4v3.1
				c0,0.3-0.2,0.5-0.5,0.5c-0.3,0-0.5-0.2-0.5-0.5v-3.7c0-0.5,0.4-0.9,0.9-0.9c0.4,0,0.7,0.2,0.8,0.6l1,2.6l1-2.6
				c0.1-0.3,0.4-0.6,0.8-0.6c0.5,0,0.9,0.4,0.9,0.9v3.7c0,0.3-0.2,0.5-0.5,0.5C369.7,507,369.5,506.7,369.5,506.4z"/>
			<path class="st2" d="M371.3,505.1c0-1,0.7-1.9,1.9-1.9c1.2,0,1.9,0.9,1.9,1.9c0,1-0.7,1.9-1.9,1.9
				C372,507,371.3,506.1,371.3,505.1z M374.1,505.1c0-0.6-0.3-1-0.9-1c-0.6,0-0.9,0.5-0.9,1c0,0.6,0.3,1.1,0.9,1.1
				C373.8,506.1,374.1,505.7,374.1,505.1z"/>
			<path class="st2" d="M379.2,502.3v4.1c0,0.3-0.2,0.5-0.5,0.5c-0.3,0-0.5-0.2-0.5-0.5v0c-0.3,0.4-0.7,0.5-1.1,0.5
				c-0.9,0-1.6-0.7-1.6-1.9c0-1.2,0.7-1.9,1.6-1.9c0.4,0,0.8,0.2,1.1,0.6v-1.4c0-0.3,0.2-0.5,0.5-0.5
				C379,501.9,379.2,502.1,379.2,502.3z M378.3,505.7v-1.3c-0.2-0.2-0.5-0.4-0.8-0.4c-0.5,0-0.9,0.4-0.9,1.1c0,0.6,0.4,1,0.9,1
				C377.8,506.1,378.1,506,378.3,505.7z"/>
			<path class="st2" d="M381.8,503.2c1.1,0,1.8,0.8,1.8,1.8c0,0.3-0.2,0.4-0.6,0.4h-2.1c0.1,0.5,0.4,0.8,1,0.8
				c0.2,0,0.5-0.1,0.7-0.2c0.1,0,0.1,0,0.2,0c0.2,0,0.4,0.2,0.4,0.4c0,0.1-0.1,0.3-0.2,0.3c-0.4,0.2-0.8,0.3-1.2,0.3
				c-1.1,0-1.9-0.7-1.9-1.9C379.9,504,380.7,503.2,381.8,503.2z M380.9,504.8h1.8c0-0.3-0.3-0.8-0.9-0.8
				C381.2,504,381,504.4,380.9,504.8z"/>
			<path class="st2" d="M389.9,505.1c0,1.2-0.7,1.9-1.6,1.9c-0.4,0-0.8-0.2-1.1-0.5v0c0,0.3-0.2,0.5-0.5,0.5c-0.3,0-0.5-0.2-0.5-0.5
				v-4.1c0-0.3,0.2-0.5,0.5-0.5c0.3,0,0.5,0.2,0.5,0.5v1.4c0.3-0.4,0.7-0.6,1.1-0.6C389.2,503.2,389.9,503.9,389.9,505.1z
				 M388.9,505.1c0-0.6-0.4-1.1-0.9-1.1c-0.3,0-0.7,0.2-0.8,0.4v1.3c0.2,0.2,0.5,0.4,0.8,0.4C388.5,506.1,388.9,505.7,388.9,505.1z"
				/>
			<path class="st2" d="M393.7,504.6v1.9c0,0.3-0.2,0.5-0.5,0.5c-0.2,0-0.4-0.2-0.5-0.4c-0.2,0.3-0.7,0.5-1.1,0.5
				c-0.6,0-1.3-0.4-1.3-1.2c0-0.8,0.7-1.2,1.3-1.2c0.5,0,0.9,0.1,1.1,0.4v-0.5c0-0.4-0.3-0.6-0.8-0.6c-0.3,0-0.5,0.1-0.8,0.2
				c-0.1,0-0.1,0.1-0.2,0.1c-0.2,0-0.4-0.2-0.4-0.4c0-0.1,0.1-0.3,0.2-0.3c0.4-0.3,0.9-0.4,1.3-0.4
				C393,503.2,393.7,503.5,393.7,504.6z M392.8,506v-0.4c-0.2-0.2-0.5-0.3-0.8-0.3c-0.4,0-0.7,0.2-0.7,0.5c0,0.3,0.3,0.5,0.7,0.5
				C392.3,506.3,392.6,506.2,392.8,506z"/>
			<path class="st2" d="M394.4,506.3c0-0.2,0.2-0.4,0.4-0.4c0.1,0,0.1,0,0.2,0.1c0.3,0.2,0.7,0.3,1,0.3c0.4,0,0.6-0.1,0.6-0.4
				c0-0.3-0.3-0.3-0.7-0.4c-0.6-0.1-1.4-0.3-1.4-1.1c0-0.6,0.5-1.1,1.5-1.1c0.5,0,0.9,0.1,1.2,0.3c0.1,0.1,0.2,0.2,0.2,0.3
				c0,0.2-0.2,0.4-0.4,0.4c-0.1,0-0.1,0-0.2,0c-0.2-0.1-0.5-0.2-0.8-0.2c-0.3,0-0.6,0.1-0.6,0.3c0,0.2,0.3,0.3,0.7,0.4
				c0.6,0.1,1.5,0.3,1.5,1.2c0,0.7-0.6,1.2-1.6,1.2c-0.5,0-1-0.1-1.3-0.4C394.5,506.6,394.4,506.4,394.4,506.3z"/>
			<path class="st2" d="M398.2,502.1c0-0.3,0.3-0.6,0.6-0.6c0.3,0,0.6,0.3,0.6,0.6s-0.3,0.6-0.6,0.6
				C398.4,502.7,398.2,502.4,398.2,502.1z M398.2,506.5v-2.8c0-0.3,0.2-0.5,0.5-0.5c0.3,0,0.5,0.2,0.5,0.5v2.8
				c0,0.3-0.2,0.5-0.5,0.5C398.5,507,398.2,506.7,398.2,506.5z"/>
			<path class="st2" d="M403.6,503.7v4.1c0,0.3-0.2,0.5-0.5,0.5c-0.3,0-0.5-0.2-0.5-0.5v-1.4c-0.3,0.4-0.7,0.6-1.1,0.6
				c-0.9,0-1.6-0.7-1.6-1.9c0-1.2,0.7-1.9,1.6-1.9c0.4,0,0.8,0.2,1.1,0.5v-0.1c0-0.3,0.2-0.5,0.5-0.5
				C403.4,503.2,403.6,503.5,403.6,503.7z M402.6,505.7v-1.3c-0.2-0.2-0.5-0.4-0.8-0.4c-0.5,0-0.9,0.4-0.9,1c0,0.6,0.4,1.1,0.9,1.1
				C402.1,506.1,402.5,506,402.6,505.7z"/>
			<path class="st2" d="M407.9,503.7v2.8c0,0.3-0.2,0.5-0.5,0.5c-0.3,0-0.5-0.2-0.5-0.5v0c-0.2,0.3-0.7,0.5-1.3,0.5
				c-0.8,0-1.2-0.4-1.2-1.1v-2.1c0-0.3,0.2-0.5,0.5-0.5c0.3,0,0.5,0.2,0.5,0.5v1.8c0,0.5,0.3,0.7,0.7,0.7c0.4,0,0.7-0.2,0.8-0.4v-2
				c0-0.3,0.2-0.5,0.5-0.5C407.7,503.2,407.9,503.5,407.9,503.7z"/>
			<path class="st2" d="M410.5,503.2c1.1,0,1.8,0.8,1.8,1.8c0,0.3-0.2,0.4-0.6,0.4h-2.1c0.1,0.5,0.4,0.8,1,0.8
				c0.2,0,0.5-0.1,0.7-0.2c0.1,0,0.1,0,0.2,0c0.2,0,0.4,0.2,0.4,0.4c0,0.1-0.1,0.3-0.2,0.3c-0.4,0.2-0.8,0.3-1.2,0.3
				c-1.1,0-1.9-0.7-1.9-1.9C408.6,504,409.4,503.2,410.5,503.2z M409.6,504.8h1.8c0-0.3-0.3-0.8-0.9-0.8
				C409.9,504,409.6,504.4,409.6,504.8z"/>
		</g>
		<g>
			<path class="st2" d="M457.7,506.4v-3.1l-1.4,3.4c0,0.1-0.2,0.2-0.3,0.2c-0.1,0-0.2-0.1-0.3-0.2l-1.4-3.4v3.1
				c0,0.3-0.2,0.5-0.5,0.5c-0.3,0-0.5-0.2-0.5-0.5v-3.7c0-0.5,0.4-0.9,0.9-0.9c0.4,0,0.7,0.2,0.8,0.6l1,2.6l1-2.6
				c0.1-0.3,0.4-0.6,0.8-0.6c0.5,0,0.9,0.4,0.9,0.9v3.7c0,0.3-0.2,0.5-0.5,0.5C458,507,457.7,506.7,457.7,506.4z"/>
			<path class="st2" d="M459.5,505.1c0-1,0.7-1.9,1.9-1.9c1.2,0,1.9,0.9,1.9,1.9c0,1-0.7,1.9-1.9,1.9
				C460.3,507,459.5,506.1,459.5,505.1z M462.4,505.1c0-0.6-0.3-1-0.9-1s-0.9,0.5-0.9,1c0,0.6,0.3,1.1,0.9,1.1
				S462.4,505.7,462.4,505.1z"/>
			<path class="st2" d="M467.5,502.3v4.1c0,0.3-0.2,0.5-0.5,0.5c-0.3,0-0.5-0.2-0.5-0.5v0c-0.3,0.4-0.7,0.5-1.1,0.5
				c-0.9,0-1.6-0.7-1.6-1.9c0-1.2,0.7-1.9,1.6-1.9c0.4,0,0.8,0.2,1.1,0.6v-1.4c0-0.3,0.2-0.5,0.5-0.5
				C467.3,501.9,467.5,502.1,467.5,502.3z M466.6,505.7v-1.3c-0.2-0.2-0.5-0.4-0.8-0.4c-0.5,0-0.9,0.4-0.9,1.1c0,0.6,0.4,1,0.9,1
				C466.1,506.1,466.4,506,466.6,505.7z"/>
			<path class="st2" d="M470.1,503.2c1.1,0,1.8,0.8,1.8,1.8c0,0.3-0.2,0.4-0.6,0.4h-2.1c0.1,0.5,0.4,0.8,1,0.8
				c0.2,0,0.5-0.1,0.7-0.2c0.1,0,0.1,0,0.2,0c0.2,0,0.4,0.2,0.4,0.4c0,0.1-0.1,0.3-0.2,0.3c-0.4,0.2-0.8,0.3-1.2,0.3
				c-1.1,0-1.9-0.7-1.9-1.9C468.2,504,469,503.2,470.1,503.2z M469.2,504.8h1.8c0-0.3-0.3-0.8-0.9-0.8
				C469.5,504,469.2,504.4,469.2,504.8z"/>
			<path class="st2" d="M477,506.5v-1.8c0-0.5-0.3-0.7-0.7-0.7c-0.4,0-0.7,0.2-0.8,0.4v2c0,0.3-0.2,0.5-0.5,0.5
				c-0.3,0-0.5-0.2-0.5-0.5v-4.1c0-0.3,0.2-0.5,0.5-0.5c0.3,0,0.5,0.2,0.5,0.5v1.4c0.2-0.3,0.7-0.6,1.3-0.6c0.8,0,1.2,0.4,1.2,1.1
				v2.1c0,0.3-0.2,0.5-0.5,0.5C477.2,507,477,506.7,477,506.5z"/>
			<path class="st2" d="M478.6,505.1c0-1,0.7-1.9,1.9-1.9c1.2,0,1.9,0.9,1.9,1.9c0,1-0.7,1.9-1.9,1.9
				C479.3,507,478.6,506.1,478.6,505.1z M481.5,505.1c0-0.6-0.3-1-0.9-1s-0.9,0.5-0.9,1c0,0.6,0.3,1.1,0.9,1.1
				S481.5,505.7,481.5,505.1z"/>
			<path class="st2" d="M485.3,503.6c0,0.2-0.1,0.4-0.4,0.5c-0.2,0-0.6,0.2-0.8,0.4v2c0,0.3-0.2,0.5-0.5,0.5c-0.3,0-0.5-0.2-0.5-0.5
				v-2.8c0-0.3,0.2-0.5,0.5-0.5c0.3,0,0.5,0.2,0.5,0.5l0,0.1c0.2-0.2,0.4-0.4,0.6-0.5c0.1,0,0.2-0.1,0.2-0.1
				C485.2,503.2,485.3,503.4,485.3,503.6z"/>
			<path class="st2" d="M485.6,506.3c0-0.2,0.2-0.4,0.4-0.4c0.1,0,0.1,0,0.2,0.1c0.3,0.2,0.7,0.3,1,0.3c0.4,0,0.6-0.1,0.6-0.4
				c0-0.3-0.3-0.3-0.7-0.4c-0.6-0.1-1.4-0.3-1.4-1.1c0-0.6,0.5-1.1,1.5-1.1c0.5,0,0.9,0.1,1.2,0.3c0.1,0.1,0.2,0.2,0.2,0.3
				c0,0.2-0.2,0.4-0.4,0.4c-0.1,0-0.1,0-0.2,0c-0.2-0.1-0.5-0.2-0.8-0.2c-0.3,0-0.6,0.1-0.6,0.3c0,0.2,0.3,0.3,0.7,0.4
				c0.6,0.1,1.5,0.3,1.5,1.2c0,0.7-0.6,1.2-1.6,1.2c-0.5,0-1-0.1-1.3-0.4C485.7,506.6,485.6,506.4,485.6,506.3z"/>
			<path class="st2" d="M489.1,505.1c0-0.2,0.2-0.4,0.4-0.4h1.1c0.2,0,0.4,0.2,0.4,0.4c0,0.2-0.2,0.4-0.4,0.4h-1.1
				C489.3,505.5,489.1,505.3,489.1,505.1z"/>
			<path class="st2" d="M495.1,503.7v2.9c0,1.4-1.1,1.7-2,1.7c-0.5,0-0.9-0.1-1.3-0.3c-0.1-0.1-0.2-0.2-0.2-0.3
				c0-0.2,0.2-0.4,0.4-0.4c0.1,0,0.1,0,0.2,0.1c0.3,0.2,0.5,0.2,0.9,0.2c0.5,0,1-0.2,1-0.9v-0.4c-0.3,0.4-0.7,0.6-1.1,0.6
				c-0.9,0-1.6-0.6-1.6-1.8c0-1.2,0.7-1.8,1.6-1.8c0.4,0,0.8,0.2,1.1,0.6v-0.1c0-0.3,0.2-0.5,0.5-0.5
				C494.9,503.2,495.1,503.5,495.1,503.7z M494.1,505.6v-1.2c-0.2-0.2-0.5-0.4-0.8-0.4c-0.5,0-0.9,0.4-0.9,1c0,0.6,0.4,1,0.9,1
				C493.6,506,494,505.9,494.1,505.6z"/>
			<path class="st2" d="M497.7,503.2c1.1,0,1.8,0.8,1.8,1.8c0,0.3-0.2,0.4-0.6,0.4h-2.1c0.1,0.5,0.4,0.8,1,0.8
				c0.2,0,0.5-0.1,0.7-0.2c0.1,0,0.1,0,0.2,0c0.2,0,0.4,0.2,0.4,0.4c0,0.1-0.1,0.3-0.2,0.3c-0.4,0.2-0.8,0.3-1.2,0.3
				c-1.1,0-1.9-0.7-1.9-1.9C495.8,504,496.6,503.2,497.7,503.2z M496.8,504.8h1.8c0-0.3-0.3-0.8-0.9-0.8
				C497.1,504,496.8,504.4,496.8,504.8z"/>
			<path class="st2" d="M500.2,506.5v-4.1c0-0.3,0.2-0.5,0.5-0.5c0.3,0,0.5,0.2,0.5,0.5v4.1c0,0.3-0.2,0.5-0.5,0.5
				C500.4,507,500.2,506.7,500.2,506.5z"/>
		</g>
		<g>
			<g>
				<g>
					<path class="st2" d="M459.9,491.8c0-0.5,0.2-1,0.5-1.4l9.2-12.5h-7.8c-1,0-1.9-0.8-1.9-1.9c0-1,0.9-1.9,1.9-1.9H473
						c1.3,0,2.4,1,2.4,2.4c0,0.5-0.2,1-0.4,1.4l-9.2,12.5h8c1,0,1.9,0.8,1.9,1.9c0,1-0.9,1.9-1.9,1.9h-11.4
						C461,494.2,459.9,493.1,459.9,491.8z"/>
				</g>
			</g>
			<g>
				<g>
					<path class="st2" d="M477.4,479.1c0-0.3,0.1-0.6,0.3-0.8l5.2-7.1h-4.4c-0.6,0-1.1-0.5-1.1-1.1c0-0.6,0.5-1.1,1.1-1.1h6.3
						c0.7,0,1.3,0.6,1.3,1.3c0,0.3-0.1,0.6-0.3,0.8l-5.2,7.1h4.5c0.6,0,1.1,0.5,1.1,1.1c0,0.6-0.5,1.1-1.1,1.1h-6.5
						C478,480.4,477.4,479.9,477.4,479.1z"/>
				</g>
			</g>
			<g>
				<g>
					<path class="st2" d="M488.3,471.3c0-0.2,0.1-0.4,0.2-0.6l3.7-5h-3.1c-0.4,0-0.8-0.3-0.8-0.7c0-0.4,0.3-0.8,0.8-0.8h4.5
						c0.5,0,0.9,0.4,0.9,0.9c0,0.2-0.1,0.4-0.2,0.6l-3.7,5h3.2c0.4,0,0.8,0.3,0.8,0.7c0,0.4-0.3,0.8-0.8,0.8h-4.6
						C488.7,472.2,488.3,471.8,488.3,471.3z"/>
				</g>
			</g>
		</g>
		<g>
			<polygon class="st17" points="473,628.3 513.9,628.3 513.9,736.2 501.2,736.2 			"/>
		</g>
		<g>
			<circle class="st7" cx="485.6" cy="675.2" r="18"/>
		</g>
		<g>
			<path class="st11" d="M487.4,683.9c0,1-0.8,1.8-1.8,1.8c-0.9,0-1.8-0.8-1.8-1.8v-6.8h-6.1c-0.9,0-1.6-0.7-1.6-1.6
				c0-0.9,0.7-1.6,1.6-1.6h6.1v-6.5c0-1,0.8-1.8,1.8-1.8c1,0,1.8,0.8,1.8,1.8v6.5h6c0.9,0,1.6,0.7,1.6,1.6c0,0.9-0.7,1.6-1.6,1.6h-6
				V683.9z"/>
		</g>
		<g>
			<rect x="263.2" y="562.6" class="st17" width="31.2" height="173.6"/>
		</g>
		<g>
			<rect x="263.2" y="573.2" class="st15" width="20.5" height="152.4"/>
		</g>
		<g>
			<circle class="st7" cx="291.5" cy="675.2" r="18"/>
		</g>
		<g>
			<path class="st11" d="M299.3,677h-15.5c-0.9,0-1.6-0.7-1.6-1.6s0.7-1.6,1.6-1.6h15.5c0.9,0,1.6,0.7,1.6,1.6S300.2,677,299.3,677z
				"/>
		</g>
		<g>
			<path class="st2" d="M296.1,757.8v-6.5c0-0.5,0.4-0.9,0.9-0.9c0.5,0,0.8,0.4,0.8,0.9v6.5c0,0.5-0.4,0.9-0.8,0.9
				C296.5,758.7,296.1,758.3,296.1,757.8z"/>
			<path class="st2" d="M304.8,754.5v3.4c0,0.4-0.3,0.8-0.8,0.8c-0.4,0-0.8-0.3-0.8-0.8v-2.8c0-0.8-0.4-1.1-1.1-1.1
				c-0.6,0-1.1,0.3-1.3,0.7v3.2c0,0.4-0.3,0.8-0.8,0.8c-0.4,0-0.8-0.3-0.8-0.8v-4.4c0-0.4,0.3-0.8,0.8-0.8c0.4,0,0.8,0.3,0.8,0.8v0
				c0.4-0.4,1.1-0.9,2-0.9C304.2,752.6,304.8,753.4,304.8,754.5z"/>
			<path class="st2" d="M309.5,758c0,0.3-0.2,0.5-0.5,0.6c-0.2,0.1-0.5,0.1-0.8,0.1c-1.1,0-1.6-0.6-1.6-1.6v-3h-0.4
				c-0.4,0-0.7-0.3-0.7-0.7c0-0.4,0.3-0.7,0.7-0.7h0.4v-0.9c0-0.4,0.3-0.8,0.8-0.8c0.4,0,0.8,0.3,0.8,0.8v0.9h0.6
				c0.4,0,0.7,0.3,0.7,0.7c0,0.4-0.3,0.7-0.7,0.7h-0.6v2.6c0,0.4,0.2,0.6,0.5,0.6c0.1,0,0.2,0,0.3,0
				C309.3,757.4,309.5,757.6,309.5,758z"/>
			<path class="st2" d="M313,752.6c1.7,0,2.9,1.3,2.9,2.8c0,0.5-0.3,0.7-0.9,0.7h-3.4c0.1,0.7,0.7,1.3,1.7,1.3
				c0.4,0,0.8-0.1,1.2-0.3c0.1,0,0.2-0.1,0.3-0.1c0.3,0,0.6,0.3,0.6,0.6c0,0.2-0.1,0.4-0.3,0.5c-0.6,0.3-1.2,0.5-1.9,0.5
				c-1.8,0-3.1-1.2-3.1-3C310,754,311.2,752.6,313,752.6z M311.6,755.1h2.9c0-0.6-0.4-1.3-1.4-1.3
				C312,753.9,311.6,754.6,311.6,755.1z M313.1,751.8c-0.2,0-0.4-0.2-0.4-0.4c0-0.1,0-0.2,0.1-0.3l1.1-1.2c0.1-0.1,0.2-0.2,0.3-0.2
				c0.2,0,0.5,0.2,0.5,0.5c0,0.1,0,0.2-0.2,0.3l-1.2,1C313.3,751.7,313.2,751.8,313.1,751.8z"/>
			<path class="st2" d="M320.5,753.4c0,0.4-0.2,0.7-0.7,0.8c-0.4,0-1,0.3-1.2,0.6v3.1c0,0.4-0.3,0.8-0.8,0.8c-0.4,0-0.8-0.3-0.8-0.8
				v-4.4c0-0.4,0.3-0.8,0.8-0.8c0.4,0,0.8,0.3,0.8,0.8l0,0.1c0.3-0.3,0.6-0.7,0.9-0.8c0.1-0.1,0.3-0.1,0.4-0.1
				C320.2,752.7,320.5,753,320.5,753.4z"/>
			<path class="st2" d="M321.1,750.9c0-0.5,0.4-0.9,0.9-0.9c0.5,0,0.9,0.4,0.9,0.9c0,0.5-0.4,0.9-0.9,0.9
				C321.6,751.8,321.1,751.4,321.1,750.9z M321.3,757.9v-4.4c0-0.4,0.3-0.8,0.8-0.8c0.4,0,0.8,0.3,0.8,0.8v4.4
				c0,0.4-0.3,0.8-0.8,0.8C321.6,758.7,321.3,758.3,321.3,757.9z"/>
			<path class="st2" d="M326.9,752.6c1.7,0,2.9,1.3,2.9,2.8c0,0.5-0.3,0.7-0.9,0.7h-3.4c0.1,0.7,0.7,1.3,1.7,1.3
				c0.4,0,0.8-0.1,1.2-0.3c0.1,0,0.2-0.1,0.3-0.1c0.3,0,0.6,0.3,0.6,0.6c0,0.2-0.1,0.4-0.3,0.5c-0.6,0.3-1.2,0.5-1.9,0.5
				c-1.8,0-3.1-1.2-3.1-3C323.9,754,325.2,752.6,326.9,752.6z M325.5,755.1h2.9c0-0.6-0.4-1.3-1.4-1.3
				C326,753.9,325.6,754.6,325.5,755.1z"/>
			<path class="st2" d="M336.4,753.5v4.4c0,0.4-0.3,0.8-0.8,0.8c-0.4,0-0.8-0.3-0.8-0.8v0c-0.4,0.4-1.1,0.9-2,0.9
				c-1.3,0-1.9-0.7-1.9-1.8v-3.4c0-0.4,0.3-0.8,0.8-0.8c0.4,0,0.8,0.3,0.8,0.8v2.8c0,0.8,0.4,1.1,1.1,1.1c0.6,0,1.1-0.3,1.3-0.7
				v-3.2c0-0.4,0.3-0.8,0.8-0.8C336,752.7,336.4,753.1,336.4,753.5z"/>
			<path class="st2" d="M341.4,753.4c0,0.4-0.2,0.7-0.7,0.8c-0.4,0-1,0.3-1.2,0.6v3.1c0,0.4-0.3,0.8-0.8,0.8c-0.4,0-0.8-0.3-0.8-0.8
				v-4.4c0-0.4,0.3-0.8,0.8-0.8c0.4,0,0.8,0.3,0.8,0.8l0,0.1c0.3-0.3,0.6-0.7,0.9-0.8c0.1-0.1,0.3-0.1,0.4-0.1
				C341.1,752.7,341.4,753,341.4,753.4z"/>
			<path class="st2" d="M346,752.7c0.5,0,1,0.4,1,1s-0.4,1-1,1s-1-0.4-1-1S345.5,752.7,346,752.7z M346,756.8c0.5,0,1,0.4,1,1
				c0,0.5-0.4,1-1,1s-1-0.4-1-1C345.1,757.2,345.5,756.8,346,756.8z"/>
			<path class="st2" d="M295.7,769.7c0-0.3,0.2-0.6,0.4-0.7c3-2.2,3.9-3,3.9-4c0-0.7-0.6-1-1.3-1c-0.7,0-1.2,0.2-1.7,0.5
				c-0.1,0.1-0.3,0.1-0.4,0.1c-0.4,0-0.8-0.3-0.8-0.8c0-0.3,0.1-0.5,0.3-0.6c0.7-0.6,1.7-0.8,2.5-0.8c1.7,0,3.1,1,3.1,2.6
				c0,1.4-1.1,2.6-3.3,4.1h2.7c0.4,0,0.8,0.3,0.8,0.7c0,0.4-0.3,0.8-0.8,0.8h-4.5C296.1,770.5,295.7,770.2,295.7,769.7z"/>
			<path class="st2" d="M304.8,769.8v-5l-0.9,0.9c-0.1,0.1-0.3,0.2-0.5,0.2c-0.4,0-0.7-0.3-0.7-0.7c0-0.2,0.1-0.4,0.2-0.5l1.9-1.9
				c0.2-0.2,0.4-0.3,0.7-0.3c0.5,0,1,0.4,1,1v6.3c0,0.5-0.4,0.9-0.9,0.9C305.2,770.6,304.8,770.2,304.8,769.8z"/>
			<path class="st2" d="M308.8,768.7c0.5,0,1,0.4,1,1c0,0.5-0.4,1-1,1s-1-0.4-1-1C307.9,769.2,308.3,768.7,308.8,768.7z"/>
			<path class="st2" d="M311.3,769.6c0-0.4,0.3-0.7,0.7-0.7c0.1,0,0.2,0,0.3,0.1c0.3,0.2,0.7,0.3,1.1,0.3c1.3,0,2-1.1,2-2.3v-0.2
				c-0.4,0.5-1.2,1-2.1,1c-1.4,0-2.7-0.9-2.7-2.6c0-1.6,1.2-2.7,3.1-2.7c2.4,0,3.4,1.9,3.4,4.1c0,2.4-1.4,4.1-3.7,4.1
				c-0.7,0-1.3-0.2-1.8-0.5C311.5,770.1,311.3,769.9,311.3,769.6z M313.9,763.9c-0.9,0-1.4,0.6-1.4,1.2c0,0.9,0.7,1.2,1.5,1.2
				c0.6,0,1.2-0.3,1.6-0.7C315.4,764.8,315,763.9,313.9,763.9z"/>
			<path class="st2" d="M317.9,764.1c0-0.9,0.7-1.6,1.6-1.6s1.6,0.7,1.6,1.6c0,0.9-0.7,1.6-1.6,1.6S317.9,765,317.9,764.1z
				 M318.7,764.1c0,0.4,0.3,0.8,0.8,0.8c0.4,0,0.8-0.3,0.8-0.8c0-0.4-0.4-0.8-0.8-0.8C319,763.3,318.7,763.6,318.7,764.1z"/>
			<path class="st2" d="M321.8,766.6c0-2.5,1.9-4.1,4.2-4.1c1.3,0,2.2,0.5,2.8,1.2c0.1,0.1,0.2,0.3,0.2,0.5c0,0.4-0.4,0.8-0.8,0.8
				c-0.2,0-0.5-0.1-0.6-0.3c-0.4-0.4-1-0.7-1.6-0.7c-1.4,0-2.4,1.1-2.4,2.6c0,1.5,1.1,2.6,2.4,2.6c0.7,0,1.2-0.3,1.7-0.8
				c0.1-0.2,0.4-0.3,0.6-0.3c0.4,0,0.8,0.4,0.8,0.8c0,0.2-0.1,0.4-0.2,0.5c-0.6,0.7-1.5,1.2-2.8,1.2
				C323.6,770.7,321.8,769,321.8,766.6z"/>
			<path class="st2" d="M351.6,769.9c-0.2-0.1-0.3-0.4-0.3-0.6c0-0.4,0.3-0.7,0.8-0.7c0.1,0,0.3,0,0.4,0.1c0.5,0.4,1.2,0.5,1.7,0.5
				c1,0,1.5-0.4,1.5-1c0-0.6-0.5-0.9-1.6-0.9h-0.3c-0.4,0-0.7-0.3-0.7-0.7c0-0.4,0.3-0.7,0.7-0.7h0.3c0.9,0,1.5-0.3,1.5-0.9
				c0-0.6-0.6-1-1.5-1c-0.6,0-1.1,0.2-1.6,0.5c-0.1,0.1-0.2,0.1-0.4,0.1c-0.4,0-0.7-0.3-0.7-0.7c0-0.2,0.1-0.4,0.3-0.6
				c0.6-0.5,1.5-0.8,2.6-0.8c1.9,0,3,0.8,3,2.2c0,1-0.9,1.7-1.7,1.8c0.8,0.1,1.9,0.7,1.9,1.9c0,1.4-1.2,2.3-3.1,2.3
				C353.1,770.7,352.2,770.4,351.6,769.9z"/>
			<path class="st2" d="M359.6,769.8c0-0.1,0-0.2,0.1-0.3l2.4-5.4h-3.4c-0.4,0-0.8-0.3-0.8-0.7c0-0.4,0.3-0.8,0.8-0.8h4.6
				c0.4,0,0.8,0.4,0.8,0.8c0,0.1,0,0.2-0.1,0.3l-2.8,6.4c-0.1,0.3-0.4,0.5-0.8,0.5C360,770.6,359.6,770.2,359.6,769.8z"/>
			<path class="st2" d="M364.6,764.5c0-1.1,0.8-2,2-2c1.2,0,2,0.9,2,2c0,1.1-0.8,2-2,2C365.4,766.4,364.6,765.6,364.6,764.5z
				 M367.6,764.5c0-0.7-0.4-1.1-0.9-1.1c-0.5,0-0.9,0.4-0.9,1.1c0,0.7,0.4,1.1,0.9,1.1C367.2,765.6,367.6,765.1,367.6,764.5z
				 M366.1,770.2c0-0.1,0-0.1,0.1-0.2l4.7-7.4c0.1-0.1,0.2-0.2,0.3-0.2c0.2,0,0.4,0.2,0.4,0.4c0,0.1,0,0.1-0.1,0.2l-4.7,7.4
				c-0.1,0.1-0.2,0.2-0.3,0.2C366.3,770.6,366.1,770.5,366.1,770.2z M369,768.7c0-1.1,0.8-2,2-2c1.2,0,2,0.9,2,2c0,1.1-0.8,2-2,2
				C369.8,770.7,369,769.8,369,768.7z M372,768.7c0-0.7-0.4-1.1-1-1.1c-0.6,0-0.9,0.4-0.9,1.1c0,0.7,0.4,1.1,0.9,1.1
				C371.6,769.9,372,769.4,372,768.7z"/>
		</g>
		<g>
			<path class="st2" d="M405.4,757.7v-6.2c0-0.6,0.3-0.9,0.9-0.9h4.1c0.4,0,0.7,0.3,0.7,0.7c0,0.4-0.3,0.7-0.7,0.7h-3.3v1.7h3.2
				c0.4,0,0.7,0.3,0.7,0.7c0,0.4-0.3,0.7-0.7,0.7h-3.2v1.9h3.3c0.4,0,0.7,0.3,0.7,0.7c0,0.4-0.3,0.7-0.7,0.7h-4.1
				C405.7,758.6,405.4,758.3,405.4,757.7z"/>
			<path class="st2" d="M417.2,758c0,0.3-0.3,0.7-0.7,0.7c-0.2,0-0.4-0.1-0.5-0.2l-1.5-1.8l-1.4,1.8c-0.1,0.2-0.3,0.3-0.5,0.3
				c-0.4,0-0.7-0.4-0.7-0.7c0-0.2,0.1-0.3,0.2-0.5l1.6-1.9l-1.5-1.7c-0.1-0.1-0.2-0.3-0.2-0.5c0-0.4,0.3-0.7,0.7-0.7
				c0.2,0,0.4,0,0.5,0.2l1.4,1.6l1.4-1.6c0.1-0.2,0.3-0.2,0.5-0.2c0.4,0,0.7,0.3,0.7,0.7c0,0.2-0.1,0.3-0.2,0.5l-1.5,1.7l1.6,1.9
				C417.1,757.6,417.2,757.8,417.2,758z"/>
			<path class="st2" d="M421.5,758c0,0.3-0.2,0.5-0.5,0.6c-0.2,0.1-0.5,0.1-0.8,0.1c-1.1,0-1.6-0.6-1.6-1.6v-3h-0.4
				c-0.4,0-0.7-0.3-0.7-0.7c0-0.4,0.3-0.7,0.7-0.7h0.4v-0.9c0-0.4,0.3-0.8,0.8-0.8c0.4,0,0.8,0.3,0.8,0.8v0.9h0.6
				c0.4,0,0.7,0.3,0.7,0.7c0,0.4-0.3,0.7-0.7,0.7h-0.6v2.6c0,0.4,0.2,0.6,0.5,0.6c0.1,0,0.2,0,0.3,0
				C421.2,757.4,421.5,757.6,421.5,758z"/>
			<path class="st2" d="M424.9,752.6c1.7,0,2.9,1.3,2.9,2.8c0,0.5-0.3,0.7-0.9,0.7h-3.4c0.1,0.7,0.7,1.3,1.7,1.3
				c0.4,0,0.8-0.1,1.2-0.3c0.1,0,0.2-0.1,0.3-0.1c0.3,0,0.6,0.3,0.6,0.6c0,0.2-0.1,0.4-0.3,0.5c-0.6,0.3-1.2,0.5-1.9,0.5
				c-1.8,0-3.1-1.2-3.1-3C421.9,754,423.2,752.6,424.9,752.6z M423.5,755.1h2.9c0-0.6-0.4-1.3-1.4-1.3
				C424,753.9,423.6,754.6,423.5,755.1z M425,751.8c-0.2,0-0.4-0.2-0.4-0.4c0-0.1,0-0.2,0.1-0.3l1.1-1.2c0.1-0.1,0.2-0.2,0.3-0.2
				c0.2,0,0.5,0.2,0.5,0.5c0,0.1,0,0.2-0.2,0.3l-1.2,1C425.2,751.7,425.1,751.8,425,751.8z"/>
			<path class="st2" d="M432.4,753.4c0,0.4-0.2,0.7-0.7,0.8c-0.4,0-1,0.3-1.2,0.6v3.1c0,0.4-0.3,0.8-0.8,0.8c-0.4,0-0.8-0.3-0.8-0.8
				v-4.4c0-0.4,0.3-0.8,0.8-0.8c0.4,0,0.8,0.3,0.8,0.8l0,0.1c0.3-0.3,0.6-0.7,0.9-0.8c0.1-0.1,0.3-0.1,0.4-0.1
				C432.2,752.7,432.4,753,432.4,753.4z"/>
			<path class="st2" d="M433.1,750.9c0-0.5,0.4-0.9,0.9-0.9c0.5,0,0.9,0.4,0.9,0.9c0,0.5-0.4,0.9-0.9,0.9
				C433.5,751.8,433.1,751.4,433.1,750.9z M433.2,757.9v-4.4c0-0.4,0.3-0.8,0.8-0.8c0.4,0,0.8,0.3,0.8,0.8v4.4
				c0,0.4-0.3,0.8-0.8,0.8C433.6,758.7,433.2,758.3,433.2,757.9z"/>
			<path class="st2" d="M438.9,752.6c1.7,0,2.9,1.3,2.9,2.8c0,0.5-0.3,0.7-0.9,0.7h-3.4c0.1,0.7,0.7,1.3,1.7,1.3
				c0.4,0,0.8-0.1,1.2-0.3c0.1,0,0.2-0.1,0.3-0.1c0.3,0,0.6,0.3,0.6,0.6c0,0.2-0.1,0.4-0.3,0.5c-0.6,0.3-1.2,0.5-1.9,0.5
				c-1.8,0-3.1-1.2-3.1-3C435.9,754,437.1,752.6,438.9,752.6z M437.5,755.1h2.9c0-0.6-0.4-1.3-1.4-1.3
				C437.9,753.9,437.5,754.6,437.5,755.1z"/>
			<path class="st2" d="M448.3,753.5v4.4c0,0.4-0.3,0.8-0.8,0.8c-0.4,0-0.8-0.3-0.8-0.8v0c-0.4,0.4-1.1,0.9-2,0.9
				c-1.3,0-1.9-0.7-1.9-1.8v-3.4c0-0.4,0.3-0.8,0.8-0.8c0.4,0,0.8,0.3,0.8,0.8v2.8c0,0.8,0.4,1.1,1.1,1.1c0.6,0,1.1-0.3,1.3-0.7
				v-3.2c0-0.4,0.3-0.8,0.8-0.8C448,752.7,448.3,753.1,448.3,753.5z"/>
			<path class="st2" d="M453.3,753.4c0,0.4-0.2,0.7-0.7,0.8c-0.4,0-1,0.3-1.2,0.6v3.1c0,0.4-0.3,0.8-0.8,0.8c-0.4,0-0.8-0.3-0.8-0.8
				v-4.4c0-0.4,0.3-0.8,0.8-0.8c0.4,0,0.8,0.3,0.8,0.8l0,0.1c0.3-0.3,0.6-0.7,0.9-0.8c0.1-0.1,0.3-0.1,0.4-0.1
				C453.1,752.7,453.3,753,453.3,753.4z"/>
			<path class="st2" d="M458,752.7c0.5,0,1,0.4,1,1s-0.4,1-1,1s-1-0.4-1-1S457.5,752.7,458,752.7z M458,756.8c0.5,0,1,0.4,1,1
				c0,0.5-0.4,1-1,1s-1-0.4-1-1C457,757.2,457.5,756.8,458,756.8z"/>
			<path class="st2" d="M407,769.8v-5l-0.9,0.9c-0.1,0.1-0.3,0.2-0.5,0.2c-0.4,0-0.7-0.3-0.7-0.7c0-0.2,0.1-0.4,0.2-0.5l1.9-1.9
				c0.2-0.2,0.4-0.3,0.7-0.3c0.5,0,1,0.4,1,1v6.3c0,0.5-0.4,0.9-0.9,0.9C407.3,770.6,407,770.2,407,769.8z"/>
			<path class="st2" d="M411.8,769.8v-5l-0.9,0.9c-0.1,0.1-0.3,0.2-0.5,0.2c-0.4,0-0.7-0.3-0.7-0.7c0-0.2,0.1-0.4,0.2-0.5l1.9-1.9
				c0.2-0.2,0.4-0.3,0.7-0.3c0.5,0,1,0.4,1,1v6.3c0,0.5-0.4,0.9-0.9,0.9C412.2,770.6,411.8,770.2,411.8,769.8z"/>
			<path class="st2" d="M415.9,768.7c0.5,0,1,0.4,1,1c0,0.5-0.4,1-1,1s-1-0.4-1-1C414.9,769.2,415.3,768.7,415.9,768.7z"/>
			<path class="st2" d="M418.4,769.6c0-0.4,0.3-0.7,0.7-0.7c0.1,0,0.2,0,0.3,0.1c0.3,0.2,0.7,0.3,1.1,0.3c1.3,0,2-1.1,2-2.3v-0.2
				c-0.4,0.5-1.2,1-2.1,1c-1.4,0-2.7-0.9-2.7-2.6c0-1.6,1.2-2.7,3.1-2.7c2.4,0,3.4,1.9,3.4,4.1c0,2.4-1.4,4.1-3.7,4.1
				c-0.7,0-1.3-0.2-1.8-0.5C418.5,770.1,418.4,769.9,418.4,769.6z M420.9,763.9c-0.9,0-1.4,0.6-1.4,1.2c0,0.9,0.7,1.2,1.5,1.2
				c0.6,0,1.2-0.3,1.6-0.7C422.5,764.8,422,763.9,420.9,763.9z"/>
			<path class="st2" d="M424.9,764.1c0-0.9,0.7-1.6,1.6-1.6c0.9,0,1.6,0.7,1.6,1.6c0,0.9-0.7,1.6-1.6,1.6
				C425.6,765.7,424.9,765,424.9,764.1z M425.8,764.1c0,0.4,0.3,0.8,0.8,0.8c0.4,0,0.8-0.3,0.8-0.8c0-0.4-0.4-0.8-0.8-0.8
				C426.1,763.3,425.8,763.6,425.8,764.1z"/>
			<path class="st2" d="M428.8,766.6c0-2.5,1.9-4.1,4.2-4.1c1.3,0,2.2,0.5,2.8,1.2c0.1,0.1,0.2,0.3,0.2,0.5c0,0.4-0.4,0.8-0.8,0.8
				c-0.2,0-0.5-0.1-0.6-0.3c-0.4-0.4-1-0.7-1.6-0.7c-1.4,0-2.4,1.1-2.4,2.6c0,1.5,1.1,2.6,2.4,2.6c0.7,0,1.2-0.3,1.7-0.8
				c0.1-0.2,0.4-0.3,0.6-0.3c0.4,0,0.8,0.4,0.8,0.8c0,0.2-0.1,0.4-0.2,0.5c-0.6,0.7-1.5,1.2-2.8,1.2
				C430.7,770.7,428.8,769,428.8,766.6z"/>
			<path class="st2" d="M462.1,762.4c0.7,0,1.3,0.2,1.8,0.5c0.2,0.1,0.4,0.4,0.4,0.6c0,0.4-0.3,0.7-0.7,0.7c-0.1,0-0.3,0-0.3-0.1
				c-0.3-0.2-0.7-0.3-1.1-0.3c-1.2,0-2,1-2,2.3c0,0.1,0,0.1,0,0.2c0.4-0.5,1.2-1,2-1c1.4,0,2.7,0.9,2.7,2.6c0,1.6-1.2,2.7-3.1,2.7
				c-2.4,0-3.4-1.9-3.4-4.1C458.4,764.2,459.7,762.4,462.1,762.4z M461.7,766.8c-0.6,0-1.2,0.3-1.6,0.8c0.1,0.8,0.5,1.7,1.6,1.7
				c0.9,0,1.4-0.6,1.4-1.2C463.2,767.2,462.4,766.8,461.7,766.8z"/>
			<path class="st2" d="M469.4,762.4c0.7,0,1.3,0.2,1.8,0.5c0.2,0.1,0.4,0.4,0.4,0.6c0,0.4-0.3,0.7-0.7,0.7c-0.1,0-0.3,0-0.3-0.1
				c-0.3-0.2-0.7-0.3-1.1-0.3c-1.2,0-2,1-2,2.3c0,0.1,0,0.1,0,0.2c0.4-0.5,1.2-1,2-1c1.4,0,2.7,0.9,2.7,2.6c0,1.6-1.2,2.7-3.1,2.7
				c-2.4,0-3.4-1.9-3.4-4.1C465.7,764.2,467,762.4,469.4,762.4z M468.9,766.8c-0.6,0-1.2,0.3-1.6,0.8c0.1,0.8,0.5,1.7,1.6,1.7
				c0.9,0,1.4-0.6,1.4-1.2C470.4,767.2,469.7,766.8,468.9,766.8z"/>
			<path class="st2" d="M472.8,764.5c0-1.1,0.8-2,2-2c1.2,0,2,0.9,2,2c0,1.1-0.8,2-2,2C473.6,766.4,472.8,765.6,472.8,764.5z
				 M475.8,764.5c0-0.7-0.4-1.1-0.9-1.1c-0.5,0-0.9,0.4-0.9,1.1c0,0.7,0.4,1.1,0.9,1.1C475.4,765.6,475.8,765.1,475.8,764.5z
				 M474.3,770.2c0-0.1,0-0.1,0.1-0.2l4.7-7.4c0.1-0.1,0.2-0.2,0.3-0.2c0.2,0,0.4,0.2,0.4,0.4c0,0.1,0,0.1-0.1,0.2l-4.7,7.4
				c-0.1,0.1-0.2,0.2-0.3,0.2C474.5,770.6,474.3,770.5,474.3,770.2z M477.2,768.7c0-1.1,0.8-2,2-2c1.2,0,2,0.9,2,2c0,1.1-0.8,2-2,2
				C478,770.7,477.2,769.8,477.2,768.7z M480.2,768.7c0-0.7-0.4-1.1-1-1.1c-0.6,0-0.9,0.4-0.9,1.1c0,0.7,0.4,1.1,0.9,1.1
				C479.8,769.9,480.2,769.4,480.2,768.7z"/>
		</g>
		<g>
			<path class="st2" d="M348.2,767.7c0-1.7-3.1-5.2-3.1-5.2s-3.1,3.5-3.1,5.2c0,1.7,1.4,3.1,3.1,3.1
				C346.8,770.8,348.2,769.4,348.2,767.7z"/>
		</g>
		<g>
			<path class="st2" d="M455.6,767.7c0-1.7-3.1-5.2-3.1-5.2s-3.1,3.5-3.1,5.2c0,1.7,1.4,3.1,3.1,3.1
				C454.2,770.8,455.6,769.4,455.6,767.7z"/>
		</g>
		<g>
			<path class="st2" d="M401.6,478.9c0-1.4-1.1-2.5-2.5-2.5c-0.9,0-1.7,0.5-2.1,1.2v-0.1c0-1.4-1.1-2.5-2.5-2.5
				c-0.9,0-1.7,0.5-2.1,1.1v0c0-1.4-1.1-2.5-2.5-2.5c-0.9,0-1.7,0.5-2.1,1.1v-8.3c0-0.7-0.2-1.3-0.7-1.8c-0.5-0.5-1.1-0.7-1.8-0.7
				l0,0c-1.4,0-2.5,1.1-2.5,2.5v15.4c0,0.2-0.1,0.2-0.2,0.3c-0.1,0-0.3,0-0.4-0.1l-2.5-2.5c-0.9-0.9-2.2-1-3.2-0.3
				c-0.6,0.4-1,1-1.1,1.7c-0.1,0.7,0.1,1.4,0.6,2l6.3,7.6c1.8,2.2,4.4,3.4,7.2,3.4h3.9c2.2,0,4.3-0.9,5.8-2.4
				c1.6-1.6,2.4-3.6,2.4-5.8V478.9z"/>
		</g>
		<g>
			<path class="st2" d="M483.5,420.1l-0.5-5.6c-0.1-0.6-0.5-1-1-1c-0.2,0-0.4,0.1-0.7,0.3l-1.4,1.3c-3.4-3.3-8.9-3.3-12.3,0.1
				c-1.7,1.7-2.6,3.9-2.6,6.2c0,2.4,0.9,4.6,2.6,6.2c1.7,1.7,3.9,2.6,6.2,2.6c2.4,0,4.6-0.9,6.2-2.6c0.5-0.5,1-1.2,1.4-1.8
				c0.4-0.7,0.2-1.7-0.6-2.1c-0.7-0.4-1.7-0.2-2.1,0.6c-0.3,0.4-0.6,0.8-0.9,1.2c-1.1,1.1-2.5,1.7-4.1,1.7c-1.5,0-3-0.6-4.1-1.7
				c-1.1-1.1-1.7-2.5-1.7-4.1c0-1.5,0.6-3,1.7-4.1c2.2-2.2,5.6-2.2,7.9-0.2l-1.4,1.2c-0.3,0.3-0.5,0.7-0.4,1
				c0.1,0.4,0.4,0.6,0.8,0.7l5.5,1.2c0.1,0,0.2,0,0.3,0c0.3,0,0.6-0.1,0.8-0.4C483.4,420.8,483.5,420.5,483.5,420.1z"/>
		</g>
	</g>
</g>
</svg>
