<?xml version="1.0" encoding="utf-8"?>
<!-- Generator: Adobe Illustrator 24.0.3, SVG Export Plug-In . SVG Version: 6.00 Build 0)  -->
<svg version="1.1" id="Layer_1" xmlns="http://www.w3.org/2000/svg" xmlns:xlink="http://www.w3.org/1999/xlink" x="0px" y="0px"
	 viewBox="0 0 777 777" style="enable-background:new 0 0 777 777;" xml:space="preserve">
<style type="text/css">
	.st0{fill:#FFA619;}
	.st1{fill:#FFFFFF;}
	.st2{fill:#EAEAEA;}
	.st3{fill:#9EE3CD;}
	.st4{fill:#274156;}
	.st5{fill:#3EC79C;}
	.st6{fill:#A9A9A9;}
	.st7{fill:#E8E8E8;}
	.st8{fill:#C2C2C2;}
	.st9{fill:#8F8F8F;}
	.st10{fill:none;stroke:#808080;stroke-width:3;stroke-linecap:round;stroke-miterlimit:10;}
	.st11{fill:#27C3EB;stroke:#808080;stroke-width:3;stroke-linecap:round;stroke-miterlimit:10;}
	.st12{fill:#FF7BA3;}
	.st13{font-family:'ProximaSoft-Bold';}
	.st14{font-size:55.7207px;}
</style>
<rect class="st0" width="777" height="777"/>
<path class="st1" d="M608,720.9H169c-1.1,0-2-0.9-2-2V68.3c0-2.2,1.8-4,4-4H608c1.1,0,2,0.9,2,2v652.6
	C610,720,609.1,720.9,608,720.9z"/>
<g>
	<g>
		<path class="st2" d="M434.7,258.7c0,23.8-21.1,60.8-47.1,60.8c-26,0-47.1-36.9-47.1-60.8s21.1-43.1,47.1-43.1
			C413.6,215.5,434.7,234.8,434.7,258.7z"/>
	</g>
	<g>
		<g>
			<path class="st2" d="M379.5,145.2c2.6,15.1,3.8,91-6.3,92.8c-10.4,1.8-34.4-70.2-37-85.3c-2.6-15.1,2.7-49.2,13.5-51
				S376.9,130,379.5,145.2z"/>
		</g>
		<g>
			<path class="st2" d="M396.1,145.2c-2.6,15.1-3.8,91,6.3,92.8c10.4,1.8,34.4-70.2,37-85.3c2.6-15.1-2.7-49.2-13.5-51
				S398.7,130,396.1,145.2z"/>
		</g>
	</g>
	<g>
		<path class="st3" d="M387.6,294.1c-0.9,0-1.6-0.7-1.6-1.6v-6.1c0-0.9,0.7-1.6,1.6-1.6s1.6,0.7,1.6,1.6v6.1
			C389.2,293.3,388.5,294.1,387.6,294.1z"/>
	</g>
	<g>
		<circle class="st4" cx="371.2" cy="255.7" r="3.9"/>
	</g>
	<g>
		<path class="st5" d="M387.6,288.2c-0.4,0-0.8-0.2-1.1-0.5l-6.9-6.9c-0.6-0.6-0.6-1.6,0-2.3c0.6-0.6,1.6-0.6,2.3,0l5.8,5.8l5.8-5.8
			c0.6-0.6,1.6-0.6,2.3,0c0.6,0.6,0.6,1.6,0,2.3l-6.9,6.9C388.4,288.1,388,288.2,387.6,288.2z"/>
	</g>
	<g>
		<path class="st3" d="M380.4,300.2c-0.9,0-1.6-0.7-1.6-1.6s0.7-1.6,1.6-1.6c3.1,0,5.6-2.5,5.6-5.6c0-0.9,0.7-1.6,1.6-1.6
			s1.6,0.7,1.6,1.6C389.2,296.2,385.2,300.2,380.4,300.2z"/>
	</g>
	<g>
		<path class="st3" d="M394.8,300.2c-4.8,0-8.8-3.9-8.8-8.8c0-0.9,0.7-1.6,1.6-1.6s1.6,0.7,1.6,1.6c0,3.1,2.5,5.6,5.6,5.6
			s5.6-2.5,5.6-5.6c0-0.9,0.7-1.6,1.6-1.6s1.6,0.7,1.6,1.6C403.5,296.2,399.6,300.2,394.8,300.2z"/>
	</g>
	<g>
		<path class="st4" d="M409,258.9h-9.7c-0.9,0-1.6-0.7-1.6-1.6s0.7-1.6,1.6-1.6h9.7c0.9,0,1.6,0.7,1.6,1.6S409.9,258.9,409,258.9z"
			/>
	</g>
	<g>
		<path class="st6" d="M396.4,252.7c-0.4,0-0.7-0.1-1-0.4c-0.7-0.6-0.8-1.6-0.2-2.3c2-2.4,4.7-3.8,7.8-4.1c3.1-0.3,6,0.7,8.4,2.6
			c0.7,0.6,0.8,1.6,0.2,2.3c-0.6,0.7-1.6,0.8-2.3,0.2c-1.7-1.4-3.9-2.1-6.1-1.9c-2.2,0.2-4.2,1.3-5.6,3
			C397.3,252.5,396.8,252.7,396.4,252.7z"/>
	</g>
	<g>
		<path class="st6" d="M379.1,247.9c-0.4,0-0.8-0.2-1.1-0.5c-3.8-3.9-10.1-4-14-0.2c-0.6,0.6-1.6,0.6-2.3,0c-0.6-0.6-0.6-1.6,0-2.3
			c5.2-5,13.5-4.9,18.5,0.2c0.6,0.6,0.6,1.6,0,2.3C379.9,247.8,379.5,247.9,379.1,247.9z"/>
	</g>
	<path class="st0" d="M353.9,190.5l-6.2,40.4c-0.1,0.6,0.4,1.2,1,1.2h11.6c0.6,0,1.1-0.5,1-1.2l-6.2-40.4
		C354.9,189.8,354,189.8,353.9,190.5z"/>
	<path class="st0" d="M367.2,190.5l-6.2,40.4c-0.1,0.6,0.4,1.2,1,1.2h11.6c0.6,0,1.1-0.5,1-1.2l-6.2-40.4
		C368.2,189.8,367.3,189.8,367.2,190.5z"/>
	<path class="st0" d="M380.5,190.5l-6.2,40.4c-0.1,0.6,0.4,1.2,1,1.2h11.6c0.6,0,1.1-0.5,1-1.2l-6.2-40.4
		C381.5,189.8,380.6,189.8,380.5,190.5z"/>
	<path class="st0" d="M393.8,190.5l-6.2,40.4c-0.1,0.6,0.4,1.2,1,1.2h11.6c0.6,0,1.1-0.5,1-1.2l-6.2-40.4
		C394.8,189.8,393.9,189.8,393.8,190.5z"/>
	<path class="st0" d="M407.1,190.5l-6.2,40.4c-0.1,0.6,0.4,1.2,1,1.2h11.6c0.6,0,1.1-0.5,1-1.2l-6.2-40.4
		C408.1,189.8,407.2,189.8,407.1,190.5z"/>
	<path class="st0" d="M420.4,190.5l-6.2,40.4c-0.1,0.6,0.4,1.2,1,1.2h11.6c0.6,0,1.1-0.5,1-1.2l-6.2-40.4
		C421.4,189.8,420.5,189.8,420.4,190.5z"/>
	<path class="st7" d="M504.9,234.9c-0.6-8-7.6-14-15.7-13.4c-8,0.6-14,7.7-13.4,15.7c2.6,32.5-16,62.1-44.4,75.5
		c-5.6,2.6-11.7,4-17.8,4h-69.5c0,0-0.1,0-0.1,0c0,0-0.1,0-0.1,0h-1.8v0.1c-7.1,0.9-12.7,7-12.7,14.4c0,16.5-13.4,30-30,30
		c-16.4,0-29.7-13.2-30-29.5c-0.1-7.6-5.6-14.3-13.2-15c-8.7-0.8-16,6-16,14.5c0,32.6,26.5,59.1,59.1,59.1c16.7,0,31.9-7,42.6-18.2
		v92.3h92.5V343C478.7,326.9,508.7,283.4,504.9,234.9z"/>
	<g>
		<path class="st8" d="M257.9,335.3h18.8c1.2,0,2.3-0.3,3.3-0.8c8.4-4.5,14.2-13.5,14.2-23.7c0-8.4-8.7-23.2-16.2-34.5h-21.5
			c-7.5,11.2-16.2,26-16.2,34.5c0,10.3,5.7,19.2,14.2,23.7C255.6,335,256.8,335.3,257.9,335.3z"/>
		<circle class="st4" cx="267.3" cy="310.8" r="17.8"/>
		<path class="st9" d="M268.2,264.2h-1.8c-0.8,0-1.6,0.4-2.1,1.1c-2.5,3.4-6.1,8.5-9.4,13.4h24.8c-3.3-4.9-6.9-10-9.4-13.4
			C269.9,264.6,269.1,264.2,268.2,264.2z"/>
	</g>
	<g>
		<g>
			<path class="st0" d="M528,220.2c0-0.6,0.2-1.1,0.6-1.5c0.4-0.4,0.9-0.6,1.5-0.6c1.2,0,2.1,0.9,2.1,2.1v16.3
				c0,0.6-0.2,1.1-0.6,1.5c-0.4,0.4-0.9,0.6-1.5,0.6s-1.1-0.2-1.5-0.6c-0.4-0.4-0.6-0.9-0.6-1.5L528,220.2z"/>
			<path class="st0" d="M529.1,237.5c-0.2-0.2-0.4-0.6-0.4-1l0-16.3c0-0.8,0.6-1.4,1.4-1.4c0.8,0,1.4,0.6,1.4,1.4l0,16.3
				c0,0.8-0.6,1.4-1.4,1.4C529.7,237.9,529.4,237.8,529.1,237.5z"/>
		</g>
		<g>
			<path class="st0" d="M528,164.1c0-1.2,0.9-2.1,2.1-2.1c1.2,0,2.1,0.9,2.1,2.1v17.8c0,0.6-0.2,1.1-0.6,1.5
				c-0.4,0.4-0.9,0.6-1.5,0.6s-1.1-0.2-1.5-0.6c-0.4-0.4-0.6-0.9-0.6-1.5L528,164.1z"/>
			<path class="st0" d="M529.1,182.9c-0.2-0.2-0.4-0.6-0.4-1l0-17.8c0-0.8,0.6-1.4,1.4-1.4c0.8,0,1.4,0.6,1.4,1.4l0,17.8
				c0,0.8-0.6,1.4-1.4,1.4C529.7,183.3,529.4,183.2,529.1,182.9z"/>
		</g>
		<g>
			<path class="st0" d="M546.4,200.7c0-1.2,0.9-2.1,2.1-2.1H566c1.2,0,2.1,0.9,2.1,2.1c0,0.6-0.2,1.1-0.6,1.5
				c-0.4,0.4-0.9,0.6-1.5,0.6h-17.5c-0.6,0-1.1-0.2-1.5-0.6C546.6,201.8,546.4,201.2,546.4,200.7L546.4,200.7z"/>
			<path class="st0" d="M547.5,201.6c-0.2-0.2-0.4-0.6-0.4-1c0-0.8,0.6-1.4,1.4-1.4H566c0.8,0,1.4,0.6,1.4,1.4
				c0,0.8-0.6,1.4-1.4,1.4h-17.5C548.1,202,547.8,201.9,547.5,201.6z"/>
		</g>
		<g>
			<path class="st0" d="M491.5,200.7c0-1.2,0.9-2.1,2.1-2.1h16.6c1.2,0,2.1,0.9,2.1,2.1c0,0.6-0.2,1.1-0.6,1.5
				c-0.4,0.4-0.9,0.6-1.5,0.6h-16.6c-0.6,0-1.1-0.2-1.5-0.6C491.7,201.8,491.5,201.2,491.5,200.7L491.5,200.7z"/>
			<path class="st0" d="M492.6,201.6c-0.2-0.2-0.4-0.6-0.4-1c0-0.8,0.6-1.4,1.4-1.4h16.6c0.8,0,1.4,0.6,1.4,1.4
				c0,0.8-0.6,1.4-1.4,1.4h-16.6C493.2,202,492.9,201.9,492.6,201.6z"/>
		</g>
		<g>
			<path class="st0" d="M541.5,213.9c0-0.6,0.2-1.1,0.6-1.5c0.4-0.4,0.9-0.6,1.5-0.6c0.6,0,1.1,0.2,1.5,0.6l12.1,12.1
				c0.4,0.4,0.6,0.9,0.6,1.5c0,0.6-0.2,1.1-0.6,1.5c-0.8,0.8-2.2,0.8-3,0l-12.1-12.1C541.7,215,541.5,214.4,541.5,213.9z"/>
			<path class="st0" d="M554.7,226.9l-12.1-12.1c-0.5-0.5-0.5-1.4,0-1.9s1.4-0.5,1.9,0l12.1,12.1c0.5,0.5,0.5,1.4,0,1.9
				S555.3,227.4,554.7,226.9z"/>
		</g>
		<g>
			<path class="st0" d="M502.4,174.7c0-0.6,0.2-1.1,0.6-1.5c0.8-0.8,2.2-0.8,3,0l12.1,12.1c0.4,0.4,0.6,0.9,0.6,1.5
				c0,0.6-0.2,1.1-0.6,1.5c-0.8,0.8-2.2,0.8-3,0L503,176.2C502.6,175.8,502.4,175.3,502.4,174.7z"/>
			<path class="st0" d="M515.6,187.8l-12.1-12.1c-0.5-0.5-0.5-1.4,0-1.9s1.4-0.5,1.9,0l12.1,12.1c0.5,0.5,0.5,1.4,0,1.9
				S516.1,188.3,515.6,187.8z"/>
		</g>
		<g>
			<path class="st0" d="M540.8,187.5c0-0.6,0.2-1.1,0.6-1.5l12.5-12.5c0.8-0.8,2.2-0.8,3,0c0.4,0.4,0.6,0.9,0.6,1.5
				c0,0.6-0.2,1.1-0.6,1.5L544.4,189c-0.8,0.8-2.2,0.8-3,0C541,188.6,540.8,188.1,540.8,187.5z"/>
			<path class="st0" d="M541.9,188.5c-0.5-0.5-0.5-1.4,0-1.9l12.5-12.5c0.5-0.5,1.4-0.5,1.9,0s0.5,1.4,0,1.9l-12.5,12.5
				C543.3,189,542.5,189,541.9,188.5z"/>
		</g>
		<g>
			<path class="st4" d="M464.4,269.1l-3.1-3.1c-0.7-0.7-0.7-1.9,0-2.7l56.6-56.6l5.8,5.8l-56.6,56.6
				C466.3,269.9,465.1,269.9,464.4,269.1z"/>
		</g>
		<g>
			<path class="st5" d="M523.7,212.5l-5.8-5.8l11.5-11.5c0.7-0.7,1.9-0.7,2.7,0l3.1,3.1c0.7,0.7,0.7,1.9,0,2.7L523.7,212.5z"/>
		</g>
	</g>
	<g>
		<path class="st2" d="M342.3,528.7c0-23.8,21.1-60.8,47.1-60.8c26,0,47.1,36.9,47.1,60.8s-21.1,43.1-47.1,43.1
			C363.4,571.8,342.3,552.5,342.3,528.7z"/>
	</g>
	<g>
		<g>
			<path class="st2" d="M397.5,642.2c-2.6-15.1-3.8-91,6.3-92.8c10.4-1.8,34.4,70.2,37,85.3c2.6,15.1-2.7,49.2-13.5,51
				S400.1,657.3,397.5,642.2z"/>
		</g>
		<g>
			<path class="st2" d="M380.9,642.2c2.6-15.1,3.8-91-6.3-92.8c-10.4-1.8-34.4,70.2-37,85.3s2.7,49.2,13.5,51
				S378.3,657.3,380.9,642.2z"/>
		</g>
	</g>
	<g>
		<path class="st3" d="M389.4,493.3c0.9,0,1.6,0.7,1.6,1.6v6.1c0,0.9-0.7,1.6-1.6,1.6s-1.6-0.7-1.6-1.6v-6.1
			C387.8,494,388.5,493.3,389.4,493.3z"/>
	</g>
	<g>
		<circle class="st4" cx="405.8" cy="531.6" r="3.9"/>
	</g>
	<g>
		<path class="st5" d="M389.4,499.1c0.4,0,0.8,0.2,1.1,0.5l6.9,6.9c0.6,0.6,0.6,1.6,0,2.3c-0.6,0.6-1.6,0.6-2.3,0l-5.8-5.8l-5.8,5.8
			c-0.6,0.6-1.6,0.6-2.3,0c-0.6-0.6-0.6-1.6,0-2.3l6.9-6.9C388.6,499.3,389,499.1,389.4,499.1z"/>
	</g>
	<g>
		<path class="st3" d="M396.6,487.2c0.9,0,1.6,0.7,1.6,1.6c0,0.9-0.7,1.6-1.6,1.6c-3.1,0-5.6,2.5-5.6,5.6c0,0.9-0.7,1.6-1.6,1.6
			s-1.6-0.7-1.6-1.6C387.8,491.1,391.8,487.2,396.6,487.2z"/>
	</g>
	<g>
		<path class="st3" d="M382.2,487.2c4.8,0,8.8,3.9,8.8,8.8c0,0.9-0.7,1.6-1.6,1.6s-1.6-0.7-1.6-1.6c0-3.1-2.5-5.6-5.6-5.6
			s-5.6,2.5-5.6,5.6c0,0.9-0.7,1.6-1.6,1.6s-1.6-0.7-1.6-1.6C373.5,491.1,377.4,487.2,382.2,487.2z"/>
	</g>
	<g>
		<path class="st4" d="M368,528.5h9.7c0.9,0,1.6,0.7,1.6,1.6s-0.7,1.6-1.6,1.6H368c-0.9,0-1.6-0.7-1.6-1.6S367.1,528.5,368,528.5z"
			/>
	</g>
	<g>
		<path class="st6" d="M380.6,534.6c0.4,0,0.7,0.1,1,0.4c0.7,0.6,0.8,1.6,0.2,2.3c-2,2.4-4.7,3.8-7.8,4.1c-3.1,0.3-6-0.7-8.4-2.6
			c-0.7-0.6-0.8-1.6-0.2-2.3c0.6-0.7,1.6-0.8,2.3-0.2c1.7,1.4,3.9,2.1,6.1,1.9c2.2-0.2,4.2-1.2,5.6-3
			C379.7,534.8,380.2,534.6,380.6,534.6z"/>
	</g>
	<g>
		<path class="st6" d="M397.9,539.4c0.4,0,0.8,0.2,1.1,0.5c3.8,3.9,10.1,4,14,0.2c0.6-0.6,1.6-0.6,2.3,0c0.6,0.6,0.6,1.6,0,2.3
			c-5.2,5-13.5,4.9-18.5-0.2c-0.6-0.6-0.6-1.6,0-2.3C397.1,539.6,397.5,539.4,397.9,539.4z"/>
	</g>
	<path class="st0" d="M423.1,596.9l6.2-40.4c0.1-0.6-0.4-1.2-1-1.2h-11.6c-0.6,0-1.1,0.5-1,1.2l6.2,40.4
		C422.1,597.5,423,597.5,423.1,596.9z"/>
	<path class="st0" d="M409.8,596.9l6.2-40.4c0.1-0.6-0.4-1.2-1-1.2h-11.6c-0.6,0-1.1,0.5-1,1.2l6.2,40.4
		C408.8,597.5,409.7,597.5,409.8,596.9z"/>
	<path class="st0" d="M396.5,596.9l6.2-40.4c0.1-0.6-0.4-1.2-1-1.2h-11.6c-0.6,0-1.1,0.5-1,1.2l6.2,40.4
		C395.5,597.5,396.4,597.5,396.5,596.9z"/>
	<path class="st0" d="M383.2,596.9l6.2-40.4c0.1-0.6-0.4-1.2-1-1.2h-11.6c-0.6,0-1.1,0.5-1,1.2l6.2,40.4
		C382.2,597.5,383.1,597.5,383.2,596.9z"/>
	<path class="st0" d="M369.9,596.9l6.2-40.4c0.1-0.6-0.4-1.2-1-1.2h-11.6c-0.6,0-1.1,0.5-1,1.2l6.2,40.4
		C368.9,597.5,369.8,597.5,369.9,596.9z"/>
	<path class="st0" d="M356.6,596.9l6.2-40.4c0.1-0.6-0.4-1.2-1-1.2h-11.6c-0.6,0-1.1,0.5-1,1.2l6.2,40.4
		C355.6,597.5,356.5,597.5,356.6,596.9z"/>
	<path class="st7" d="M272.1,552.4c0.6,8,7.6,14,15.7,13.4c8-0.6,14-7.7,13.4-15.7c-2.6-32.5,16-62.1,44.4-75.5
		c5.6-2.6,11.7-4,17.8-4h69.5c0,0,0.1,0,0.1,0c0,0,0.1,0,0.1,0h1.8v-0.1c7.1-0.9,12.7-7,12.7-14.4c0-16.5,13.4-30,30-30
		c16.4,0,29.7,13.2,30,29.5c0.1,7.6,5.6,14.3,13.2,15c8.7,0.8,16-6,16-14.5c0-32.6-26.5-59.1-59.1-59.1c-16.7,0-31.9,7-42.6,18.2
		v-92.3h-92.5v121.5C298.3,460.4,268.3,504,272.1,552.4z"/>
	<g>
		<path class="st8" d="M519.1,452.1h-18.8c-1.2,0-2.3,0.3-3.3,0.8c-8.4,4.5-14.2,13.5-14.2,23.7c0,8.4,8.7,23.2,16.2,34.5h21.5
			c7.5-11.2,16.2-26,16.2-34.5c0-10.3-5.7-19.2-14.2-23.7C521.4,452.4,520.2,452.1,519.1,452.1z"/>
		<circle class="st4" cx="509.7" cy="476.6" r="17.8"/>
		<path class="st9" d="M508.8,523.1h1.8c0.8,0,1.6-0.4,2.1-1.1c2.5-3.4,6.1-8.5,9.4-13.4h-24.8c3.3,4.9,6.9,10,9.4,13.4
			C507.1,522.7,507.9,523.1,508.8,523.1z"/>
	</g>
	<g>
		<g>
			<path class="st0" d="M249,567.1c0,0.6-0.2,1.1-0.6,1.5c-0.4,0.4-0.9,0.6-1.5,0.6c-1.2,0-2.1-0.9-2.1-2.1v-16.3
				c0-0.6,0.2-1.1,0.6-1.5s0.9-0.6,1.5-0.6s1.1,0.2,1.5,0.6c0.4,0.4,0.6,0.9,0.6,1.5L249,567.1z"/>
			<path class="st0" d="M247.9,549.8c0.2,0.2,0.4,0.6,0.4,1l0,16.3c0,0.8-0.6,1.4-1.4,1.4c-0.8,0-1.4-0.6-1.4-1.4l0-16.3
				c0-0.8,0.6-1.4,1.4-1.4C247.3,549.4,247.6,549.6,247.9,549.8z"/>
		</g>
		<g>
			<path class="st0" d="M249,623.2c0,1.2-0.9,2.1-2.1,2.1s-2.1-0.9-2.1-2.1v-17.8c0-0.6,0.2-1.1,0.6-1.5s0.9-0.6,1.5-0.6
				s1.1,0.2,1.5,0.6c0.4,0.4,0.6,0.9,0.6,1.5L249,623.2z"/>
			<path class="st0" d="M247.9,604.4c0.2,0.2,0.4,0.6,0.4,1l0,17.8c0,0.8-0.6,1.4-1.4,1.4c-0.8,0-1.4-0.6-1.4-1.4l0-17.8
				c0-0.8,0.6-1.4,1.4-1.4C247.3,604,247.6,604.2,247.9,604.4z"/>
		</g>
		<g>
			<path class="st0" d="M230.6,586.7c0,1.2-0.9,2.1-2.1,2.1H211c-1.2,0-2.1-0.9-2.1-2.1c0-0.6,0.2-1.1,0.6-1.5
				c0.4-0.4,0.9-0.6,1.5-0.6h17.5c0.6,0,1.1,0.2,1.5,0.6C230.4,585.6,230.6,586.1,230.6,586.7L230.6,586.7z"/>
			<path class="st0" d="M229.5,585.7c0.2,0.2,0.4,0.6,0.4,1c0,0.8-0.6,1.4-1.4,1.4H211c-0.8,0-1.4-0.6-1.4-1.4
				c0-0.8,0.6-1.4,1.4-1.4h17.5C228.9,585.3,229.2,585.5,229.5,585.7z"/>
		</g>
		<g>
			<path class="st0" d="M285.5,586.7c0,1.2-0.9,2.1-2.1,2.1h-16.6c-1.2,0-2.1-0.9-2.1-2.1c0-0.6,0.2-1.1,0.6-1.5
				c0.4-0.4,0.9-0.6,1.5-0.6h16.6c0.6,0,1.1,0.2,1.5,0.6C285.3,585.6,285.5,586.1,285.5,586.7L285.5,586.7z"/>
			<path class="st0" d="M284.4,585.7c0.2,0.2,0.4,0.6,0.4,1c0,0.8-0.6,1.4-1.4,1.4h-16.6c-0.8,0-1.4-0.6-1.4-1.4
				c0-0.8,0.6-1.4,1.4-1.4h16.6C283.8,585.3,284.1,585.5,284.4,585.7z"/>
		</g>
		<g>
			<path class="st0" d="M235.5,573.5c0,0.6-0.2,1.1-0.6,1.5c-0.4,0.4-0.9,0.6-1.5,0.6s-1.1-0.2-1.5-0.6l-12.1-12.1
				c-0.4-0.4-0.6-0.9-0.6-1.5c0-0.6,0.2-1.1,0.6-1.5c0.8-0.8,2.2-0.8,3,0l12.1,12.1C235.3,572.4,235.5,572.9,235.5,573.5z"/>
			<path class="st0" d="M222.3,560.4l12.1,12.1c0.5,0.5,0.5,1.4,0,1.9s-1.4,0.5-1.9,0l-12.1-12.1c-0.5-0.5-0.5-1.4,0-1.9
				S221.7,559.9,222.3,560.4z"/>
		</g>
		<g>
			<path class="st0" d="M274.6,612.6c0,0.6-0.2,1.1-0.6,1.5c-0.8,0.8-2.2,0.8-3,0l-12.1-12.1c-0.4-0.4-0.6-0.9-0.6-1.5
				c0-0.6,0.2-1.1,0.6-1.5c0.8-0.8,2.2-0.8,3,0l12.1,12.1C274.4,611.5,274.6,612.1,274.6,612.6z"/>
			<path class="st0" d="M261.4,599.6l12.1,12.1c0.5,0.5,0.5,1.4,0,1.9s-1.4,0.5-1.9,0l-12.1-12.1c-0.5-0.5-0.5-1.4,0-1.9
				S260.9,599.1,261.4,599.6z"/>
		</g>
		<g>
			<path class="st0" d="M236.2,599.8c0,0.6-0.2,1.1-0.6,1.5l-12.5,12.5c-0.8,0.8-2.2,0.8-3,0c-0.4-0.4-0.6-0.9-0.6-1.5
				c0-0.6,0.2-1.1,0.6-1.5l12.5-12.5c0.8-0.8,2.2-0.8,3,0C236,598.7,236.2,599.3,236.2,599.8z"/>
			<path class="st0" d="M235.1,598.8c0.5,0.5,0.5,1.4,0,1.9l-12.5,12.5c-0.5,0.5-1.4,0.5-1.9,0c-0.5-0.5-0.5-1.4,0-1.9l12.5-12.5
				C233.7,598.3,234.5,598.3,235.1,598.8z"/>
		</g>
		<g>
			<path class="st4" d="M312.6,518.2l3.1,3.1c0.7,0.7,0.7,1.9,0,2.7l-56.6,56.6l-5.8-5.8l56.6-56.6
				C310.7,517.5,311.9,517.5,312.6,518.2z"/>
		</g>
		<g>
			<path class="st5" d="M253.3,574.8l5.8,5.8l-11.5,11.5c-0.7,0.7-1.9,0.7-2.7,0l-3.1-3.1c-0.7-0.7-0.7-1.9,0-2.7L253.3,574.8z"/>
		</g>
	</g>
</g>
<text transform="matrix(1 0 0 1 193.3643 132.407)" class="st12 st13 st14">K</text>
<text transform="matrix(-1 0 0 -1 582.5713 654.3621)" class="st12 st13 st14">K</text>
</svg>
