<svg enable-background="new 0 0 777 777" viewBox="0 0 777 777" xmlns="http://www.w3.org/2000/svg" xmlns:xlink="http://www.w3.org/1999/xlink"><clipPath id="a"><path d="m0 0h777v777h-777z"/></clipPath><g clip-path="url(#a)"><path d="m0 0h777v590.2h-777z" fill="#a7dff2"/><circle cx="708.6" cy="70" fill="#ffa619" r="33.9"/><path d="m-1.2 353.2h32.2c186.7 0 365.8-74.2 497.9-206.2l50.2-50.2c14.5-14.5 38.1-14.5 52.6 0l145.3 145.5v534.7h-777.2z" fill="#3ec79c"/><path d="m415.6 299h70.4v140.4h-70.4z" fill="#c5eee1"/><g fill="#9ee3cd"><path d="m437.9 304.8h9v10.4h-9z"/><path d="m421.3 304.8h9v10.4h-9z"/><path d="m454.5 304.8h9v10.4h-9z"/><path d="m471.1 304.8h9v10.4h-9z"/><path d="m437.9 321.4h9v10.4h-9z"/><path d="m421.3 321.4h9v10.4h-9z"/><path d="m454.5 321.4h9v10.4h-9z"/><path d="m471.1 321.4h9v10.4h-9z"/><path d="m437.9 337.9h9v10.4h-9z"/><path d="m421.3 337.9h9v10.4h-9z"/><path d="m454.5 337.9h9v10.4h-9z"/><path d="m471.1 337.9h9v10.4h-9z"/><path d="m437.9 354.5h9v10.4h-9z"/><path d="m421.3 354.5h9v10.4h-9z"/><path d="m454.5 354.5h9v10.4h-9z"/><path d="m471.1 354.5h9v10.4h-9z"/><path d="m437.9 371.1h9v10.4h-9z"/><path d="m421.3 371.1h9v10.4h-9z"/><path d="m454.5 371.1h9v10.4h-9z"/><path d="m471.1 371.1h9v10.4h-9z"/><path d="m437.9 387.7h9v10.4h-9z"/><path d="m421.3 387.7h9v10.4h-9z"/><path d="m454.5 387.7h9v10.4h-9z"/><path d="m471.1 387.7h9v10.4h-9z"/><path d="m437.9 404.2h9v10.4h-9z"/><path d="m421.3 404.2h9v10.4h-9z"/><path d="m454.5 404.2h9v10.4h-9z"/><path d="m471.1 404.2h9v10.4h-9z"/><path d="m437.9 420.8h9v10.4h-9z"/><path d="m421.3 420.8h9v10.4h-9z"/><path d="m454.5 420.8h9v10.4h-9z"/><path d="m471.1 420.8h9v10.4h-9z"/></g><path d="m109 300.6v-236.8" fill="none" stroke="#1a79db" stroke-linecap="round" stroke-miterlimit="10" stroke-width="4"/><path d="m217.2 131.4s-16-2.4-33.9-1.3c-15.8.9-26 6.1-42.1 5.2-14.7-.8-30.3-3.9-30.3-3.9v-62.8s16.5 4.4 30.6 3.9c15.2-.5 24.2-4.2 39.1-5.1 19-1.1 36.6 1.2 36.6 1.2z" fill="#fff"/><path d="m186.5 100.7c2-.2 14-3.2 13.8-5.2s-12.6-2.3-14.6-2.1-7 2.4-6.7 4.5c.2 1.9 5.5 3 7.5 2.8z" fill="#04aa73"/><path d="m181.4 95.8c1.8-.9 12.2-7.7 11.3-9.6-.9-1.8-12.7 2-14.5 2.9s-5.8 4.6-4.9 6.5 6.3 1.1 8.1.2z" fill="#04aa73"/><path d="m168.9 98.1c-.1 0-.1-.1-.1-.2-.1-.2 0-.5.2-.7l13.5-6.9c.2-.1.5 0 .7.2.1.2 0 .5-.2.7l-13.5 6.9c-.2.1-.4.1-.6 0z" fill="#03774d"/><path d="m168.9 98.1c-.1-.1-.2-.2-.2-.4 0-.3.2-.5.5-.5l23.7-1.6c.3 0 .5.2.5.5s-.2.5-.5.5l-23.7 1.6c-.1 0-.2 0-.3-.1z" fill="#03774d"/><path d="m132.8 115.1 34.4-22.7c1.5-1 3.5-.4 4.3 1.2l2.9 5.9c.8 1.6 0 3.6-1.7 4.2l-38.7 13.8c-1.5.5-2.6-1.5-1.2-2.4z" fill="#ffa619"/><path d="m-.2 277.1 81-81c15.8-15.8 41.5-15.8 57.3 0l152.7 152.7c29.8 29.8 70.2 46.5 112.4 46.5 42.1 0 82.6-16.7 112.4-46.5l23.9-23.9c30.8-30.8 80.8-30.8 111.6 0l127.6 127.6-1.7 324.5h-777.2z" fill="#78d8ba"/><path d="m136.9 618.7c-12.2-9.7-22.5-22-30.1-36.7-4.4-8.6-1-19.1 7.5-23.5 8.6-4.4 19.1-1 23.5 7.5 19.6 38.1 66.5 53.2 104.6 33.6l1.6-.8c8.6-4.4 19.1-1 23.5 7.5 4.4 8.6 1 19.1-7.5 23.5l-1.6.8c-40.5 21-88 14.7-121.5-11.9z" fill="#e8e8e8"/><path d="m-4.7 556.7h128.4v228.9h-128.4z" fill="#eaeaea"/><path d="m123.7 556.7h-21.7l-42.4 17.4-40.9-17.4h-23.4v200.9h-.3v202.5c0 9.2 6.9 17.5 16.2 18 9.8.5 18-7.3 18-17v-153.1c0-12.4 10.1-22.5 22.5-22.5h15.1c12.4 0 22.5 10.1 22.5 22.5v152c0 9.2 6.9 17.5 16.2 18 9.8.5 18-7.3 18-17v-175.5h.4v-228.8z" fill="#274156"/><path d="m60.7 554h47.5v22.7h-47.5z" fill="#1a79db" transform="matrix(-.7071 .7071 -.7071 -.7071 543.9325 905.3232)"/><path d="m11.2 554h47.4v22.7h-47.4z" fill="#1a79db" transform="matrix(.7071 .7071 -.7071 .7071 409.9712 140.9287)"/><path d="m123.3 478c0 32.5-28.7 82.8-64.2 82.8s-64.1-50.3-64.1-82.8 28.7-58.8 64.2-58.8 64.1 26.4 64.1 58.8z" fill="#eaeaea"/><path d="m48.2 286c3.5 20.6 5.2 124-8.6 126.3-14.1 2.4-46.9-95.6-50.4-116.2s3.7-66.9 18.4-69.5 37 38.8 40.6 59.4z" fill="#eaeaea"/><path d="m70.7 286c-3.5 20.6-5.2 124 8.6 126.3 14.1 2.4 46.9-95.6 50.4-116.2s-3.7-66.9-18.4-69.5-37 38.8-40.6 59.4z" fill="#eaeaea"/><path d="m59.2 526.2c-1.2 0-2.2-1-2.2-2.2v-8.3c0-1.2 1-2.2 2.2-2.2s2.2 1 2.2 2.2v8.3c-.1 1.3-1 2.2-2.2 2.2z" fill="#9ee3cd"/><circle cx="36.8" cy="474" fill="#274156" r="5.3"/><circle cx="80.8" cy="474" fill="#274156" r="5.3"/><path d="m59.2 518.3c-.6 0-1.1-.2-1.5-.6l-9.4-9.4c-.9-.9-.9-2.2 0-3.1s2.2-.9 3.1 0l7.8 7.8 7.8-7.8c.9-.9 2.2-.9 3.1 0s.9 2.2 0 3.1l-9.4 9.4c-.4.4-1 .6-1.5.6z" fill="#3ec79c"/><path d="m49.4 534.6c-6.6 0-11.9-5.4-11.9-12 0-1.2 1-2.2 2.2-2.2s2.2 1 2.2 2.2c0 4.2 3.4 7.6 7.6 7.6s7.6-3.4 7.6-7.6c0-1.2 1-2.2 2.2-2.2s2.2 1 2.2 2.2c-.2 6.6-5.5 12-12.1 12z" fill="#9ee3cd"/><path d="m31.8 464.6c-.6 0-1.1-.2-1.5-.6-.9-.9-.9-2.2 0-3.1 3.5-3.5 9.6-3.5 13.1 0 .9.9.9 2.2 0 3.1s-2.2.9-3.1 0c-1.8-1.9-5.1-1.9-6.9 0-.5.3-1.1.6-1.6.6z" fill="#b3b3b3"/><path d="m75.8 464.6c-.6 0-1.1-.2-1.5-.6-.9-.9-.9-2.2 0-3.1 3.5-3.5 9.6-3.5 13.1 0 .9.9.9 2.2 0 3.1s-2.2.9-3.1 0c-1.8-1.9-5.1-1.9-6.9 0-.5.3-1 .6-1.6.6z" fill="#b3b3b3"/><path d="m68.9 534.6c-6.6 0-11.9-5.4-11.9-12 0-1.2 1-2.2 2.2-2.2s2.2 1 2.2 2.2c0 4.2 3.4 7.6 7.6 7.6s7.6-3.4 7.6-7.6c0-1.2 1-2.2 2.2-2.2s2.2 1 2.2 2.2c-.1 6.6-5.5 12-12.1 12z" fill="#9ee3cd"/><path d="m57.5 574.1h4.4v211.5h-4.4z" fill="#1a79db"/><path d="m73.7 607.1h38.2v14.9h-38.2z" fill="#1a79db"/><path d="m107.5 625v23.6h-29.4v-23.6zm4.4-4.4h-38.2v32.3h38.2z" fill="#1a79db"/><path d="m245.4 636.4c-23.4 8.6-48.8 9.1-72.9 1.4-13.1-4.2-25.1-10.6-35.6-18.9-12.4-9.8-22.7-22.3-30.1-36.8-4.4-8.6-1-19.1 7.5-23.5s19.1-1 23.5 7.5c9.5 18.5 25.6 32.1 45.4 38.5 16.1 5.2 33 5 48.6-.3" fill="#274156"/><path d="m511.4 563.6h-64.5v-45.2l32.3-28.7 32.2 28.7z" fill="#c5eee1"/><path d="m473.6 541.2h11.1v22.5h-11.1z" fill="#9ee3cd"/><path d="m454.7 541.2h11.1v10.4h-11.1z" fill="#9ee3cd"/><path d="m492.4 541.2h11.1v10.4h-11.1z" fill="#9ee3cd"/><path d="m473.6 524.7h11.1v10.4h-11.1z" fill="#9ee3cd"/><path d="m454.7 524.7h11.1v10.4h-11.1z" fill="#9ee3cd"/><path d="m492.4 524.7h11.1v10.4h-11.1z" fill="#9ee3cd"/><path d="m420.2 625h-64.5v-45.3l32.2-28.6 32.3 28.6z" fill="#c5eee1"/><path d="m382.4 602.5h11.1v22.5h-11.1z" fill="#9ee3cd"/><path d="m363.5 602.5h11.1v10.4h-11.1z" fill="#9ee3cd"/><path d="m401.2 602.5h11.1v10.4h-11.1z" fill="#9ee3cd"/><path d="m382.4 586.1h11.1v10.4h-11.1z" fill="#9ee3cd"/><path d="m363.5 586.1h11.1v10.4h-11.1z" fill="#9ee3cd"/><path d="m401.2 586.1h11.1v10.4h-11.1z" fill="#9ee3cd"/><path d="m754.8 627h-64.5v-45.3l32.2-28.6 32.3 28.6z" fill="#c5eee1"/><path d="m717 604.5h11.1v22.5h-11.1z" fill="#9ee3cd"/><path d="m698.1 604.5h11.1v10.4h-11.1z" fill="#9ee3cd"/><path d="m735.8 604.5h11.1v10.4h-11.1z" fill="#9ee3cd"/><path d="m717 588.1h11.1v10.4h-11.1z" fill="#9ee3cd"/><path d="m698.1 588.1h11.1v10.4h-11.1z" fill="#9ee3cd"/><path d="m735.8 588.1h11.1v10.4h-11.1z" fill="#9ee3cd"/><path d="m689.4 712.5h-64.5v-45.3l32.3-28.6 32.2 28.6z" fill="#c5eee1"/><path d="m651.6 690h11.1v22.5h-11.1z" fill="#9ee3cd"/><path d="m632.7 690h11.1v10.4h-11.1z" fill="#9ee3cd"/><path d="m670.4 690h11.1v10.4h-11.1z" fill="#9ee3cd"/><path d="m651.6 673.6h11.1v10.4h-11.1z" fill="#9ee3cd"/><path d="m632.7 673.6h11.1v10.4h-11.1z" fill="#9ee3cd"/><path d="m670.4 673.6h11.1v10.4h-11.1z" fill="#9ee3cd"/><path d="m543.7 737.4h-64.5v-45.3l32.2-28.6 32.3 28.6z" fill="#c5eee1"/><path d="m505.9 714.9h11.1v22.5h-11.1z" fill="#9ee3cd"/><path d="m487 714.9h11.1v10.4h-11.1z" fill="#9ee3cd"/><path d="m524.7 714.9h11.1v10.4h-11.1z" fill="#9ee3cd"/><path d="m505.9 698.5h11.1v10.4h-11.1z" fill="#9ee3cd"/><path d="m487 698.5h11.1v10.4h-11.1z" fill="#9ee3cd"/><path d="m524.7 698.5h11.1v10.4h-11.1z" fill="#9ee3cd"/><path d="m302.9 572.9h-64.5v-45.2l32.2-28.7 32.3 28.7z" fill="#c5eee1"/><path d="m265.1 550.5h11.1v22.5h-11.1z" fill="#9ee3cd"/><path d="m246.2 550.5h11.1v10.4h-11.1z" fill="#9ee3cd"/><path d="m283.9 550.5h11.1v10.4h-11.1z" fill="#9ee3cd"/><path d="m265.1 534h11.1v10.4h-11.1z" fill="#9ee3cd"/><path d="m246.2 534h11.1v10.4h-11.1z" fill="#9ee3cd"/><path d="m283.9 534h11.1v10.4h-11.1z" fill="#9ee3cd"/><path d="m707.5 287.1h-45.6v-31.9l22.8-20.3 22.8 20.3z" fill="#c5eee1"/><path d="m680.8 271.2h7.8v15.9h-7.8z" fill="#9ee3cd"/><path d="m667.5 271.2h7.8v7.4h-7.8z" fill="#9ee3cd"/><path d="m694.1 271.2h7.8v7.4h-7.8z" fill="#9ee3cd"/><path d="m680.8 259.6h7.8v7.4h-7.8z" fill="#9ee3cd"/><path d="m667.5 259.6h7.8v7.4h-7.8z" fill="#9ee3cd"/><path d="m694.1 259.6h7.8v7.4h-7.8z" fill="#9ee3cd"/><path d="m758.6 336.1h-45.6v-32l22.8-20.2 22.8 20.2z" fill="#c5eee1"/><path d="m731.9 320.2h7.8v15.9h-7.8z" fill="#9ee3cd"/><path d="m718.5 320.2h7.8v7.4h-7.8z" fill="#9ee3cd"/><path d="m745.2 320.2h7.8v7.4h-7.8z" fill="#9ee3cd"/><path d="m731.9 308.6h7.8v7.4h-7.8z" fill="#9ee3cd"/><path d="m718.5 308.6h7.8v7.4h-7.8z" fill="#9ee3cd"/><path d="m745.2 308.6h7.8v7.4h-7.8z" fill="#9ee3cd"/><path d="m532.4 493.8h70.4v140.4h-70.4z" fill="#c5eee1"/><path d="m554.8 499.7h9v10.4h-9z" fill="#9ee3cd"/><path d="m538.2 499.7h9v10.4h-9z" fill="#9ee3cd"/><path d="m571.4 499.7h9v10.4h-9z" fill="#9ee3cd"/><path d="m588 499.7h9v10.4h-9z" fill="#9ee3cd"/><path d="m554.8 516.2h9v10.4h-9z" fill="#9ee3cd"/><path d="m538.2 516.2h9v10.4h-9z" fill="#9ee3cd"/><path d="m571.4 516.2h9v10.4h-9z" fill="#9ee3cd"/><path d="m588 516.2h9v10.4h-9z" fill="#9ee3cd"/><path d="m554.8 532.8h9v10.4h-9z" fill="#9ee3cd"/><path d="m538.2 532.8h9v10.4h-9z" fill="#9ee3cd"/><path d="m571.4 532.8h9v10.4h-9z" fill="#9ee3cd"/><path d="m588 532.8h9v10.4h-9z" fill="#9ee3cd"/><path d="m554.8 549.4h9v10.4h-9z" fill="#9ee3cd"/><path d="m538.2 549.4h9v10.4h-9z" fill="#9ee3cd"/><path d="m571.4 549.4h9v10.4h-9z" fill="#9ee3cd"/><path d="m588 549.4h9v10.4h-9z" fill="#9ee3cd"/><path d="m554.8 566h9v10.4h-9z" fill="#9ee3cd"/><path d="m538.2 566h9v10.4h-9z" fill="#9ee3cd"/><path d="m571.4 566h9v10.4h-9z" fill="#9ee3cd"/><path d="m588 566h9v10.4h-9z" fill="#9ee3cd"/><path d="m554.8 582.5h9v10.4h-9z" fill="#9ee3cd"/><path d="m538.2 582.5h9v10.4h-9z" fill="#9ee3cd"/><path d="m571.4 582.5h9v10.4h-9z" fill="#9ee3cd"/><path d="m588 582.5h9v10.4h-9z" fill="#9ee3cd"/><path d="m554.8 599.1h9v10.4h-9z" fill="#9ee3cd"/><path d="m538.2 599.1h9v10.4h-9z" fill="#9ee3cd"/><path d="m571.4 599.1h9v10.4h-9z" fill="#9ee3cd"/><path d="m588 599.1h9v10.4h-9z" fill="#9ee3cd"/><path d="m554.8 615.7h9v10.4h-9z" fill="#9ee3cd"/><path d="m538.2 615.7h9v10.4h-9z" fill="#9ee3cd"/><path d="m571.4 615.7h9v10.4h-9z" fill="#9ee3cd"/><path d="m588 615.7h9v10.4h-9z" fill="#9ee3cd"/><path d="m618.2 419.9h70.4v140.4h-70.4z" fill="#c5eee1"/><path d="m640.6 425.8h9v10.4h-9z" fill="#9ee3cd"/><path d="m624 425.8h9v10.4h-9z" fill="#9ee3cd"/><path d="m657.2 425.8h9v10.4h-9z" fill="#9ee3cd"/><path d="m673.8 425.8h9v10.4h-9z" fill="#9ee3cd"/><path d="m640.6 442.3h9v10.4h-9z" fill="#9ee3cd"/><path d="m624 442.3h9v10.4h-9z" fill="#9ee3cd"/><path d="m657.2 442.3h9v10.4h-9z" fill="#9ee3cd"/><path d="m673.8 442.3h9v10.4h-9z" fill="#9ee3cd"/><path d="m640.6 458.9h9v10.4h-9z" fill="#9ee3cd"/><path d="m624 458.9h9v10.4h-9z" fill="#9ee3cd"/><path d="m657.2 458.9h9v10.4h-9z" fill="#9ee3cd"/><path d="m673.8 458.9h9v10.4h-9z" fill="#9ee3cd"/><path d="m640.6 475.5h9v10.4h-9z" fill="#9ee3cd"/><path d="m624 475.5h9v10.4h-9z" fill="#9ee3cd"/><path d="m657.2 475.5h9v10.4h-9z" fill="#9ee3cd"/><path d="m673.8 475.5h9v10.4h-9z" fill="#9ee3cd"/><path d="m640.6 492.1h9v10.4h-9z" fill="#9ee3cd"/><path d="m624 492.1h9v10.4h-9z" fill="#9ee3cd"/><path d="m657.2 492.1h9v10.4h-9z" fill="#9ee3cd"/><path d="m673.8 492.1h9v10.4h-9z" fill="#9ee3cd"/><path d="m640.6 508.6h9v10.4h-9z" fill="#9ee3cd"/><path d="m624 508.6h9v10.4h-9z" fill="#9ee3cd"/><path d="m657.2 508.6h9v10.4h-9z" fill="#9ee3cd"/><path d="m673.8 508.6h9v10.4h-9z" fill="#9ee3cd"/><path d="m640.6 525.2h9v10.4h-9z" fill="#9ee3cd"/><path d="m624 525.2h9v10.4h-9z" fill="#9ee3cd"/><path d="m657.2 525.2h9v10.4h-9z" fill="#9ee3cd"/><path d="m673.8 525.2h9v10.4h-9z" fill="#9ee3cd"/><path d="m640.6 541.8h9v10.4h-9z" fill="#9ee3cd"/><path d="m624 541.8h9v10.4h-9z" fill="#9ee3cd"/><path d="m657.2 541.8h9v10.4h-9z" fill="#9ee3cd"/><path d="m673.8 541.8h9v10.4h-9z" fill="#9ee3cd"/><path d="m680.1 335.1h-3.9l.3-15.8h3.2z" fill="#04aa73"/><path d="m679.7 325.9h-.9c0-3.9 3.2-7 7-7v.9c-3.3 0-6.1 2.7-6.1 6.1z" fill="#04aa73"/><path d="m692.4 309.2c-.2-1.4-1.3-2.4-2.6-2.7-1.1-.2-2.2.2-2.9 1-.4.4-1 .5-1.5.3-.7-.3-1.4-.5-2.2-.5-.5 0-.9.1-1.3.2-.5.1-1-.1-1.1-.5-.8-1.8-2.7-3.1-4.8-3.1-1.5 0-2.9.7-3.9 1.7-.2.2-.4.3-.7.4-2.5.4-4.5 2.6-4.5 5.2v.1c0 .6-.3 1.2-.8 1.5-1.2.8-2 2.2-2 3.7 0 2.4 1.8 4.3 4.2 4.4.5 0 .9 0 1.3-.1.7-.2 1.3.2 1.7.8.5 1 1.6 1.6 2.8 1.6 1.8 0 3.2-1.4 3.2-3.2 0-.1 0-.1 0-.2.2 0 .5.1.7.1 1 0 1.9-.4 2.6-1 .4-.3.9-.3 1.3 0 1.1.9 2.5 1.4 4 1.2 2.6-.2 4.7-2.3 5-4.9.1-.9 0-1.8-.3-2.6 1.2-.5 2-1.9 1.8-3.4z" fill="#03774d"/><path d="m747.9 282.6h3.9l-.3-15.8h-3.2z" fill="#04aa73"/><path d="m748.3 273.4h.9c0-3.9-3.2-7-7-7v.9c3.3 0 6.1 2.7 6.1 6.1z" fill="#04aa73"/><path d="m735.6 256.7c.2-1.4 1.3-2.4 2.6-2.7 1.1-.2 2.2.2 2.9 1 .4.4 1 .5 1.5.3.7-.3 1.4-.5 2.2-.5.5 0 .9.1 1.3.2.5.1 1-.1 1.1-.5.8-1.8 2.7-3.1 4.8-3.1 1.5 0 2.9.7 3.9 1.7.2.2.4.3.7.4 2.5.4 4.5 2.6 4.5 5.2v.1c0 .6.3 1.2.8 1.5 1.2.8 2 2.2 2 3.7 0 2.4-1.8 4.3-4.2 4.4-.5 0-.9 0-1.3-.1-.7-.2-1.3.2-1.7.8-.5 1-1.6 1.6-2.8 1.6-1.8 0-3.2-1.4-3.2-3.2 0-.1 0-.1 0-.2-.2 0-.5.1-.7.1-1 0-1.9-.4-2.6-1-.4-.3-.9-.3-1.3 0-1.1.9-2.5 1.4-4 1.2-2.6-.2-4.7-2.3-5-4.9-.1-.9 0-1.8.3-2.6-1.2-.5-2-1.9-1.8-3.4z" fill="#03774d"/><path d="m701.7 354h4.4l-.3-19.7h-3.5z" fill="#04aa73"/><path d="m703 343.4h-1c0-3.2-2.6-5.9-5.9-5.9v-1c3.8 0 6.9 3.1 6.9 6.9z" fill="#04aa73"/><path d="m699.8 338.1h-.8c0-2.8 2.3-5.2 5.2-5.2v.7c-2.4.1-4.4 2.1-4.4 4.5z" fill="#04aa73"/><path d="m716.7 330.6c-.3-.4-.6-.6-.9-.9-.5-.3-.7-.9-.5-1.4.3-.9.1-1.8-.6-2.5-1-1-2.6-1.1-3.6-.1 0 0-.1.1-.1.1-.1-.2-.2-.3-.4-.5-.5-.6-1.3-.9-2-1-.4 0-.7-.4-.7-.8-.1-1.1-.5-2.1-1.4-2.9-1.5-1.4-3.9-1.6-5.6-.3-.6.4-1 1-1.3 1.6-1-.4-2.2-.2-3 .8-.7.9-.7 2.1-.1 3 .2.3.1.8-.2 1-1.5.7-2.5 2.2-2.5 3.9v.2c-.5-.2-1-.3-1.6-.2-1.1.2-2 1.2-2.1 2.3-.1 1.3.6 2.4 1.8 2.8v.3c0 1.2 1 2.1 2.1 2.1.7 0 1.3-.3 1.7-.8h.4c1.1 0 2-.7 2.4-1.6.1-.3.6-.5.8-.3.5.3 1 .5 1.7.5.3 0 .6 0 .8-.1.4-.1.8.1.9.5.4 1.5 1.8 2.5 3.4 2.5.6 0 1.2-.2 1.7-.5.3-.2.7-.2 1.1 0 .4.3 1 .5 1.6.4.8-.2 1.5-.8 1.6-1.7 0-.2 0-.3 0-.5 0-.5.4-.9.9-.8 1.2.3 2.5 0 3.4-1 1.2-.9 1.3-2.8.3-4.1z" fill="#03774d"/><path d="m589.2 753h6.7l-.5-27.2h-5.4z" fill="#3ec79c"/><path d="m589.9 737.2h1.5c0-6.7-5.4-12.1-12.1-12.1v1.5c5.9 0 10.6 4.8 10.6 10.6z" fill="#3ec79c"/><path d="m568.1 708.5c.4-2.3 2.2-4.2 4.5-4.6 2-.3 3.8.4 4.9 1.7.6.7 1.6.8 2.5.4 1.1-.5 2.4-.8 3.7-.8.8 0 1.5.1 2.3.3s1.6-.2 2-.9c1.4-3.1 4.6-5.3 8.3-5.3 2.6 0 5 1.1 6.7 2.9.3.4.8.6 1.3.7 4.3.7 7.7 4.4 7.7 9v.1c0 1 .5 2 1.4 2.6 2.1 1.4 3.5 3.7 3.5 6.4 0 4.1-3.2 7.4-7.3 7.6-.8 0-1.5 0-2.2-.2-1.1-.3-2.3.3-2.9 1.3-.9 1.7-2.7 2.8-4.8 2.8-3 0-5.5-2.5-5.5-5.5 0-.1 0-.2 0-.3-.4.1-.8.1-1.2.1-1.7 0-3.3-.7-4.5-1.7-.6-.6-1.6-.6-2.3 0-1.8 1.5-4.3 2.4-6.9 2.1-4.5-.4-8.1-4-8.6-8.4-.2-1.6.1-3.1.6-4.5-2.1-.9-3.6-3.3-3.2-5.8z" fill="#04aa73"/><path d="m720.2 527h-6.7l.5-27.2h5.4z" fill="#3ec79c"/><path d="m719.5 511.1h-1.5c0-6.7 5.4-12.1 12.1-12.1v1.5c-5.9.1-10.6 4.8-10.6 10.6z" fill="#3ec79c"/><path d="m741.3 482.4c-.4-2.3-2.2-4.2-4.5-4.6-2-.3-3.8.4-4.9 1.7-.6.7-1.6.8-2.5.4-1.1-.5-2.4-.8-3.7-.8-.8 0-1.5.1-2.3.3s-1.6-.2-2-.9c-1.4-3.1-4.6-5.3-8.3-5.3-2.6 0-5 1.1-6.7 2.9-.3.4-.8.6-1.3.7-4.3.7-7.7 4.4-7.7 9v.1c0 1-.5 2-1.4 2.6-2.1 1.4-3.5 3.7-3.5 6.4 0 4.1 3.2 7.4 7.3 7.6.8 0 1.5 0 2.2-.2 1.1-.3 2.3.3 2.9 1.3.9 1.7 2.7 2.8 4.8 2.8 3 0 5.5-2.5 5.5-5.5 0-.1 0-.2 0-.3.4.1.8.1 1.2.1 1.7 0 3.3-.7 4.5-1.7.6-.6 1.6-.6 2.3 0 1.8 1.5 4.3 2.4 6.9 2.1 4.5-.4 8.1-4 8.6-8.4.2-1.6-.1-3.1-.6-4.5 2.2-.9 3.6-3.2 3.2-5.8z" fill="#04aa73"/><path d="m415.5 569.1h-6.7l.5-27.2h5.4z" fill="#3ec79c"/><path d="m414.8 553.2h-1.5c0-6.7 5.4-12.1 12.1-12.1v1.5c-5.9.1-10.6 4.8-10.6 10.6z" fill="#3ec79c"/><path d="m436.6 524.5c-.4-2.3-2.2-4.2-4.5-4.6-2-.3-3.8.4-4.9 1.7-.6.7-1.6.8-2.5.4-1.1-.5-2.4-.8-3.7-.8-.8 0-1.5.1-2.3.3s-1.6-.2-2-.9c-1.4-3.1-4.6-5.3-8.3-5.3-2.6 0-5 1.1-6.7 2.9-.3.4-.8.6-1.3.7-4.3.7-7.7 4.4-7.7 9v.1c0 1-.5 2-1.4 2.6-2.1 1.4-3.5 3.7-3.5 6.4 0 4.1 3.2 7.4 7.3 7.6.8 0 1.5 0 2.2-.2 1.1-.3 2.3.3 2.9 1.3.9 1.7 2.7 2.8 4.8 2.8 3 0 5.5-2.5 5.5-5.5 0-.1 0-.2 0-.3.4.1.8.1 1.2.1 1.7 0 3.3-.7 4.5-1.7.6-.6 1.6-.6 2.3 0 1.8 1.5 4.3 2.4 6.9 2.1 4.5-.4 8.1-4 8.6-8.4.2-1.6-.1-3.1-.6-4.5 2.2-.9 3.6-3.2 3.2-5.8z" fill="#04aa73"/><path d="m233.8 444.7h-6.7l.5-27.2h5.4z" fill="#3ec79c"/><path d="m233.1 428.8h-1.5c0-6.7 5.4-12.1 12.1-12.1v1.5c-5.9.1-10.6 4.8-10.6 10.6z" fill="#3ec79c"/><path d="m254.9 400.1c-.4-2.3-2.2-4.2-4.5-4.6-2-.3-3.8.4-4.9 1.7-.6.7-1.6.8-2.5.4-1.1-.5-2.4-.8-3.7-.8-.8 0-1.5.1-2.3.3s-1.6-.2-2-.9c-1.4-3.1-4.6-5.3-8.3-5.3-2.6 0-5 1.1-6.7 2.9-.3.4-.8.6-1.3.7-4.3.7-7.7 4.4-7.7 9v.1c0 1-.5 2-1.4 2.6-2.1 1.4-3.5 3.7-3.5 6.4 0 4.1 3.2 7.4 7.3 7.6.8 0 1.5 0 2.2-.2 1.1-.3 2.3.3 2.9 1.3.9 1.7 2.7 2.8 4.8 2.8 3 0 5.5-2.5 5.5-5.5 0-.1 0-.2 0-.3.4.1.8.1 1.2.1 1.7 0 3.3-.7 4.5-1.7.6-.6 1.6-.6 2.3 0 1.8 1.5 4.3 2.4 6.9 2.1 4.5-.4 8.1-4 8.6-8.4.2-1.6-.1-3.1-.6-4.5 2.2-.9 3.6-3.2 3.2-5.8z" fill="#04aa73"/><path d="m746.1 547.2h6.5l-.5-29.5h-5.3z" fill="#3ec79c"/><path d="m747.9 531.3h-1.4c0-4.8-3.9-8.7-8.7-8.7v-1.4c5.6-.1 10.1 4.5 10.1 10.1z" fill="#3ec79c"/><path d="m743.1 523.5h-1.1c0-4.2 3.4-7.7 7.7-7.7v1.1c-3.6 0-6.6 2.9-6.6 6.6z" fill="#3ec79c"/><path d="m768.4 512.2c-.4-.5-.9-1-1.4-1.3-.7-.5-1-1.3-.8-2.1.4-1.3.1-2.7-.8-3.8-1.4-1.5-3.8-1.6-5.4-.2-.1.1-.1.1-.2.2-.2-.2-.3-.5-.5-.7-.8-.9-1.9-1.3-3-1.4-.6 0-1-.5-1.1-1.1-.1-1.6-.8-3.2-2.1-4.4-2.3-2.1-5.9-2.3-8.4-.4-.9.7-1.5 1.5-2 2.4-1.5-.6-3.3-.2-4.4 1.1-1 1.3-1.1 3.1-.2 4.5.4.5.2 1.2-.3 1.5-2.2 1-3.7 3.2-3.7 5.8v.4c-.7-.3-1.6-.5-2.4-.3-1.7.3-3 1.7-3.1 3.4-.2 1.9 1 3.6 2.7 4.2v.5c0 1.7 1.4 3.2 3.2 3.2 1 0 1.9-.5 2.5-1.2.2 0 .4.1.7.1 1.6 0 3-1 3.6-2.4.2-.5.8-.7 1.3-.4.7.5 1.6.8 2.5.8.4 0 .8-.1 1.2-.2.5-.2 1.1.1 1.3.7.7 2.2 2.7 3.8 5.1 3.8.9 0 1.8-.2 2.6-.7.5-.3 1.1-.3 1.6.1.6.5 1.5.7 2.4.5 1.2-.2 2.2-1.2 2.4-2.5 0-.3.1-.5 0-.8-.1-.7.6-1.3 1.3-1.1 1.8.4 3.8-.1 5.1-1.5 1.7-1.8 1.8-4.7.3-6.7z" fill="#04aa73"/><path d="m203.3 470.4h-6.5l.5-29.5h5.2z" fill="#3ec79c"/><path d="m201.5 454.5h1.4c0-4.8 3.9-8.7 8.7-8.7v-1.4c-5.6-.1-10.1 4.5-10.1 10.1z" fill="#3ec79c"/><path d="m206.3 446.7h1.1c0-4.2-3.4-7.7-7.7-7.7v1.1c3.6 0 6.6 2.9 6.6 6.6z" fill="#3ec79c"/><path d="m181 435.4c.4-.5.9-1 1.4-1.3.7-.5 1-1.3.8-2.1-.4-1.3-.1-2.7.8-3.8 1.4-1.5 3.8-1.6 5.4-.2.1.1.1.1.2.2.2-.2.3-.5.5-.7.8-.9 1.9-1.3 3-1.4.6 0 1-.5 1.1-1.1.1-1.6.8-3.2 2.1-4.4 2.3-2.1 5.9-2.3 8.4-.4.9.7 1.5 1.5 2 2.4 1.5-.6 3.3-.2 4.4 1.1 1 1.3 1.1 3.1.2 4.5-.4.5-.2 1.2.3 1.5 2.2 1 3.7 3.2 3.7 5.8v.4c.7-.3 1.6-.5 2.4-.3 1.7.3 3 1.7 3.1 3.4.2 1.9-1 3.6-2.7 4.2v.5c0 1.7-1.4 3.2-3.2 3.2-1 0-1.9-.5-2.5-1.2-.2 0-.4.1-.7.1-1.6 0-3-1-3.6-2.4-.2-.5-.8-.7-1.3-.4-.7.5-1.6.8-2.5.8-.4 0-.8-.1-1.2-.2-.5-.2-1.1.1-1.3.7-.7 2.2-2.7 3.8-5.1 3.8-.9 0-1.8-.2-2.6-.7-.5-.3-1.1-.3-1.6.1-.6.5-1.5.7-2.4.5-1.2-.2-2.2-1.2-2.4-2.5 0-.3-.1-.5 0-.8.1-.7-.6-1.3-1.3-1.1-1.8.4-3.8-.1-5.1-1.5-1.7-1.8-1.8-4.7-.3-6.7z" fill="#04aa73"/><path d="m434.8 760c4.2 0 8.2 1.4 11.4 3.9-.8-2.4-1.8-4.7-3-6.8l4.1-2.9c2.2 2.7 4 5.7 5.4 8.8 1.5 3.1 2.7 6.2 3.7 9.4s1.9 6.4 2.6 9.7c.4 1.6.7 3.3 1 4.9.2.8.3 1.7.4 2.5l.2 1.3.1.6c0 .2.1.4.1.7l-11 .5c0-.1 0-.3 0-.5v-.6-1.1c0-.8 0-1.5 0-2.3 0-1.5-.1-3.1-.2-4.6-.2-3.1-.5-6.2-1-9.2-.4-2.2-.8-4.5-1.3-6.7l-.7-.7c-3.1-3.1-7.3-4.9-11.8-4.9h-15v-2z" fill="#3ec79c"/><path d="m396.6 749.1h1.2c1 .2 2.1-.1 3-.6.3-.2.5-.3.8-.4.9-.4 1.6-1 1.9-1.9 1-2.9 3.7-5 7-5 1.2 0 2.3.3 3.3.8 1.2.6 2.6.4 3.5-.6 1.8-1.8 4.3-2.9 7-2.9 1.1 0 2.2-.7 2.6-1.7.5-1 1.1-1.9 1.8-2.7.5-.5.8-1.2.7-1.9s0-1.4 0-2.1c.6-4.4 4.4-7.8 8.8-8 5.3-.2 9.6 4 9.6 9.3 0 .7.6 1.2 1.3 1.1 2-.4 4.1-.1 5.8 1 .4.2.8.3 1.2.3 2.1-.2 4.3.4 6 1.9 2.4 2.1 3.2 5.3 2.3 8.1-.2.7.1 1.4.7 1.7s1.1.7 1.6 1.1c.9.8 1.5 1.7 1.9 2.6.3.8 1.1 1.2 1.9 1.1 1.5-.1 3 .4 4.1 1.7 1.3 1.6 1.4 3.8.3 5.5-1.2 1.9-3.4 2.6-5.4 2-.4 1.2-1.2 2.3-2.2 3.3-2.8 2.6-7.2 2.8-10.2.5-1.8-1.3-2.9-3.3-3.3-5.3-.1-.7-.7-1.3-1.5-1.3-.3 0-.7 0-1-.1-1.4-.2-2.9.1-3.9 1.1-.9.9-2.2 1.5-3.7 1.5-1.4 0-2.7-.5-3.6-1.4-1-.9-2.3-1.2-3.6-.7-1.1.4-2.2.7-3.5.7-1.1 0-2.1-.2-3-.5-.6-.2-1.3-.2-1.9.1-.7.3-1.3 1-1.4 1.8-.7 3.5-3.7 6.1-7.4 6.1-2.3 0-4.3-1-5.7-2.6-.7-.8-1.7-1.3-2.7-1.3h-.1c-1.6 0-3-.6-4-1.6-.8-.8-1.9-1.2-3-1.2-.1 0-.2 0-.3 0-1.2 0-2.3-.4-3.2-1-.7-.5-1.5-.6-2.3-.4-.4.1-.7.2-1.1.2-2.4 0-4.3-2-4.2-4.4.3-1.9 1.9-3.6 3.9-3.9z" fill="#04aa73"/><path d="m632.7 614.6c-2.8 0-5.4.9-7.5 2.6.5-1.6 1.2-3.1 2-4.4l-2.7-1.9c-1.5 1.8-2.6 3.8-3.6 5.8s-1.8 4.1-2.4 6.2c-.7 2.1-1.2 4.2-1.7 6.4-.2 1.1-.5 2.2-.7 3.2-.1.5-.2 1.1-.3 1.6l-.1.8-.1.4c0 .1 0 .3-.1.5l7.2.3c0-.1 0-.2 0-.3v-.4-.8c0-.5 0-1 0-1.5 0-1 .1-2 .1-3.1.1-2 .4-4.1.7-6.1.2-1.5.5-2.9.9-4.4l.5-.5c2.1-2.1 4.8-3.2 7.8-3.2h9.8v-1.4h-9.8z" fill="#3ec79c"/><path d="m657.8 607.5c-.3 0-.5 0-.8 0-.7.1-1.4 0-1.9-.4-.2-.1-.4-.2-.5-.3-.6-.2-1-.7-1.2-1.3-.6-1.9-2.5-3.3-4.6-3.3-.8 0-1.5.2-2.2.5-.8.4-1.7.2-2.3-.4-1.2-1.2-2.8-1.9-4.6-1.9-.7 0-1.4-.4-1.7-1.1s-.7-1.2-1.2-1.7c-.3-.3-.5-.8-.5-1.3 0-.4 0-.9 0-1.4-.4-2.9-2.9-5.2-5.8-5.3-3.5-.1-6.3 2.6-6.3 6.1 0 .5-.4.8-.9.7-1.3-.3-2.7-.1-3.8.7-.2.1-.5.2-.8.2-1.4-.1-2.8.3-3.9 1.3-1.6 1.4-2.1 3.5-1.5 5.4.1.4-.1.9-.5 1.1s-.7.4-1.1.7c-.6.5-1 1.1-1.3 1.7-.2.5-.7.8-1.3.7-1-.1-2 .3-2.7 1.1-.9 1-1 2.5-.2 3.6.8 1.2 2.3 1.7 3.5 1.3.3.8.8 1.5 1.5 2.1 1.9 1.7 4.7 1.8 6.7.3 1.2-.9 1.9-2.2 2.1-3.5.1-.5.5-.8 1-.8.2 0 .4 0 .7-.1.9-.2 1.9.1 2.6.8.6.6 1.5 1 2.4 1s1.8-.4 2.4-.9c.6-.6 1.5-.8 2.3-.5.7.3 1.5.4 2.3.4.7 0 1.4-.1 2-.3.4-.1.9-.1 1.3.1.5.2.8.7.9 1.2.4 2.3 2.4 4 4.9 4 1.5 0 2.8-.7 3.7-1.7.5-.5 1.1-.8 1.8-.8 1 0 1.9-.4 2.6-1.1.5-.5 1.3-.8 2-.8h.2c.8 0 1.5-.2 2.1-.7.4-.3 1-.4 1.5-.3.2.1.5.1.7.1 1.6 0 2.8-1.3 2.8-2.9 0-1-1-2.1-2.4-2.3z" fill="#04aa73"/><path d="m440.9 595.6h-6.5l.5-29.5h5.3z" fill="#3ec79c"/><path d="m439.1 579.7h1.4c0-4.8 3.9-8.7 8.7-8.7v-1.4c-5.5-.1-10.1 4.5-10.1 10.1z" fill="#3ec79c"/><path d="m443.9 571.9h1.1c0-4.2-3.4-7.7-7.7-7.7v1.1c3.6 0 6.6 2.9 6.6 6.6z" fill="#3ec79c"/><path d="m418.6 560.6c.4-.5.9-1 1.4-1.3.7-.5 1-1.3.8-2.1-.4-1.3-.1-2.7.8-3.8 1.4-1.5 3.8-1.6 5.4-.2.1.1.1.1.2.2.2-.2.3-.5.5-.7.8-.9 1.9-1.3 3-1.4.6 0 1-.5 1.1-1.1.1-1.6.8-3.2 2.1-4.4 2.3-2.1 5.9-2.3 8.4-.4.9.7 1.5 1.5 2 2.4 1.5-.6 3.3-.2 4.4 1.1 1 1.3 1.1 3.1.2 4.5-.4.5-.2 1.2.4 1.5 2.2 1 3.7 3.2 3.7 5.8v.4c.7-.3 1.6-.5 2.4-.3 1.7.3 3 1.7 3.1 3.4.2 1.9-1 3.6-2.7 4.2v.5c0 1.7-1.4 3.2-3.2 3.2-1 0-1.9-.5-2.5-1.2-.2 0-.4.1-.7.1-1.6 0-3-1-3.6-2.4-.2-.5-.8-.7-1.3-.4-.7.5-1.6.8-2.5.8-.4 0-.8-.1-1.2-.2-.5-.2-1.1.1-1.3.7-.7 2.2-2.7 3.8-5.1 3.8-.9 0-1.8-.2-2.6-.7-.5-.3-1.1-.3-1.6.1-.6.5-1.5.7-2.4.5-1.2-.2-2.2-1.2-2.4-2.5 0-.3-.1-.5 0-.8.1-.7-.6-1.3-1.3-1.1-1.8.4-3.8-.1-5.1-1.5-1.7-1.8-1.9-4.7-.4-6.7z" fill="#04aa73"/><path d="m78 393.7h-37.4c-18.6 0-33.7 15.1-33.7 33.7v15.5h104.8v-15.5c0-18.7-15.1-33.7-33.7-33.7z" fill="#274156"/><path d="m124.5 451.2h-60.6c-9.6 0-19.2-1.5-28.4-4.6l-11.4-3.8h87.5l13.5 4.5c2.2.7 1.7 3.9-.6 3.9z" fill="#1a79db"/><path d="m180.9 664.8v62c0 5.5 4.5 10.1 10.1 10.1h123.3c5.5 0 10-4.5 10-10.1v-62h-148.2z" fill="#687a89"/><path d="m279.1 679.3c-.7-.2-1.4 0-1.9.5l-3.4 3.4-4.3-4.3 3.4-3.4c.8-.8.8-2 0-2.7-.2-.2-.5-.4-.8-.5-6.5-1.9-13.2 1.9-15.1 8.3-.6 2-.6 4-.2 6l-17.8 17.8c-6.6-1.5-13.1 2.7-14.5 9.2-.4 2-.4 4 .2 6 .3 1 1.4 1.6 2.4 1.3.3-.1.6-.3.8-.5l3.4-3.4 4.3 4.3-3.4 3.4c-.8.8-.8 2 0 2.7.2.2.5.4.8.5 6.5 1.9 13.2-1.9 15.1-8.3.6-2.1.6-4.3.1-6.4l17.5-17.5c6.5 1.6 13.1-2.3 14.8-8.8.5-2.1.5-4.3-.1-6.3-.1-.6-.6-1.1-1.3-1.3z" fill="#274156"/><path d="m278.2 559.1h-69c-2.6 0-4.8 2.1-4.8 4.8v9.7h78.5v-9.7c0-2.6-2.1-4.8-4.7-4.8z" fill="none"/><path d="m324.3 664.8h3.3 1.4c1.5 0 2.6-1.2 2.6-2.6v-9.3c0-11-8.9-19.9-19.9-19.9h-11.2-3.5v-9.7c0-5.5-4.5-10.1-10.1-10.1h-69c-5.5 0-10.1 4.5-10.1 10.1v9.7h-14.6c-11 0-19.9 8.9-19.9 19.9v9.3c0 1.5 1.2 2.6 2.6 2.6zm-32.4-31.9h-78.5v-9.7c0-2.6 2.1-4.8 4.8-4.8h69c2.6 0 4.8 2.1 4.8 4.8v9.7z" fill="#a9b3bb"/></g></svg>