<?xml version="1.0" encoding="utf-8"?>
<!-- Generator: Adobe Illustrator 24.0.3, SVG Export Plug-In . SVG Version: 6.00 Build 0)  -->
<svg version="1.1" id="Layer_1" xmlns="http://www.w3.org/2000/svg" xmlns:xlink="http://www.w3.org/1999/xlink" x="0px" y="0px"
	 viewBox="0 0 777 777" style="enable-background:new 0 0 777 777;" xml:space="preserve">
<style type="text/css">
	.st0{fill:#FFA619;}
	.st1{fill:#FFFFFF;}
	.st2{fill:#FF7BA3;}
	.st3{font-family:'ProximaSoft-Bold';}
	.st4{font-size:55.7207px;}
	.st5{fill:#EAEAEA;}
	.st6{fill:#9EE3CD;}
	.st7{fill:#274156;}
	.st8{fill:#3EC79C;}
	.st9{fill:#A9A9A9;}
	.st10{fill:#E8E8E8;}
	.st11{fill:#1A79DB;}
	.st12{fill:#27C3EB;}
	.st13{fill:#D4D9DD;}
	.st14{fill:#C2C2C2;}
	.st15{fill:#DCDCDC;}
	.st16{fill:#687A89;}
</style>
<rect class="st0" width="777" height="777"/>
<path class="st1" d="M608,720.9H169c-1.1,0-2-0.9-2-2V68.3c0-2.2,1.8-4,4-4H608c1.1,0,2,0.9,2,2v652.6
	C610,720,609.1,720.9,608,720.9z"/>
<text transform="matrix(1 0 0 1 193.3647 132.407)" class="st2 st3 st4">K</text>
<text transform="matrix(-1 0 0 -1 582.5718 654.3621)" class="st2 st3 st4">K</text>
<g>
	<g>
		<path class="st5" d="M434.7,258.7c0,23.8-21.1,60.8-47.1,60.8c-26,0-47.1-36.9-47.1-60.8s21.1-43.1,47.1-43.1
			C413.6,215.5,434.7,234.8,434.7,258.7z"/>
	</g>
	<g>
		<g>
			<path class="st5" d="M379.5,145.2c2.6,15.1,3.8,91-6.3,92.8c-10.4,1.8-34.4-70.2-37-85.3c-2.6-15.1,2.7-49.2,13.5-51
				S376.9,130,379.5,145.2z"/>
		</g>
		<g>
			<path class="st5" d="M396.1,145.2c-2.6,15.1-3.8,91,6.3,92.8c10.4,1.8,34.4-70.2,37-85.3c2.6-15.1-2.7-49.2-13.5-51
				S398.7,130,396.1,145.2z"/>
		</g>
	</g>
	<g>
		<path class="st6" d="M387.6,294.1c-0.9,0-1.6-0.7-1.6-1.6v-6.1c0-0.9,0.7-1.6,1.6-1.6s1.6,0.7,1.6,1.6v6.1
			C389.2,293.3,388.5,294.1,387.6,294.1z"/>
	</g>
	<g>
		<circle class="st7" cx="371.2" cy="255.7" r="3.9"/>
	</g>
	<g>
		<path class="st8" d="M387.6,288.2c-0.4,0-0.8-0.2-1.1-0.5l-6.9-6.9c-0.6-0.6-0.6-1.6,0-2.3c0.6-0.6,1.6-0.6,2.3,0l5.8,5.8l5.8-5.8
			c0.6-0.6,1.6-0.6,2.3,0c0.6,0.6,0.6,1.6,0,2.3l-6.9,6.9C388.4,288.1,388,288.2,387.6,288.2z"/>
	</g>
	<g>
		<path class="st6" d="M380.4,300.2c-0.9,0-1.6-0.7-1.6-1.6s0.7-1.6,1.6-1.6c3.1,0,5.6-2.5,5.6-5.6c0-0.9,0.7-1.6,1.6-1.6
			s1.6,0.7,1.6,1.6C389.2,296.2,385.2,300.2,380.4,300.2z"/>
	</g>
	<g>
		<path class="st6" d="M394.8,300.2c-4.8,0-8.8-3.9-8.8-8.8c0-0.9,0.7-1.6,1.6-1.6s1.6,0.7,1.6,1.6c0,3.1,2.5,5.6,5.6,5.6
			s5.6-2.5,5.6-5.6c0-0.9,0.7-1.6,1.6-1.6s1.6,0.7,1.6,1.6C403.5,296.2,399.6,300.2,394.8,300.2z"/>
	</g>
	<g>
		<path class="st7" d="M409,258.9h-9.7c-0.9,0-1.6-0.7-1.6-1.6s0.7-1.6,1.6-1.6h9.7c0.9,0,1.6,0.7,1.6,1.6S409.9,258.9,409,258.9z"
			/>
	</g>
	<g>
		<path class="st9" d="M396.4,252.7c-0.4,0-0.7-0.1-1-0.4c-0.7-0.6-0.8-1.6-0.2-2.3c2-2.4,4.7-3.8,7.8-4.1c3.1-0.3,6,0.7,8.4,2.6
			c0.7,0.6,0.8,1.6,0.2,2.3c-0.6,0.7-1.6,0.8-2.3,0.2c-1.7-1.4-3.9-2.1-6.1-1.9c-2.2,0.2-4.2,1.3-5.6,3
			C397.3,252.5,396.8,252.7,396.4,252.7z"/>
	</g>
	<g>
		<path class="st9" d="M379.1,247.9c-0.4,0-0.8-0.2-1.1-0.5c-3.8-3.9-10.1-4-14-0.2c-0.6,0.6-1.6,0.6-2.3,0c-0.6-0.6-0.6-1.6,0-2.3
			c5.2-5,13.5-4.9,18.5,0.2c0.6,0.6,0.6,1.6,0,2.3C379.9,247.8,379.5,247.9,379.1,247.9z"/>
	</g>
	<path class="st0" d="M353.9,190.5l-6.2,40.4c-0.1,0.6,0.4,1.2,1,1.2h11.6c0.6,0,1.1-0.5,1-1.2l-6.2-40.4
		C354.9,189.8,354,189.8,353.9,190.5z"/>
	<path class="st0" d="M367.2,190.5l-6.2,40.4c-0.1,0.6,0.4,1.2,1,1.2h11.6c0.6,0,1.1-0.5,1-1.2l-6.2-40.4
		C368.2,189.8,367.3,189.8,367.2,190.5z"/>
	<path class="st0" d="M380.5,190.5l-6.2,40.4c-0.1,0.6,0.4,1.2,1,1.2h11.6c0.6,0,1.1-0.5,1-1.2l-6.2-40.4
		C381.5,189.8,380.6,189.8,380.5,190.5z"/>
	<path class="st0" d="M393.8,190.5l-6.2,40.4c-0.1,0.6,0.4,1.2,1,1.2h11.6c0.6,0,1.1-0.5,1-1.2l-6.2-40.4
		C394.8,189.8,393.9,189.8,393.8,190.5z"/>
	<path class="st0" d="M407.1,190.5l-6.2,40.4c-0.1,0.6,0.4,1.2,1,1.2h11.6c0.6,0,1.1-0.5,1-1.2l-6.2-40.4
		C408.1,189.8,407.2,189.8,407.1,190.5z"/>
	<path class="st0" d="M420.4,190.5l-6.2,40.4c-0.1,0.6,0.4,1.2,1,1.2h11.6c0.6,0,1.1-0.5,1-1.2l-6.2-40.4
		C421.4,189.8,420.5,189.8,420.4,190.5z"/>
	<path class="st10" d="M504.9,234.9c-0.6-8-7.6-14-15.7-13.4c-8,0.6-14,7.7-13.4,15.7c2.6,32.5-16,62.1-44.4,75.5
		c-5.6,2.6-11.7,4-17.8,4h-69.5c0,0-0.1,0-0.1,0c0,0-0.1,0-0.1,0h-1.8v0.1c-7.1,0.9-12.7,7-12.7,14.4c0,16.5-13.4,30-30,30
		c-16.4,0-29.7-13.2-30-29.5c-0.1-7.6-5.6-14.3-13.2-15c-8.7-0.8-16,6-16,14.5c0,32.6,26.5,59.1,59.1,59.1c16.7,0,31.9-7,42.6-18.2
		v92.3h92.5V343C478.7,326.9,508.7,283.4,504.9,234.9z"/>
	<polygon class="st0" points="257.6,306.6 257.6,285 244.3,316.8 256.3,316.8 256.4,338.3 269.7,306.6 	"/>
	<g>
		<path class="st11" d="M286.1,347.4c-0.1-0.4-0.1-0.8-0.2-1.2c0-0.1,0-0.2-0.1-0.3c-0.1-0.3-0.1-0.5-0.2-0.8c-3.9-13.6-20-22-20-22
			s3.4,8.5-4,16c0,0,0,0,0,0c-3.5,3.5-5.1,8.6-3.8,13.7c1.9,7.7,9.7,12.5,17.5,10.6C282.5,361.7,287.1,354.7,286.1,347.4
			L286.1,347.4C286.1,347.4,286.1,347.4,286.1,347.4z"/>
		<path class="st12" d="M270.8,341.4c0.8,4.8-0.2,7-1.2,8.1c-0.9,0.9-2.3,0.7-3-0.3c-0.3-0.4-0.5-0.7-0.7-0.9
			c-0.5-0.6-1.5-0.4-1.7,0.4c-0.7,2.3-1.1,7.9,1.7,12.7c0.1,0.1,0.1,0.2,0.2,0.3c0,0,0,0.1,0.1,0.1c0.1,0.1,0.2,0.3,0.3,0.4
			c0,0,0,0,0,0c0.3,0.4,0.6,0.7,0.9,1c2.4,0.8,5.1,0.9,7.8,0.3c2.9-0.7,5.4-2.3,7.3-4.4c0.2-0.8,0.3-1.7,0.3-2.6c0,0,0,0,0,0
			c0-0.2,0-0.5-0.1-0.7c0-0.1,0-0.1,0-0.2c0-0.2-0.1-0.3-0.1-0.5c-1.4-7.5-6.7-13-9.5-14.8C272.1,339.7,270.7,340.3,270.8,341.4z"/>
	</g>
	<g>
		
			<rect x="284" y="335.5" transform="matrix(6.123234e-17 -1 1 6.123234e-17 -44.462 652.5892)" class="st9" width="40" height="26.1"/>
		<g>
			<path class="st9" d="M319.4,329.9h-30.7c-0.6,0-1-0.5-1-1s0.5-1,1-1h30.7c0.6,0,1,0.5,1,1S320,329.9,319.4,329.9z"/>
		</g>
		<g>
			<path class="st9" d="M319.4,369.2h-30.7c-0.6,0-1-0.5-1-1s0.5-1,1-1h30.7c0.6,0,1,0.5,1,1S320,369.2,319.4,369.2z"/>
		</g>
		<g>
			<path class="st9" d="M319.4,356.6h-30.7c-0.6,0-1-0.5-1-1s0.5-1,1-1h30.7c0.6,0,1,0.5,1,1S320,356.6,319.4,356.6z"/>
		</g>
		<g>
			<path class="st9" d="M319.4,342.1h-30.7c-0.6,0-1-0.5-1-1s0.5-1,1-1h30.7c0.6,0,1,0.5,1,1S320,342.1,319.4,342.1z"/>
		</g>
		<path class="st0" d="M312.1,351.5c0,4.4-3.6,8-8,8s-8-3.6-8-8s8-14.4,8-14.4S312.1,347.1,312.1,351.5z"/>
	</g>
	<g>
		<rect x="452.8" y="257.2" class="st0" width="23.8" height="11.7"/>
		<circle class="st13" cx="452.8" cy="263.1" r="5.9"/>
		<rect x="464.2" y="257.2" class="st0" width="23.8" height="11.7"/>
		<circle class="st0" cx="488" cy="263.1" r="5.9"/>
		<rect x="459.7" y="245.6" class="st0" width="22.1" height="11.7"/>
		<circle class="st13" cx="459.7" cy="251.5" r="5.9"/>
		<circle class="st0" cx="481.7" cy="251.5" r="5.9"/>
		<circle class="st13" cx="467.6" cy="263.1" r="5.9"/>
	</g>
	<g>
		<g>
			<path class="st14" d="M447.9,276.5c2.7-3,6.1-4.2,7.7-2.8c1.3,1.1-0.5,3.7,1.1,10.3c-0.4,0.3-0.8,0.6-1.2,1c-1,1.1-1.6,2.6-1.7,4
				c-3.3-1.6-7.1-3.8-8-4.6C444.3,283,445.2,279.4,447.9,276.5z"/>
			<path class="st14" d="M447.6,302c-3-2.7-4.2-6.1-2.8-7.7c1.1-1.3,3.7,0.5,10.3-1.1c0.3,0.4,0.6,0.8,1,1.2c1.1,1,2.6,1.6,4,1.7
				c-1.6,3.3-3.8,7.1-4.6,8C454.2,305.6,450.6,304.7,447.6,302z"/>
			<path class="st14" d="M473.4,302.4c-2.7,3-6.1,4.2-7.7,2.8c-1.3-1.1,0.5-3.7-1.1-10.3c0.4-0.3,0.8-0.6,1.2-1c1-1.1,1.6-2.6,1.7-4
				c3.3,1.6,7.1,3.8,8,4.6C476.9,295.8,476.1,299.4,473.4,302.4z"/>
			<path class="st14" d="M476.5,284.4c-1.1,1.3-3.7-0.5-10.3,1.1c-0.3-0.4-0.6-0.8-1-1.2c-1.1-1-2.6-1.6-4-1.7
				c1.6-3.3,3.8-7.1,4.6-8c1.4-1.6,5-0.7,7.9,2C476.7,279.3,477.9,282.8,476.5,284.4z"/>
		</g>
		<circle class="st15" cx="460.7" cy="289.3" r="6.8"/>
	</g>
	<g>
		<polygon class="st7" points="458.7,241.2 455.5,241.2 455.5,234 460.7,234 		"/>
		<rect x="455.5" y="207.9" class="st7" width="36" height="26.7"/>
		<polygon class="st7" points="488.2,241.2 491.5,241.2 491.5,234 486.3,234 		"/>
		<rect x="462.1" y="215.1" class="st16" width="22.8" height="12.8"/>
		<path class="st16" d="M462.1,215.1c0,0,5.2-2.4,11.4-2.4c5.9,0,11.4,2.4,11.4,2.4l-11.4,4.7L462.1,215.1z"/>
		<path class="st0" d="M482,226.6c0-0.1,0-0.2,0-0.3c0,0,0-0.1,0-0.1c0-0.1,0-0.1,0-0.2c-0.1-3.8-3.8-7-3.8-7s0.3,2.4-2,3.9
			c0,0,0,0,0,0c-1.1,0.7-1.9,1.9-1.9,3.3c0,2.1,1.7,3.8,3.8,3.8C480.1,230.1,481.8,228.6,482,226.6L482,226.6
			C482,226.6,482,226.6,482,226.6z"/>
		<path class="st0" d="M470.9,227.3c0-0.1,0-0.2,0-0.2c0,0,0,0,0-0.1c0-0.1,0-0.1,0-0.2c-0.1-2.9-3-5.5-3-5.5s0.3,1.9-1.6,3.1
			c0,0,0,0,0,0c-0.9,0.5-1.5,1.5-1.5,2.6c0,1.7,1.3,3,3,3C469.4,230,470.7,228.8,470.9,227.3L470.9,227.3
			C470.9,227.3,470.9,227.3,470.9,227.3z"/>
		<path class="st0" d="M473,223.1c-0.1,1.3-0.5,1.8-0.8,2c-0.3,0.2-0.6,0-0.8-0.3c0-0.1-0.1-0.2-0.1-0.3c-0.1-0.2-0.4-0.2-0.5,0
			c-0.3,0.6-0.8,2-0.4,3.4c0,0,0,0.1,0,0.1c0,0,0,0,0,0c0,0,0,0.1,0.1,0.1c0,0,0,0,0,0c0,0.1,0.1,0.2,0.2,0.3c0.6,0.4,1.3,0.6,2,0.6
			c0.8,0,1.5-0.2,2.2-0.7c0.1-0.2,0.2-0.4,0.2-0.7c0,0,0,0,0,0c0-0.1,0-0.1,0-0.2c0,0,0,0,0,0c0,0,0-0.1,0-0.1
			c0.1-2-0.9-3.8-1.5-4.4C473.5,222.7,473,222.8,473,223.1z"/>
		<rect x="463.3" y="227.9" class="st7" width="21.6" height="3.9"/>
	</g>
</g>
<g>
	<g>
		<path class="st5" d="M342.2,530.1c0-23.8,21.1-60.8,47.1-60.8c26,0,47.1,36.9,47.1,60.8c0,23.8-21.1,43.1-47.1,43.1
			C363.3,573.2,342.2,553.9,342.2,530.1z"/>
	</g>
	<g>
		<g>
			<path class="st5" d="M397.4,643.6c-2.6-15.1-3.8-91,6.3-92.8c10.4-1.8,34.4,70.2,37,85.3c2.6,15.1-2.7,49.2-13.5,51
				C416.4,689,400,658.7,397.4,643.6z"/>
		</g>
		<g>
			<path class="st5" d="M380.9,643.6c2.6-15.1,3.8-91-6.3-92.8c-10.4-1.8-34.4,70.2-37,85.3c-2.6,15.1,2.7,49.2,13.5,51
				C361.9,689,378.3,658.7,380.9,643.6z"/>
		</g>
	</g>
	<g>
		<path class="st6" d="M389.4,494.7c0.9,0,1.6,0.7,1.6,1.6v6.1c0,0.9-0.7,1.6-1.6,1.6s-1.6-0.7-1.6-1.6v-6.1
			C387.8,495.4,388.5,494.7,389.4,494.7z"/>
	</g>
	<g>
		<circle class="st7" cx="405.8" cy="533" r="3.9"/>
	</g>
	<g>
		<path class="st8" d="M389.4,500.5c0.4,0,0.8,0.2,1.1,0.5l6.9,6.9c0.6,0.6,0.6,1.6,0,2.3c-0.6,0.6-1.6,0.6-2.3,0l-5.8-5.8l-5.8,5.8
			c-0.6,0.6-1.6,0.6-2.3,0s-0.6-1.6,0-2.3l6.9-6.9C388.5,500.7,388.9,500.5,389.4,500.5z"/>
	</g>
	<g>
		<path class="st6" d="M396.5,488.6c0.9,0,1.6,0.7,1.6,1.6s-0.7,1.6-1.6,1.6c-3.1,0-5.6,2.5-5.6,5.6c0,0.9-0.7,1.6-1.6,1.6
			s-1.6-0.7-1.6-1.6C387.8,492.5,391.7,488.6,396.5,488.6z"/>
	</g>
	<g>
		<path class="st6" d="M382.2,488.6c4.8,0,8.8,3.9,8.8,8.8c0,0.9-0.7,1.6-1.6,1.6s-1.6-0.7-1.6-1.6c0-3.1-2.5-5.6-5.6-5.6
			s-5.6,2.5-5.6,5.6c0,0.9-0.7,1.6-1.6,1.6s-1.6-0.7-1.6-1.6C373.4,492.5,377.4,488.6,382.2,488.6z"/>
	</g>
	<g>
		<path class="st7" d="M367.9,529.9h9.7c0.9,0,1.6,0.7,1.6,1.6s-0.7,1.6-1.6,1.6h-9.7c-0.9,0-1.6-0.7-1.6-1.6S367,529.9,367.9,529.9
			z"/>
	</g>
	<g>
		<path class="st9" d="M380.6,536c0.4,0,0.7,0.1,1,0.4c0.7,0.6,0.8,1.6,0.2,2.3c-2,2.4-4.7,3.8-7.8,4.1c-3.1,0.3-6-0.7-8.4-2.6
			c-0.7-0.6-0.8-1.6-0.2-2.3c0.6-0.7,1.6-0.8,2.3-0.2c1.7,1.4,3.9,2.1,6.1,1.9c2.2-0.2,4.2-1.3,5.6-3
			C379.7,536.2,380.1,536,380.6,536z"/>
	</g>
	<g>
		<path class="st9" d="M397.9,540.8c0.4,0,0.8,0.2,1.1,0.5c3.8,3.9,10.1,4,14,0.2c0.6-0.6,1.6-0.6,2.3,0c0.6,0.6,0.6,1.6,0,2.3
			c-5.2,5-13.5,4.9-18.5-0.2c-0.6-0.6-0.6-1.6,0-2.3C397.1,541,397.5,540.8,397.9,540.8z"/>
	</g>
	<path class="st0" d="M423,598.3l6.2-40.4c0.1-0.6-0.4-1.2-1-1.2h-11.6c-0.6,0-1.1,0.5-1,1.2l6.2,40.4
		C422,598.9,422.9,598.9,423,598.3z"/>
	<path class="st0" d="M409.7,598.3l6.2-40.4c0.1-0.6-0.4-1.2-1-1.2h-11.6c-0.6,0-1.1,0.5-1,1.2l6.2,40.4
		C408.7,598.9,409.6,598.9,409.7,598.3z"/>
	<path class="st0" d="M396.4,598.3l6.2-40.4c0.1-0.6-0.4-1.2-1-1.2h-11.6c-0.6,0-1.1,0.5-1,1.2l6.2,40.4
		C395.4,598.9,396.3,598.9,396.4,598.3z"/>
	<path class="st0" d="M383.1,598.3l6.2-40.4c0.1-0.6-0.4-1.2-1-1.2h-11.6c-0.6,0-1.1,0.5-1,1.2l6.2,40.4
		C382.1,598.9,383,598.9,383.1,598.3z"/>
	<path class="st0" d="M369.8,598.3l6.2-40.4c0.1-0.6-0.4-1.2-1-1.2h-11.6c-0.6,0-1.1,0.5-1,1.2l6.2,40.4
		C368.9,598.9,369.7,598.9,369.8,598.3z"/>
	<path class="st0" d="M356.5,598.3l6.2-40.4c0.1-0.6-0.4-1.2-1-1.2h-11.6c-0.6,0-1.1,0.5-1,1.2l6.2,40.4
		C355.6,598.9,356.5,598.9,356.5,598.3z"/>
	<path class="st10" d="M272,553.8c0.6,8,7.6,14,15.7,13.4c8-0.6,14-7.7,13.4-15.7c-2.6-32.5,16-62.1,44.4-75.5
		c5.6-2.6,11.7-4,17.8-4h69.5c0,0,0.1,0,0.1,0c0,0,0.1,0,0.1,0h1.8v-0.1c7.1-0.9,12.7-7,12.7-14.4c0-16.5,13.4-30,30-30
		c16.4,0,29.7,13.2,30,29.5c0.1,7.6,5.6,14.3,13.2,15c8.7,0.8,16-6,16-14.5c0-32.6-26.5-59.1-59.1-59.1c-16.7,0-31.9,7-42.6,18.2
		v-92.3h-92.5v121.5C298.2,461.8,268.2,505.4,272,553.8z"/>
	<polygon class="st0" points="519.3,482.2 519.3,503.7 532.6,471.9 520.6,471.9 520.6,450.4 507.3,482.2 	"/>
	<g>
		<path class="st11" d="M490.9,441.3c0.1,0.4,0.1,0.8,0.2,1.2c0,0.1,0,0.2,0.1,0.3c0.1,0.3,0.1,0.5,0.2,0.8c3.9,13.6,20,22,20,22
			s-3.4-8.5,4-16c0,0,0,0,0,0c3.5-3.5,5.1-8.6,3.8-13.7c-1.9-7.7-9.7-12.5-17.5-10.6C494.5,427.1,489.9,434.1,490.9,441.3
			L490.9,441.3C490.9,441.3,490.9,441.3,490.9,441.3z"/>
		<path class="st12" d="M506.1,447.3c-0.8-4.8,0.2-7,1.2-8.1c0.9-0.9,2.3-0.7,3,0.3c0.3,0.4,0.5,0.7,0.7,0.9
			c0.5,0.6,1.5,0.4,1.7-0.4c0.7-2.3,1.1-7.9-1.7-12.7c-0.1-0.1-0.1-0.2-0.2-0.3c0,0,0-0.1-0.1-0.1c-0.1-0.1-0.2-0.3-0.3-0.4
			c0,0,0,0,0,0c-0.3-0.4-0.6-0.7-0.9-1c-2.4-0.8-5.1-0.9-7.8-0.3c-2.9,0.7-5.4,2.3-7.3,4.4c-0.2,0.8-0.3,1.7-0.3,2.6c0,0,0,0,0,0
			c0,0.2,0,0.5,0.1,0.7c0,0.1,0,0.1,0,0.2c0,0.2,0.1,0.3,0.1,0.5c1.4,7.5,6.7,13,9.5,14.8C504.8,449.1,506.3,448.4,506.1,447.3z"/>
	</g>
	<g>
		
			<rect x="452.9" y="427.2" transform="matrix(-1.836970e-16 1 -1 -1.836970e-16 913.0856 -32.6681)" class="st9" width="40" height="26.1"/>
		<g>
			<path class="st9" d="M457.5,458.8h30.7c0.6,0,1,0.5,1,1c0,0.6-0.5,1-1,1h-30.7c-0.6,0-1-0.5-1-1
				C456.5,459.3,457,458.8,457.5,458.8z"/>
		</g>
		<g>
			<path class="st9" d="M457.5,419.6h30.7c0.6,0,1,0.5,1,1c0,0.6-0.5,1-1,1h-30.7c-0.6,0-1-0.5-1-1C456.5,420,457,419.6,457.5,419.6
				z"/>
		</g>
		<g>
			<path class="st9" d="M457.5,432.1h30.7c0.6,0,1,0.5,1,1s-0.5,1-1,1h-30.7c-0.6,0-1-0.5-1-1S457,432.1,457.5,432.1z"/>
		</g>
		<g>
			<path class="st9" d="M457.5,446.7h30.7c0.6,0,1,0.5,1,1c0,0.6-0.5,1-1,1h-30.7c-0.6,0-1-0.5-1-1
				C456.5,447.1,457,446.7,457.5,446.7z"/>
		</g>
		<path class="st0" d="M464.9,437.2c0-4.4,3.6-8,8-8c4.4,0,8,3.6,8,8c0,4.4-8,14.4-8,14.4S464.9,441.6,464.9,437.2z"/>
	</g>
	<g>
		
			<rect x="300.4" y="519.8" transform="matrix(-1 -1.224647e-16 1.224647e-16 -1 624.5479 1051.3569)" class="st0" width="23.8" height="11.7"/>
		<circle class="st13" cx="324.2" cy="525.7" r="5.9"/>
		
			<rect x="289" y="519.8" transform="matrix(-1 -1.224647e-16 1.224647e-16 -1 601.7596 1051.3569)" class="st0" width="23.8" height="11.7"/>
		<circle class="st0" cx="289" cy="525.7" r="5.9"/>
		
			<rect x="295.2" y="531.4" transform="matrix(-1 -1.224647e-16 1.224647e-16 -1 612.4967 1074.567)" class="st0" width="22.1" height="11.7"/>
		<circle class="st13" cx="317.3" cy="537.3" r="5.9"/>
		<circle class="st0" cx="295.2" cy="537.3" r="5.9"/>
		<circle class="st13" cx="309.4" cy="525.7" r="5.9"/>
	</g>
	<g>
		<g>
			<path class="st14" d="M329.1,512.3c-2.7,3-6.1,4.2-7.7,2.8c-1.3-1.1,0.5-3.7-1.1-10.3c0.4-0.3,0.8-0.6,1.2-1c1-1.1,1.6-2.6,1.7-4
				c3.3,1.6,7.1,3.8,8,4.6C332.7,505.8,331.8,509.3,329.1,512.3z"/>
			<path class="st14" d="M329.3,486.8c3,2.7,4.2,6.1,2.8,7.7c-1.1,1.3-3.7-0.5-10.3,1.1c-0.3-0.4-0.6-0.8-1-1.2
				c-1.1-1-2.6-1.6-4-1.7c1.6-3.3,3.8-7.1,4.6-8C322.8,483.2,326.3,484.1,329.3,486.8z"/>
			<path class="st14" d="M303.6,486.4c2.7-3,6.1-4.2,7.7-2.8c1.3,1.1-0.5,3.7,1.1,10.3c-0.4,0.3-0.8,0.6-1.2,1c-1,1.1-1.6,2.6-1.7,4
				c-3.3-1.6-7.1-3.8-8-4.6C300,492.9,300.9,489.3,303.6,486.4z"/>
			<path class="st14" d="M300.4,504.4c1.1-1.3,3.7,0.5,10.3-1.1c0.3,0.4,0.6,0.8,1,1.2c1.1,1,2.6,1.6,4,1.7c-1.6,3.3-3.8,7.1-4.6,8
				c-1.4,1.6-5,0.7-7.9-2C300.3,509.4,299,505.9,300.4,504.4z"/>
		</g>
		<circle class="st15" cx="316.2" cy="499.4" r="6.8"/>
	</g>
	<g>
		<polygon class="st7" points="318.2,547.6 321.4,547.6 321.4,554.7 316.3,554.7 		"/>
		
			<rect x="285.5" y="554.1" transform="matrix(-1 -1.224647e-16 1.224647e-16 -1 606.928 1134.8938)" class="st7" width="36" height="26.7"/>
		<polygon class="st7" points="288.7,547.6 285.5,547.6 285.5,554.7 290.7,554.7 		"/>
		
			<rect x="292.1" y="560.8" transform="matrix(-1 -1.224647e-16 1.224647e-16 -1 606.928 1134.4384)" class="st16" width="22.8" height="12.8"/>
		<path class="st16" d="M314.9,573.6c0,0-5.2,2.4-11.4,2.4c-5.9,0-11.4-2.4-11.4-2.4l11.4-4.7L314.9,573.6z"/>
		<path class="st0" d="M295,562.1c0,0.1,0,0.2,0,0.3c0,0,0,0.1,0,0.1c0,0.1,0,0.1,0,0.2c0.1,3.8,3.8,7,3.8,7s-0.3-2.4,2-3.9
			c0,0,0,0,0,0c1.1-0.7,1.9-1.9,1.9-3.3c0-2.1-1.7-3.8-3.8-3.8C296.8,558.7,295.2,560.2,295,562.1L295,562.1
			C295,562.1,295,562.1,295,562.1z"/>
		<path class="st0" d="M306.1,561.4c0,0.1,0,0.2,0,0.2c0,0,0,0,0,0.1c0,0.1,0,0.1,0,0.2c0.1,2.9,3,5.5,3,5.5s-0.3-1.9,1.6-3.1
			c0,0,0,0,0,0c0.9-0.5,1.5-1.5,1.5-2.6c0-1.7-1.3-3-3-3C307.5,558.7,306.2,559.9,306.1,561.4L306.1,561.4
			C306.1,561.4,306.1,561.4,306.1,561.4z"/>
		<path class="st0" d="M303.9,565.7c0.1-1.3,0.5-1.8,0.8-2c0.3-0.2,0.6,0,0.8,0.3c0,0.1,0.1,0.2,0.1,0.3c0.1,0.2,0.4,0.2,0.5,0
			c0.3-0.6,0.8-2,0.4-3.4c0,0,0-0.1,0-0.1c0,0,0,0,0,0c0,0,0-0.1-0.1-0.1c0,0,0,0,0,0c0-0.1-0.1-0.2-0.2-0.3c-0.6-0.4-1.3-0.6-2-0.6
			c-0.8,0-1.5,0.2-2.2,0.7c-0.1,0.2-0.2,0.4-0.2,0.7c0,0,0,0,0,0c0,0.1,0,0.1,0,0.2c0,0,0,0,0,0c0,0,0,0.1,0,0.1
			c-0.1,2,0.9,3.8,1.5,4.4C303.5,566,303.9,566,303.9,565.7z"/>
		
			<rect x="292.1" y="556.9" transform="matrix(-1 -1.224647e-16 1.224647e-16 -1 605.7065 1117.6632)" class="st7" width="21.6" height="3.9"/>
	</g>
</g>
</svg>
